<svg width="535" height="500" viewBox="0 0 535 500" fill="none" xmlns="http://www.w3.org/2000/svg">
<path d="M471.56 263.76C473.7 237.19 467.087 209.45 458.228 184.76C445.12 148 419.526 110.33 376.512 101.63C351.709 96.6301 326.468 101.99 305.196 114.55C284.748 126.63 268.816 142.24 243.66 145.26C218.226 148.32 192.129 147.09 166.567 147.09C100.837 147.09 47.4973 211.62 60.8295 278.84C74.1617 346.06 137.035 392.67 190.374 392.67C238.31 392.67 277.751 365.8 323.279 358.58C345.856 355 368.529 359.24 390.871 353.88C416.84 347.64 441.257 332.77 455.649 311.24C465.45 296.56 470.222 280.39 471.56 263.76Z" fill="#CDFAC9"/>
<path opacity="0.7" d="M471.56 263.76C473.7 237.19 467.087 209.45 458.228 184.76C445.12 148 419.526 110.33 376.512 101.63C351.709 96.6301 326.468 101.99 305.196 114.55C284.748 126.63 268.816 142.24 243.66 145.26C218.226 148.32 192.129 147.09 166.567 147.09C100.837 147.09 47.4973 211.62 60.8295 278.84C74.1617 346.06 137.035 392.67 190.374 392.67C238.31 392.67 277.751 365.8 323.279 358.58C345.856 355 368.529 359.24 390.871 353.88C416.84 347.64 441.257 332.77 455.649 311.24C465.45 296.56 470.222 280.39 471.56 263.76Z" fill="white"/>
<path d="M463.866 254.43C463.866 254.43 463.866 249.43 456.376 242.5C448.886 235.57 444.136 231.55 444.136 231.55C444.136 231.55 440.412 242.99 447.346 249.96C452.436 254.855 457.955 259.344 463.845 263.38L463.866 254.43Z" fill="#CDFAC9"/>
<path d="M453.06 285.49C453.06 285.49 453.06 280.49 445.57 273.56C438.08 266.63 433.35 262.61 433.35 262.61C433.35 262.61 429.616 274.05 436.56 281.02C441.65 285.915 447.169 290.404 453.06 294.44V285.49Z" fill="#CDFAC9"/>
<path d="M463.396 262.9C463.396 262.9 463.963 257.96 472.159 251.77C480.355 245.58 485.566 242.1 485.566 242.1C485.566 242.1 487.974 253.84 480.312 260.1C474.698 264.467 468.703 268.387 462.39 271.82L463.396 262.9Z" fill="#CDFAC9"/>
<path d="M450.342 299.58C450.342 299.58 451.412 294.72 460.303 289.37C469.195 284.02 474.716 281.07 474.716 281.07C474.716 281.07 475.786 292.99 467.472 298.44C461.398 302.232 454.995 305.544 448.33 308.34L450.342 299.58Z" fill="#CDFAC9"/>
<path d="M452.792 339.58C452.792 339.58 452.792 334.58 460.282 327.64C467.772 320.7 472.512 316.7 472.512 316.7C472.512 316.7 476.246 328.14 469.302 335.1C464.214 340 458.695 344.493 452.803 348.53L452.792 339.58Z" fill="#CDFAC9"/>
<path d="M452.674 349.34C452.674 349.34 453.423 344.42 447.11 336.54C440.797 328.66 436.656 324.08 436.656 324.08C436.656 324.08 431.231 334.91 437.02 342.72C441.311 348.243 446.089 353.422 451.305 358.2L452.674 349.34Z" fill="#CDFAC9"/>
<path d="M445.323 378.27C445.323 378.27 445.323 373.27 452.813 366.34C460.303 359.41 465.054 355.39 465.054 355.39C465.054 355.39 468.778 366.83 461.844 373.8C456.753 378.697 451.234 383.189 445.345 387.23L445.323 378.27Z" fill="#CDFAC9"/>
<path d="M450.299 404.5C450.299 404.5 448.951 399.69 454.269 391.19C459.586 382.69 463.15 377.71 463.15 377.71C463.15 377.71 469.848 387.89 465.043 396.27C461.449 402.211 457.33 407.861 452.728 413.16L450.299 404.5Z" fill="#CDFAC9"/>
<path d="M464.541 253.16C464.166 258.338 463.487 263.492 462.508 268.6C459.554 282.82 452.193 292 449.25 304.84C446.308 317.68 454.761 334.23 452.46 350.73C450.16 367.23 443.333 376.4 445.291 387.41C447.249 398.42 457.564 428.24 457.564 428.24" stroke="#263238" stroke-linecap="round" stroke-linejoin="round"/>
<path d="M463.332 266.21L471.357 260.45" stroke="#263238" stroke-linecap="round" stroke-linejoin="round"/>
<path d="M463.706 259.58L460.335 253.99" stroke="#263238" stroke-linecap="round" stroke-linejoin="round"/>
<path d="M449.7 304.25C449.7 304.25 456.419 299.54 463.331 294.83" stroke="#263238" stroke-linecap="round" stroke-linejoin="round"/>
<path d="M453.06 294.44C453.06 294.44 447.453 284.18 441.108 277.38" stroke="#263238" stroke-linecap="round" stroke-linejoin="round"/>
<path d="M453.06 346.66C456.893 340.039 461.737 333.976 467.44 328.66" stroke="#263238" stroke-linecap="round" stroke-linejoin="round"/>
<path d="M451.754 353.64C449.715 349.151 447.278 344.829 444.467 340.72C440.551 335.31 439.984 334.61 439.984 334.61" stroke="#263238" stroke-linecap="round" stroke-linejoin="round"/>
<path d="M445.323 387.41C447.029 383.469 449.054 379.654 451.379 376C453.707 372.604 456.33 369.393 459.223 366.4" stroke="#263238" stroke-linecap="round" stroke-linejoin="round"/>
<path d="M452.728 413.16C452.338 409.391 453.032 405.594 454.739 402.16C457.543 397.1 460.71 390.47 462.015 387.85" stroke="#263238" stroke-linecap="round" stroke-linejoin="round"/>
<path d="M403.069 320.88C403.069 320.88 402.491 317.76 406.354 312.63C410.217 307.5 412.774 304.53 412.774 304.53C412.774 304.53 416.433 311.33 412.902 316.39C410.28 319.979 407.341 323.358 404.118 326.49L403.069 320.88Z" fill="#CDFAC9"/>
<path d="M413.459 339.26C413.459 339.26 412.881 336.14 416.744 331.01C420.606 325.88 423.164 322.91 423.164 322.91C423.164 322.91 426.823 329.71 423.292 334.78C420.668 338.365 417.729 341.74 414.507 344.87L413.459 339.26Z" fill="#CDFAC9"/>
<path d="M404.342 326.14C404.342 326.14 403.422 323.14 397.559 320.05C391.695 316.96 388.036 315.34 388.036 315.34C388.036 315.34 387.886 322.95 393.386 326.09C397.412 328.256 401.625 330.106 405.979 331.62L404.342 326.14Z" fill="#CDFAC9"/>
<path d="M416.797 347.82C416.797 347.82 415.535 344.88 409.371 342.42C403.208 339.96 399.356 338.68 399.356 338.68C399.356 338.68 400.062 346.26 405.926 348.84C410.175 350.599 414.574 352.024 419.076 353.1L416.797 347.82Z" fill="#CDFAC9"/>
<path d="M419.9 373.15C419.9 373.15 419.333 370.03 413.844 366.42C408.355 362.81 404.899 360.8 404.899 360.8C404.899 360.8 403.893 368.35 409.04 372.01C412.799 374.569 416.783 376.827 420.949 378.76L419.9 373.15Z" fill="#CDFAC9"/>
<path d="M421.12 379.26C421.12 379.26 420.05 376.26 423.121 370.66C426.192 365.06 428.225 361.79 428.225 361.79C428.225 361.79 432.879 368.03 430.161 373.52C428.114 377.418 425.719 381.147 423.003 384.67L421.12 379.26Z" fill="#CDFAC9"/>
<path d="M430.472 404.41C430.472 404.41 430.857 401.27 436.111 397.41C441.364 393.55 444.671 391.32 444.671 391.32C444.671 391.32 446.137 398.81 441.225 402.74C437.628 405.491 433.791 407.956 429.755 410.11L430.472 404.41Z" fill="#CDFAC9"/>
<path d="M429.07 396.65C429.07 396.65 428.492 393.53 423.014 389.92C417.536 386.31 414.09 384.3 414.09 384.3C414.09 384.3 413.084 391.85 418.231 395.52C421.994 398.075 425.977 400.332 430.14 402.27L429.07 396.65Z" fill="#CDFAC9"/>
<path d="M429.07 413.61C429.07 413.61 429.348 410.45 425.025 405.66C420.703 400.87 417.899 398.11 417.899 398.11C417.899 398.11 414.871 405.17 418.862 409.94C421.788 413.299 425.009 416.423 428.492 419.28L429.07 413.61Z" fill="#CDFAC9"/>
<path d="M402.502 320.14C403.339 323.35 404.364 326.515 405.573 329.62C409.072 338.24 414.753 343.25 418.092 351C421.43 358.75 418.092 370 421.387 380.11C424.683 390.22 430.14 395.28 430.14 402.38C430.14 409.48 427.187 429.23 427.187 429.23" stroke="#263238" stroke-linecap="round" stroke-linejoin="round"/>
<path d="M404.781 328.2L399.078 325.41" stroke="#263238" stroke-linecap="round" stroke-linejoin="round"/>
<path d="M403.775 324.08L405.23 320.24" stroke="#263238" stroke-linecap="round" stroke-linejoin="round"/>
<path d="M417.739 350.68C417.739 350.68 412.977 348.41 408.109 346.15" stroke="#263238" stroke-linecap="round" stroke-linejoin="round"/>
<path d="M414.497 344.87C415.9 340.75 417.746 336.773 420.007 333" stroke="#263238" stroke-linecap="round" stroke-linejoin="round"/>
<path d="M420.564 377.61C417.389 373.855 413.647 370.551 409.457 367.8" stroke="#263238" stroke-linecap="round" stroke-linejoin="round"/>
<path d="M422.19 381.85C422.952 378.833 423.979 375.879 425.261 373.02C427.091 369.23 427.401 368.73 427.401 368.73" stroke="#263238" stroke-linecap="round" stroke-linejoin="round"/>
<path d="M429.883 407.77C431.739 405.621 433.794 403.63 436.025 401.82C437.444 400.843 438.776 399.76 440.005 398.58" stroke="#263238" stroke-linecap="round" stroke-linejoin="round"/>
<path d="M430.14 402.38C428.611 400.076 426.898 397.883 425.015 395.82C423.16 393.928 421.142 392.182 418.98 390.6" stroke="#263238" stroke-linecap="round" stroke-linejoin="round"/>
<path d="M428.492 419.28C428.301 416.875 427.425 414.562 425.956 412.58C423.613 409.69 420.853 405.85 419.729 404.34" stroke="#263238" stroke-linecap="round" stroke-linejoin="round"/>
<path d="M99.1568 277.32L94.4702 264.81L99.1568 270.12L95.476 251.35L101.168 264.81L103.18 238.52L106.529 263.55L110.21 258.55V264.81L114.565 256.36L112.222 271.06L116.234 268.56L109.878 276.69L99.1568 277.32Z" fill="#CDFAC9"/>
<path d="M113.891 274.19H96.4818L99.6169 307.04H110.756L113.891 274.19Z" fill="#263238" stroke="#263238" stroke-linecap="round" stroke-linejoin="round"/>
<path d="M146.547 306.67H87.2371V424.07H146.547V306.67Z" fill="white" stroke="#263238" stroke-linecap="round" stroke-linejoin="round"/>
<path d="M149.789 306.67H116.887V424.07H149.789V306.67Z" fill="white" stroke="#263238" stroke-linecap="round" stroke-linejoin="round"/>
<path d="M146.087 306.67H116.887V424.07H146.087V306.67Z" fill="#263238" stroke="#263238" stroke-linecap="round" stroke-linejoin="round"/>
<path d="M142.802 396.77H116.887V420.81H142.802V396.77Z" fill="#CDFAC9" stroke="#263238" stroke-linecap="round" stroke-linejoin="round"/>
<path d="M142.802 398.07H116.887V401.15H142.802V398.07Z" fill="white" stroke="#263238" stroke-linecap="round" stroke-linejoin="round"/>
<path d="M142.802 415.77H116.887V418.85H142.802V415.77Z" fill="white" stroke="#263238" stroke-linecap="round" stroke-linejoin="round"/>
<path d="M121.798 397.27V427.67" stroke="#263238" stroke-linecap="round" stroke-linejoin="round"/>
<path d="M130.84 397.27V427.67" stroke="#263238" stroke-linecap="round" stroke-linejoin="round"/>
<path d="M138.779 397.27V427.67" stroke="#263238" stroke-linecap="round" stroke-linejoin="round"/>
<path d="M142.802 311.03H116.887V346.38H142.802V311.03Z" fill="#CDFAC9" stroke="#263238" stroke-linecap="round" stroke-linejoin="round"/>
<path d="M142.802 312.51H116.887V316.01H142.802V312.51Z" fill="white" stroke="#263238" stroke-linecap="round" stroke-linejoin="round"/>
<path d="M142.802 335.17H116.887V338.67H142.802V335.17Z" fill="white" stroke="#263238" stroke-linecap="round" stroke-linejoin="round"/>
<path d="M121.798 311.59V346.14" stroke="#263238" stroke-linecap="round" stroke-linejoin="round"/>
<path d="M130.84 311.59V346.14" stroke="#263238" stroke-linecap="round" stroke-linejoin="round"/>
<path d="M138.779 311.59V346.14" stroke="#263238" stroke-linecap="round" stroke-linejoin="round"/>
<path d="M142.802 353.63H116.887V388.98H142.802V353.63Z" fill="#CDFAC9" stroke="#263238" stroke-linecap="round" stroke-linejoin="round"/>
<path d="M142.802 355.11H116.887V358.61H142.802V355.11Z" fill="white" stroke="#263238" stroke-linecap="round" stroke-linejoin="round"/>
<path d="M142.802 377.77H116.887V381.27H142.802V377.77Z" fill="white" stroke="#263238" stroke-linecap="round" stroke-linejoin="round"/>
<path d="M121.798 354.2V388.74" stroke="#263238" stroke-linecap="round" stroke-linejoin="round"/>
<path d="M130.84 354.2V388.74" stroke="#263238" stroke-linecap="round" stroke-linejoin="round"/>
<path d="M138.779 354.2V388.74" stroke="#263238" stroke-linecap="round" stroke-linejoin="round"/>
<path d="M146.536 345.89H116.887V349.91H146.536V345.89Z" fill="white" stroke="#263238" stroke-linecap="round" stroke-linejoin="round"/>
<path d="M146.536 388.76H116.887V392.78H146.536V388.76Z" fill="white" stroke="#263238" stroke-linecap="round" stroke-linejoin="round"/>
<path d="M146.536 306.67V424.06" stroke="#263238" stroke-linecap="round" stroke-linejoin="round"/>
<path d="M112.703 306.67V424.06H116.887V311.03H146.023V306.62L112.703 306.67Z" fill="white" stroke="#263238" stroke-linecap="round" stroke-linejoin="round"/>
<path d="M116.887 311.03V306.67" stroke="#263238" stroke-linecap="round" stroke-linejoin="round"/>
<path d="M146.312 252.74C143.198 247.13 141.893 243.11 141.893 242.18C141.893 240.34 146.173 239.24 146.173 239.24C152.85 235.94 184.254 240.71 198.389 242.91C206.301 244.199 214.306 244.935 222.335 245.11C222.335 245.11 224.293 243.65 226.615 241.81C228.937 239.97 239.958 227.87 244.281 226.81C248.604 225.75 252.52 228.28 252.52 228.28C252.52 228.28 259.593 232.28 258.405 233.05C257.217 233.82 239.958 247.72 235.635 250.29C231.313 252.86 222.293 251.76 214.439 253.23C207.676 254.49 180.284 256.05 174.003 256.53C169.286 257.576 164.336 257.19 159.869 255.43" fill="white"/>
<mask id="mask0_12_1170" style="mask-type:luminance" maskUnits="userSpaceOnUse" x="141" y="226" width="118" height="32">
<path d="M146.312 252.74C143.198 247.13 141.893 243.11 141.893 242.18C141.893 240.34 146.173 239.24 146.173 239.24C152.85 235.94 184.254 240.71 198.389 242.91C206.301 244.199 214.306 244.935 222.335 245.11C222.335 245.11 224.293 243.65 226.615 241.81C228.937 239.97 239.958 227.87 244.281 226.81C248.604 225.75 252.52 228.28 252.52 228.28C252.52 228.28 259.593 232.28 258.405 233.05C257.217 233.82 239.958 247.72 235.635 250.29C231.313 252.86 222.293 251.76 214.439 253.23C207.676 254.49 180.284 256.05 174.003 256.53C169.286 257.576 164.336 257.19 159.869 255.43" fill="white"/>
</mask>
<g mask="url(#mask0_12_1170)">
<path d="M252.595 228.24C252.595 228.24 248.668 225.67 244.356 226.77C240.044 227.87 229.044 239.98 226.69 241.77C224.336 243.56 222.41 245.07 222.41 245.07C214.381 244.895 206.376 244.159 198.464 242.87C184.329 240.67 152.924 235.87 146.248 239.2C146.248 239.2 141.968 240.3 141.968 242.14C142.116 243.169 142.4 244.176 142.813 245.14L143.401 245.34C143.401 245.34 151.245 244.57 168.172 244.95C185.099 245.33 224.251 247.5 226.765 248.35C227.835 248.73 235.421 247.13 243.832 244.35C250.252 239.46 257.795 233.35 258.555 232.92C259.668 232.27 252.595 228.24 252.595 228.24Z" fill="#CDFAC9"/>
<path opacity="0.5" d="M252.595 228.24C252.595 228.24 248.668 225.67 244.356 226.77C240.044 227.87 229.044 239.98 226.69 241.77C224.336 243.56 222.41 245.07 222.41 245.07C214.381 244.895 206.376 244.159 198.464 242.87C184.329 240.67 152.924 235.87 146.248 239.2C146.248 239.2 141.968 240.3 141.968 242.14C142.116 243.169 142.4 244.176 142.813 245.14L143.401 245.34C143.401 245.34 151.245 244.57 168.172 244.95C185.099 245.33 224.251 247.5 226.765 248.35C227.835 248.73 235.421 247.13 243.832 244.35C250.252 239.46 257.795 233.35 258.555 232.92C259.668 232.27 252.595 228.24 252.595 228.24Z" fill="white"/>
</g>
<path d="M146.312 252.74C143.198 247.13 141.893 243.11 141.893 242.18C141.893 240.34 146.173 239.24 146.173 239.24C152.85 235.94 184.254 240.71 198.389 242.91C206.301 244.199 214.306 244.935 222.335 245.11C222.335 245.11 224.293 243.65 226.615 241.81C228.937 239.97 239.958 227.87 244.281 226.81C248.604 225.75 252.52 228.28 252.52 228.28C252.52 228.28 259.593 232.28 258.405 233.05C257.217 233.82 239.958 247.72 235.635 250.29C231.313 252.86 222.293 251.76 214.439 253.23C207.676 254.49 180.284 256.05 174.003 256.53C169.286 257.576 164.336 257.19 159.869 255.43" stroke="#263238" stroke-linecap="round" stroke-linejoin="round"/>
<path d="M301.365 285.36C302.076 284.1 303.141 283.046 304.446 282.311C305.751 281.576 307.246 281.188 308.77 281.19H380.139C380.139 281.19 385.296 281.19 383.755 290.35C382.215 299.51 361.05 355.44 355.935 372.35C350.821 389.26 349.74 424.9 349.74 424.9H264.14C264.14 424.9 270.924 339.67 301.365 285.36Z" fill="white"/>
<mask id="mask1_12_1170" style="mask-type:luminance" maskUnits="userSpaceOnUse" x="264" y="281" width="121" height="144">
<path d="M301.365 285.36C302.076 284.1 303.141 283.046 304.446 282.311C305.751 281.576 307.246 281.188 308.77 281.19H380.139C380.139 281.19 385.296 281.19 383.755 290.35C382.215 299.51 361.05 355.44 355.935 372.35C350.821 389.26 349.74 424.9 349.74 424.9H264.14C264.14 424.9 270.924 339.67 301.365 285.36Z" fill="white"/>
</mask>
<g mask="url(#mask1_12_1170)">
<path opacity="0.16" d="M333.508 281.19H308.77C307.246 281.188 305.751 281.576 304.446 282.311C303.141 283.046 302.076 284.1 301.365 285.36C270.924 339.67 264.065 424.87 264.065 424.87H302.457L311.926 391.26L351.409 398.87C351.688 396.05 352.008 393.18 352.383 390.35L351.516 381.35C351.516 381.35 343.427 373.4 340.88 371.41C338.334 369.42 340.024 365.83 339.597 350.32C339.169 334.81 324.274 323.66 318.732 314.11C313.189 304.56 321.717 298.59 329.378 289.04C332.106 285.59 333.219 283.05 333.508 281.19Z" fill="black"/>
</g>
<path d="M301.365 285.36C302.076 284.1 303.141 283.046 304.446 282.311C305.751 281.576 307.246 281.188 308.77 281.19H380.139C380.139 281.19 385.296 281.19 383.755 290.35C382.215 299.51 361.05 355.44 355.935 372.35C350.821 389.26 349.74 424.9 349.74 424.9H264.14C264.14 424.9 270.924 339.67 301.365 285.36Z" stroke="#263238" stroke-linecap="round" stroke-linejoin="round"/>
<path d="M367.759 297.1C360.547 312.83 345.289 375.1 342.807 424.87H349.697C349.697 424.87 350.767 389.19 355.893 372.32C361.018 355.45 382.204 299.51 383.713 290.32C385.221 281.13 380.096 281.16 380.096 281.16C380.096 281.16 373.548 284.49 367.759 297.1Z" fill="#263238" stroke="#263238" stroke-linecap="round" stroke-linejoin="round"/>
<path d="M242.387 265.66C242.387 265.66 231.002 259.42 226.69 248.42C222.378 237.42 260.449 219.8 276.98 218.7C293.512 217.6 298.177 221.63 308.01 237.41C317.843 253.19 324.499 274.83 319.395 285.47C314.291 296.11 305.656 298.68 311.905 307.47C318.154 316.26 335.852 341.22 334.675 352.96C333.498 364.7 321.332 374.96 303.645 376.08C285.957 377.2 262.417 367.27 242.794 351.08C223.17 334.89 228.263 311.08 235.304 303.38C242.344 295.68 252.969 292.74 253.75 285.04C254.532 277.34 242.387 265.66 242.387 265.66Z" fill="#263238" stroke="#263238" stroke-linecap="round" stroke-linejoin="round"/>
<path d="M290.912 248.25C296.957 258.77 304.522 272.86 306.887 281.37C311.017 296.27 289.767 305.65 295.662 312.82" stroke="white" stroke-linecap="round" stroke-linejoin="round"/>
<path d="M282.673 234.47C282.673 234.47 285.027 238.22 288.279 243.74" stroke="white" stroke-linecap="round" stroke-linejoin="round"/>
<path d="M314.387 260.94C315.085 262.912 315.537 264.952 315.736 267.02" stroke="white" stroke-linecap="round" stroke-linejoin="round"/>
<path d="M286.76 229C286.76 229 305.357 241.84 312.782 257.21" stroke="white" stroke-linecap="round" stroke-linejoin="round"/>
<path d="M260.952 238.63C247.673 242.11 228.573 247.76 230.125 251.02" stroke="white" stroke-linecap="round" stroke-linejoin="round"/>
<path d="M273.224 235.57C273.224 235.57 270.389 236.23 266.162 237.29" stroke="white" stroke-linecap="round" stroke-linejoin="round"/>
<path d="M256.8 229.09C264.406 226.85 272.373 225.868 280.34 226.19" stroke="white" stroke-linecap="round" stroke-linejoin="round"/>
<path d="M251.386 231.16C252.588 230.575 253.832 230.067 255.109 229.64" stroke="white" stroke-linecap="round" stroke-linejoin="round"/>
<path d="M146.312 252.74C144.51 249.656 143.074 246.396 142.032 243.02C143.069 246.398 144.505 249.658 146.312 252.74ZM141.914 242.45C141.914 242.51 141.914 242.58 141.914 242.67C141.935 242.58 141.925 242.51 141.914 242.45ZM146.312 252.73C150.314 259.814 155.292 266.376 161.121 272.25C175.255 286.56 216.086 323.99 219.971 326.56C223.855 329.13 222.72 336.46 219.971 343.8C217.221 351.14 207.013 361.8 207.409 373.52C207.805 385.24 211.689 403.24 211.336 406.91C210.983 410.58 201.16 423.06 201.16 423.06H302.446C302.446 423.06 289.82 408.06 289.82 402.93C289.82 397.8 307.154 332.07 307.935 327.3C308.716 322.53 305.581 319.23 299.3 318.86C293.019 318.49 269.073 313.72 267.896 310.05C266.719 306.38 274.177 292.44 274.177 292.44L250.637 293.54C250.637 293.54 249.46 303.08 247.887 304.92C246.314 306.76 243.96 303.08 238.46 300.52C232.96 297.96 222.41 295.75 218.44 292.81C214.471 289.87 176.828 256.81 176.828 256.81" fill="white"/>
<mask id="mask2_12_1170" style="mask-type:luminance" maskUnits="userSpaceOnUse" x="141" y="242" width="168" height="182">
<path d="M146.312 252.74C144.51 249.656 143.074 246.396 142.032 243.02C143.069 246.398 144.505 249.658 146.312 252.74ZM141.914 242.45C141.914 242.51 141.914 242.58 141.914 242.67C141.935 242.58 141.925 242.51 141.914 242.45ZM146.312 252.73C150.314 259.814 155.292 266.376 161.121 272.25C175.255 286.56 216.086 323.99 219.971 326.56C223.855 329.13 222.72 336.46 219.971 343.8C217.221 351.14 207.013 361.8 207.409 373.52C207.805 385.24 211.689 403.24 211.336 406.91C210.983 410.58 201.16 423.06 201.16 423.06H302.446C302.446 423.06 289.82 408.06 289.82 402.93C289.82 397.8 307.154 332.07 307.935 327.3C308.716 322.53 305.581 319.23 299.3 318.86C293.019 318.49 269.073 313.72 267.896 310.05C266.719 306.38 274.177 292.44 274.177 292.44L250.637 293.54C250.637 293.54 249.46 303.08 247.887 304.92C246.314 306.76 243.96 303.08 238.46 300.52C232.96 297.96 222.41 295.75 218.44 292.81C214.471 289.87 176.828 256.81 176.828 256.81" fill="white"/>
</mask>
<g mask="url(#mask2_12_1170)">
<path d="M224.454 295.64C226.412 298.84 228.37 301.73 228.37 301.73C228.37 301.73 234.972 305.2 236.62 305.2C238.268 305.2 248.176 310.2 248.176 310.2C248.176 310.2 256.436 308.27 253.526 301.71C252.608 300.031 251.448 298.476 250.08 297.09C249.588 300 248.796 303.81 247.865 304.9C246.293 306.73 243.939 303.06 238.439 300.5C234.876 298.84 229.108 297.32 224.454 295.64Z" fill="#CDFAC9"/>
<path d="M204.295 280.79C192.172 270.3 176.828 256.85 176.828 256.85L167.904 255.65L166.834 256.21C166.834 256.21 192.022 277.04 197.383 279.36C199.552 280.292 201.908 280.779 204.295 280.79Z" fill="#CDFAC9"/>
<path d="M216.996 291.65L216.033 290.85C216.525 291.61 216.803 292.09 216.803 292.09L216.996 291.65Z" fill="#CDFAC9"/>
<g opacity="0.5">
<path d="M224.454 295.64C226.412 298.84 228.37 301.73 228.37 301.73C228.37 301.73 234.972 305.2 236.62 305.2C238.268 305.2 248.176 310.2 248.176 310.2C248.176 310.2 256.436 308.27 253.526 301.71C252.608 300.031 251.448 298.476 250.08 297.09C249.588 300 248.796 303.81 247.865 304.9C246.293 306.73 243.939 303.06 238.439 300.5C234.876 298.84 229.108 297.32 224.454 295.64Z" fill="white"/>
<path d="M204.295 280.79C192.172 270.3 176.828 256.85 176.828 256.85L167.904 255.65L166.834 256.21C166.834 256.21 192.022 277.04 197.383 279.36C199.552 280.292 201.908 280.779 204.295 280.79Z" fill="white"/>
<path d="M216.996 291.65L216.033 290.85C216.525 291.61 216.803 292.09 216.803 292.09L216.996 291.65Z" fill="white"/>
</g>
</g>
<path d="M141.893 242.18C141.888 242.25 141.888 242.32 141.893 242.39M142.032 243.02C143.074 246.396 144.51 249.656 146.312 252.74C144.505 249.658 143.069 246.398 142.032 243.02ZM142.032 243.02C142.002 242.925 141.981 242.828 141.968 242.73M146.312 252.73C150.314 259.814 155.292 266.376 161.121 272.25C175.255 286.56 216.086 323.99 219.971 326.56C223.855 329.13 222.72 336.46 219.971 343.8C217.221 351.14 207.013 361.8 207.409 373.52C207.805 385.24 211.689 403.24 211.336 406.91C210.983 410.58 201.16 423.06 201.16 423.06H302.446C302.446 423.06 289.82 408.06 289.82 402.93C289.82 397.8 307.154 332.07 307.935 327.3C308.716 322.53 305.581 319.23 299.3 318.86C293.019 318.49 269.073 313.72 267.896 310.05C266.719 306.38 274.177 292.44 274.177 292.44L250.637 293.54C250.637 293.54 249.46 303.08 247.887 304.92C246.314 306.76 243.96 303.08 238.46 300.52C232.96 297.96 222.41 295.75 218.44 292.81C214.471 289.87 176.828 256.81 176.828 256.81M141.914 242.45C141.914 242.51 141.914 242.58 141.914 242.67C141.935 242.58 141.925 242.51 141.914 242.45Z" stroke="#263238" stroke-linecap="round" stroke-linejoin="round"/>
<path d="M176.828 256.85C176.828 256.85 164.288 257.07 157.29 251.68" stroke="#263238" stroke-linecap="round" stroke-linejoin="round"/>
<path d="M267.907 310.05C266.73 306.39 274.187 292.44 274.187 292.44L250.647 293.54C250.647 293.54 249.47 303.08 247.898 304.92C246.325 306.76 243.971 303.08 238.471 300.52C238.054 300.32 237.593 300.13 237.123 299.94L235.7 320.85C235.7 320.85 237.765 341.1 262.524 337.25C272.55 335.69 283.25 327.33 292.484 317.93C282.983 316.3 268.805 312.86 267.907 310.05Z" fill="white"/>
<mask id="mask3_12_1170" style="mask-type:luminance" maskUnits="userSpaceOnUse" x="235" y="292" width="58" height="46">
<path d="M267.907 310.05C266.73 306.39 274.187 292.44 274.187 292.44L250.647 293.54C250.647 293.54 249.47 303.08 247.898 304.92C246.325 306.76 243.971 303.08 238.471 300.52C238.054 300.32 237.593 300.13 237.123 299.94L235.7 320.85C235.7 320.85 237.765 341.1 262.524 337.25C272.55 335.69 283.25 327.33 292.484 317.93C282.983 316.3 268.805 312.86 267.907 310.05Z" fill="white"/>
</mask>
<g mask="url(#mask3_12_1170)">
<path d="M267.243 295.21C267.243 295.21 265.82 302.67 264.675 310.92C263.53 319.17 262.685 325.31 262.685 325.31L267.907 310.05L273.792 293.88C273.792 293.88 268.099 293.88 267.243 295.21Z" fill="#CDFAC9"/>
<path opacity="0.5" d="M267.243 295.21C267.243 295.21 265.82 302.67 264.675 310.92C263.53 319.17 262.685 325.31 262.685 325.31L267.907 310.05L273.792 293.88C273.792 293.88 268.099 293.88 267.243 295.21Z" fill="white"/>
</g>
<path d="M267.907 310.05C266.73 306.39 274.187 292.44 274.187 292.44L250.647 293.54C250.647 293.54 249.47 303.08 247.898 304.92C246.325 306.76 243.971 303.08 238.471 300.52C238.054 300.32 237.593 300.13 237.123 299.94L235.7 320.85C235.7 320.85 237.765 341.1 262.524 337.25C272.55 335.69 283.25 327.33 292.484 317.93C282.983 316.3 268.805 312.86 267.907 310.05Z" stroke="#263238" stroke-linecap="round" stroke-linejoin="round"/>
<path d="M247.887 304.92C246.314 306.75 243.96 303.08 238.46 300.52C234.993 298.89 229.472 297.41 224.903 295.81C223.609 292.94 221.897 289.2 220.794 286.94C218.836 282.94 215.691 285.47 215.691 285.47C214.049 283.726 212.723 281.743 211.764 279.6C209.806 275.6 206.66 275.93 202.348 275.2C198.036 274.47 188.994 266.76 188.994 266.76C188.994 266.76 184.768 263.76 183.023 262.27C180.99 266.01 176.122 272.59 165.593 276.7C182.381 293.09 216.44 324.23 220.013 326.57C223.94 329.13 222.763 336.47 220.013 343.81C217.263 351.15 207.056 361.81 207.452 373.53C207.847 385.25 211.732 403.25 211.378 406.92C211.025 410.19 203.193 420.44 201.492 422.64L205.483 423.06H226.262C226.144 413.22 226.155 373.06 233.356 357.06C241.606 338.67 247.887 304.92 247.887 304.92Z" fill="#CDFAC9"/>
<mask id="mask4_12_1170" style="mask-type:luminance" maskUnits="userSpaceOnUse" x="165" y="262" width="83" height="162">
<path d="M247.887 304.92C246.314 306.75 243.96 303.08 238.46 300.52C234.993 298.89 229.472 297.41 224.903 295.81C223.609 292.94 221.897 289.2 220.794 286.94C218.836 282.94 215.691 285.47 215.691 285.47C214.049 283.726 212.723 281.743 211.764 279.6C209.806 275.6 206.66 275.93 202.348 275.2C198.036 274.47 188.994 266.76 188.994 266.76C188.994 266.76 184.768 263.76 183.023 262.27C180.99 266.01 176.122 272.59 165.593 276.7C182.381 293.09 216.44 324.23 220.013 326.57C223.94 329.13 222.763 336.47 220.013 343.81C217.263 351.15 207.056 361.81 207.452 373.53C207.847 385.25 211.732 403.25 211.378 406.92C211.025 410.19 203.193 420.44 201.492 422.64L205.483 423.06H226.262C226.144 413.22 226.155 373.06 233.356 357.06C241.606 338.67 247.887 304.92 247.887 304.92Z" fill="white"/>
</mask>
<g mask="url(#mask4_12_1170)">
<path opacity="0.16" d="M238.46 300.52C234.993 298.89 229.472 297.41 224.903 295.81C223.609 292.94 221.897 289.2 220.794 286.94C218.836 282.94 215.691 285.47 215.691 285.47C214.049 283.726 212.723 281.743 211.764 279.6C209.806 275.6 206.66 275.93 202.348 275.2C198.036 274.47 188.994 266.76 188.994 266.76C188.994 266.76 184.768 263.76 183.023 262.27C182.153 263.858 181.117 265.362 179.931 266.76C186.95 272.31 194.697 278.19 197.404 279.36C202.754 281.67 204.006 279.74 208.104 282.06C212.202 284.38 216.771 292.06 216.771 292.06C216.771 292.06 219.254 285.88 221.319 290.13C223.384 294.38 228.338 301.7 228.338 301.7C228.338 301.7 234.94 305.17 236.588 305.17C237.882 305.17 244.227 308.25 246.924 309.58C247.523 306.65 247.855 304.89 247.855 304.89C246.314 306.75 243.96 303.08 238.46 300.52Z" fill="black"/>
</g>
<path d="M247.887 304.92C246.314 306.75 243.96 303.08 238.46 300.52C234.993 298.89 229.472 297.41 224.903 295.81C223.609 292.94 221.897 289.2 220.794 286.94C218.836 282.94 215.691 285.47 215.691 285.47C214.049 283.726 212.723 281.743 211.764 279.6C209.806 275.6 206.66 275.93 202.348 275.2C198.036 274.47 188.994 266.76 188.994 266.76C188.994 266.76 184.768 263.76 183.023 262.27C180.99 266.01 176.122 272.59 165.593 276.7C182.381 293.09 216.44 324.23 220.013 326.57C223.94 329.13 222.763 336.47 220.013 343.81C217.263 351.15 207.056 361.81 207.452 373.53C207.847 385.25 211.732 403.25 211.378 406.92C211.025 410.19 203.193 420.44 201.492 422.64L205.483 423.06H226.262C226.144 413.22 226.155 373.06 233.356 357.06C241.606 338.67 247.887 304.92 247.887 304.92Z" stroke="#263238" stroke-linecap="round" stroke-linejoin="round"/>
<path d="M248.165 303.64C248.165 303.64 243.286 302.24 240.279 304.7C237.273 307.16 232.789 319.78 230.146 333.47C228.517 341.44 229.642 349.687 233.356 357.02C233.356 357.02 239.53 341.89 241.403 334.52C243.275 327.15 248.165 303.64 248.165 303.64Z" fill="#CDFAC9"/>
<mask id="mask5_12_1170" style="mask-type:luminance" maskUnits="userSpaceOnUse" x="229" y="303" width="20" height="55">
<path d="M248.165 303.64C248.165 303.64 243.286 302.24 240.279 304.7C237.273 307.16 232.789 319.78 230.146 333.47C228.517 341.44 229.642 349.687 233.356 357.02C233.356 357.02 239.53 341.89 241.403 334.52C243.275 327.15 248.165 303.64 248.165 303.64Z" fill="white"/>
</mask>
<g mask="url(#mask5_12_1170)">
<path opacity="0.16" d="M238.803 305.87C238.803 305.87 242.334 305.07 243.789 305.53C245.014 306.021 246.16 306.671 247.191 307.46L248.165 303.64C246.705 302.943 245.048 302.687 243.425 302.91C240.996 303.37 238.803 305.87 238.803 305.87Z" fill="black"/>
</g>
<path d="M248.165 303.64C248.165 303.64 243.286 302.24 240.279 304.7C237.273 307.16 232.789 319.78 230.146 333.47C228.517 341.44 229.642 349.687 233.356 357.02C233.356 357.02 239.53 341.89 241.403 334.52C243.275 327.15 248.165 303.64 248.165 303.64Z" stroke="#263238" stroke-linecap="round" stroke-linejoin="round"/>
<path d="M215.305 304.84L221.586 328.69L207.452 298.6" stroke="#263238" stroke-linecap="round" stroke-linejoin="round"/>
<path d="M256.682 423.06H302.457C302.457 423.06 289.831 408.06 289.831 402.93C289.831 397.8 307.165 332.07 307.946 327.3C308.727 322.53 305.592 319.23 299.311 318.86C293.03 318.49 269.084 313.72 267.907 310.05C267.907 310.05 258.876 339.77 255.741 359.95C253.044 377.26 255.837 413.18 256.682 423.06Z" fill="#CDFAC9"/>
<mask id="mask6_12_1170" style="mask-type:luminance" maskUnits="userSpaceOnUse" x="254" y="310" width="55" height="114">
<path d="M256.682 423.06H302.457C302.457 423.06 289.831 408.06 289.831 402.93C289.831 397.8 307.165 332.07 307.946 327.3C308.727 322.53 305.592 319.23 299.311 318.86C293.03 318.49 269.084 313.72 267.907 310.05C267.907 310.05 258.876 339.77 255.741 359.95C253.044 377.26 255.837 413.18 256.682 423.06Z" fill="white"/>
</mask>
<g mask="url(#mask6_12_1170)">
<path opacity="0.16" d="M299.311 318.86C294.164 318.56 277.162 315.3 270.539 312.12L272.946 317.32C277.308 319.483 282 321.007 286.856 321.84C294.828 323.17 302.243 322.91 307.09 329.57L307.325 329.9C307.625 328.62 307.828 327.72 307.893 327.3C308.738 322.53 305.592 319.23 299.311 318.86Z" fill="black"/>
</g>
<path d="M256.682 423.06H302.457C302.457 423.06 289.831 408.06 289.831 402.93C289.831 397.8 307.165 332.07 307.946 327.3C308.727 322.53 305.592 319.23 299.311 318.86C293.03 318.49 269.084 313.72 267.907 310.05C267.907 310.05 258.876 339.77 255.741 359.95C253.044 377.26 255.837 413.18 256.682 423.06Z" stroke="#263238" stroke-linecap="round" stroke-linejoin="round"/>
<path d="M267.907 310.05C267.907 310.05 255.794 346.05 255.741 359.95C255.741 359.95 272.946 340.48 275.193 326.8C277.44 313.12 267.907 310.05 267.907 310.05Z" fill="#CDFAC9"/>
<mask id="mask7_12_1170" style="mask-type:luminance" maskUnits="userSpaceOnUse" x="255" y="310" width="21" height="50">
<path d="M267.907 310.05C267.907 310.05 255.794 346.05 255.741 359.95C255.741 359.95 272.946 340.48 275.193 326.8C277.44 313.12 267.907 310.05 267.907 310.05Z" fill="white"/>
</mask>
<g mask="url(#mask7_12_1170)">
<path opacity="0.16" d="M265.82 314.65C267.64 314.593 269.448 314.951 271.086 315.693C272.725 316.436 274.146 317.54 275.225 318.91C275.225 318.91 272.85 312.38 267.907 310.05L265.82 314.65Z" fill="black"/>
</g>
<path d="M267.907 310.05C267.907 310.05 255.794 346.05 255.741 359.95C255.741 359.95 272.946 340.48 275.193 326.8C277.44 313.12 267.907 310.05 267.907 310.05Z" stroke="#263238" stroke-linecap="round" stroke-linejoin="round"/>
<path d="M397.216 416.29C397.216 416.29 406.086 416.63 411.897 417.41C415.771 417.901 419.672 418.191 423.581 418.28C423.581 418.28 420.371 412.22 416.947 410.51C413.523 408.8 407.317 405.74 402.117 406.42C396.917 407.1 389.48 412 390.101 413.56C390.721 415.12 393.493 415.82 397.216 416.29Z" fill="white"/>
<mask id="mask8_12_1170" style="mask-type:luminance" maskUnits="userSpaceOnUse" x="390" y="406" width="34" height="13">
<path d="M397.216 416.29C397.216 416.29 406.086 416.63 411.897 417.41C415.771 417.901 419.672 418.191 423.581 418.28C423.581 418.28 420.371 412.22 416.947 410.51C413.523 408.8 407.317 405.74 402.117 406.42C396.917 407.1 389.48 412 390.101 413.56C390.721 415.12 393.493 415.82 397.216 416.29Z" fill="white"/>
</mask>
<g mask="url(#mask8_12_1170)">
<path d="M397.216 416.29C397.216 416.29 406.086 416.63 411.897 417.41C415.771 417.901 419.672 418.191 423.581 418.28C423.581 418.28 420.371 412.22 416.947 410.51C413.523 408.8 407.317 405.74 402.117 406.42C396.917 407.1 389.48 412 390.101 413.56C390.721 415.12 393.493 415.82 397.216 416.29Z" fill="#CDFAC9"/>
<path opacity="0.5" d="M397.216 416.29C397.216 416.29 406.086 416.63 411.897 417.41C415.771 417.901 419.672 418.191 423.581 418.28C423.581 418.28 420.371 412.22 416.947 410.51C413.523 408.8 407.317 405.74 402.117 406.42C396.917 407.1 389.48 412 390.101 413.56C390.721 415.12 393.493 415.82 397.216 416.29Z" fill="white"/>
</g>
<path d="M397.216 416.29C397.216 416.29 406.086 416.63 411.897 417.41C415.771 417.901 419.672 418.191 423.581 418.28C423.581 418.28 420.371 412.22 416.947 410.51C413.523 408.8 407.317 405.74 402.117 406.42C396.917 407.1 389.48 412 390.101 413.56C390.721 415.12 393.493 415.82 397.216 416.29Z" stroke="#263238" stroke-linecap="round" stroke-linejoin="round"/>
<path d="M411.95 413.81C411.95 413.81 418.98 410.4 420.735 410.45C422.489 410.5 434.152 417.87 433.575 419.05C433.182 419.597 432.616 420.015 431.955 420.245C431.295 420.475 430.573 420.504 429.894 420.33C428.599 419.76 420.745 416.64 420.745 416.64L415.609 417.77L411.95 413.81Z" fill="white"/>
<mask id="mask9_12_1170" style="mask-type:luminance" maskUnits="userSpaceOnUse" x="411" y="410" width="23" height="11">
<path d="M411.95 413.81C411.95 413.81 418.98 410.4 420.735 410.45C422.489 410.5 434.152 417.87 433.575 419.05C433.182 419.597 432.616 420.015 431.955 420.245C431.295 420.475 430.573 420.504 429.894 420.33C428.599 419.76 420.745 416.64 420.745 416.64L415.609 417.77L411.95 413.81Z" fill="white"/>
</mask>
<g mask="url(#mask9_12_1170)">
<path d="M411.95 413.81C411.95 413.81 418.98 410.4 420.735 410.45C422.489 410.5 434.152 417.87 433.575 419.05C432.997 420.23 430.236 421.19 429.894 420.33C429.551 419.47 420.745 416.64 420.745 416.64L415.609 417.77L411.95 413.81Z" fill="#CDFAC9"/>
<path opacity="0.5" d="M411.95 413.81C411.95 413.81 418.98 410.4 420.735 410.45C422.489 410.5 434.152 417.87 433.575 419.05C432.997 420.23 430.236 421.19 429.894 420.33C429.551 419.47 420.745 416.64 420.745 416.64L415.609 417.77L411.95 413.81Z" fill="white"/>
</g>
<path d="M411.95 413.81C411.95 413.81 418.98 410.4 420.735 410.45C422.489 410.5 434.152 417.87 433.575 419.05C433.182 419.597 432.616 420.015 431.955 420.245C431.295 420.475 430.573 420.504 429.894 420.33C428.599 419.76 420.745 416.64 420.745 416.64L415.609 417.77L411.95 413.81Z" stroke="#263238" stroke-linecap="round" stroke-linejoin="round"/>
<path d="M406.932 408.2C406.932 408.2 416.305 407.92 418.167 408.8C420.028 409.68 428.439 423.16 427.176 424.14C425.913 425.12 422.425 424.83 422.532 423.74C422.639 422.65 414.785 415.43 414.785 415.43L408.676 414.18L406.932 408.2Z" fill="white"/>
<mask id="mask10_12_1170" style="mask-type:luminance" maskUnits="userSpaceOnUse" x="406" y="408" width="22" height="17">
<path d="M406.932 408.2C406.932 408.2 416.305 407.92 418.167 408.8C420.028 409.68 428.439 423.16 427.176 424.14C425.913 425.12 422.425 424.83 422.532 423.74C422.639 422.65 414.785 415.43 414.785 415.43L408.676 414.18L406.932 408.2Z" fill="white"/>
</mask>
<g mask="url(#mask10_12_1170)">
<path d="M406.932 408.2C406.932 408.2 416.305 407.92 418.167 408.8C420.028 409.68 428.439 423.16 427.176 424.14C425.913 425.12 422.425 424.83 422.532 423.74C422.639 422.65 414.785 415.43 414.785 415.43L408.676 414.18L406.932 408.2Z" fill="#CDFAC9"/>
<path opacity="0.5" d="M406.932 408.2C406.932 408.2 416.305 407.92 418.167 408.8C420.028 409.68 428.439 423.16 427.176 424.14C425.913 425.12 422.425 424.83 422.532 423.74C422.639 422.65 414.785 415.43 414.785 415.43L408.676 414.18L406.932 408.2Z" fill="white"/>
</g>
<path d="M406.932 408.2C406.932 408.2 416.305 407.92 418.167 408.8C420.028 409.68 428.439 423.16 427.176 424.14C425.913 425.12 422.425 424.83 422.532 423.74C422.639 422.65 414.785 415.43 414.785 415.43L408.676 414.18L406.932 408.2Z" stroke="#263238" stroke-linecap="round" stroke-linejoin="round"/>
<path d="M401.378 406.39C401.378 406.39 410.869 406.1 412.753 407C414.636 407.9 423.153 421.53 421.869 422.53C420.585 423.53 417.075 423.22 417.182 422.12C417.289 421.02 409.339 413.71 409.339 413.71L403.155 412.44L401.378 406.39Z" fill="white"/>
<mask id="mask11_12_1170" style="mask-type:luminance" maskUnits="userSpaceOnUse" x="401" y="406" width="21" height="18">
<path d="M401.378 406.39C401.378 406.39 410.869 406.1 412.753 407C414.636 407.9 423.153 421.53 421.869 422.53C420.585 423.53 417.075 423.22 417.182 422.12C417.289 421.02 409.339 413.71 409.339 413.71L403.155 412.44L401.378 406.39Z" fill="white"/>
</mask>
<g mask="url(#mask11_12_1170)">
<path d="M401.378 406.39C401.378 406.39 410.869 406.1 412.753 407C414.636 407.9 423.153 421.53 421.869 422.53C420.585 423.53 417.075 423.22 417.182 422.12C417.289 421.02 409.339 413.71 409.339 413.71L403.155 412.44L401.378 406.39Z" fill="#CDFAC9"/>
<path opacity="0.5" d="M401.378 406.39C401.378 406.39 410.869 406.1 412.753 407C414.636 407.9 423.153 421.53 421.869 422.53C420.585 423.53 417.075 423.22 417.182 422.12C417.289 421.02 409.339 413.71 409.339 413.71L403.155 412.44L401.378 406.39Z" fill="white"/>
</g>
<path d="M401.378 406.39C401.378 406.39 410.869 406.1 412.753 407C414.636 407.9 423.153 421.53 421.869 422.53C420.585 423.53 417.075 423.22 417.182 422.12C417.289 421.02 409.339 413.71 409.339 413.71L403.155 412.44L401.378 406.39Z" stroke="#263238" stroke-linecap="round" stroke-linejoin="round"/>
<path d="M293.469 355.57C300.338 365.46 314.131 390.52 318.154 393.34C324.435 397.74 366.421 408.42 370.466 411.34C374.511 414.26 374.232 417.19 378.063 418.26C381.894 419.33 396.253 422.4 401.731 422.88C407.21 423.36 404.76 420.19 404.76 420.19L395.418 414.19L403.561 412.31C403.561 412.31 411.725 421.49 413.255 421.99C414.785 422.49 417.482 421.99 417.311 420.86C417.011 419.05 408.301 404.24 405.209 403.61C402.117 402.98 383.349 405.41 383.349 405.41C383.349 405.41 343.984 380.6 343.277 379.72C343.277 379.72 340.923 373.48 338.997 370.91C337.071 368.34 335.852 369.08 335.852 369.08C335.852 369.08 336.643 365.77 335.466 364.67L329.185 358.8L328.961 359.08C327.891 357.08 326.821 354.8 325.644 352.2C322.359 344.97 310.728 324.68 308.77 321.75C307.304 319.56 295.02 317.99 288.793 317.33" fill="#CDFAC9"/>
<mask id="mask12_12_1170" style="mask-type:luminance" maskUnits="userSpaceOnUse" x="288" y="317" width="130" height="106">
<path d="M293.469 355.57C300.338 365.46 314.131 390.52 318.154 393.34C324.435 397.74 366.421 408.42 370.466 411.34C374.511 414.26 374.232 417.19 378.063 418.26C381.894 419.33 396.253 422.4 401.731 422.88C407.21 423.36 404.76 420.19 404.76 420.19L395.418 414.19L403.561 412.31C403.561 412.31 411.725 421.49 413.255 421.99C414.785 422.49 417.482 421.99 417.311 420.86C417.011 419.05 408.301 404.24 405.209 403.61C402.117 402.98 383.349 405.41 383.349 405.41C383.349 405.41 343.984 380.6 343.277 379.72C343.277 379.72 340.923 373.48 338.997 370.91C337.071 368.34 335.852 369.08 335.852 369.08C335.852 369.08 336.643 365.77 335.466 364.67L329.185 358.8L328.961 359.08C327.891 357.08 326.821 354.8 325.644 352.2C322.359 344.97 310.728 324.68 308.77 321.75C307.304 319.56 295.02 317.99 288.793 317.33" fill="white"/>
</mask>
<g mask="url(#mask12_12_1170)">
<path opacity="0.16" d="M320.818 356.2C325.954 360.46 324.242 360.46 323.097 364.2C321.952 367.94 323.953 362.87 328.8 363.14C333.647 363.41 332.224 369.26 331.646 370.33C331.069 371.4 337.638 372.73 336.494 375.12C335.349 377.51 328.8 380.98 325.098 384.45C321.396 387.92 334.782 378.85 339.34 378.59C340.731 378.5 341.876 378.67 342.839 378.65C341.828 375.974 340.531 373.401 338.965 370.97C336.996 368.4 335.819 369.14 335.819 369.14C335.819 369.14 336.611 365.83 335.434 364.73L329.153 358.86L328.929 359.14C327.859 357.14 326.789 354.86 325.612 352.26C322.327 345.03 310.696 324.74 308.738 321.81C307.272 319.62 294.988 318.05 288.761 317.39L289.328 322.02L289.467 322.12C289.467 322.12 297.16 323.45 299.728 323.72C302.296 323.99 305.431 326.11 305.143 327.72C304.854 329.33 297.449 336.51 299.728 337.05C302.007 337.59 304.575 331.72 307.143 332.52C309.711 333.32 315.65 351.94 320.818 356.2Z" fill="black"/>
</g>
<path d="M293.469 355.57C300.338 365.46 314.131 390.52 318.154 393.34C324.435 397.74 366.421 408.42 370.466 411.34C374.511 414.26 374.232 417.19 378.063 418.26C381.894 419.33 396.253 422.4 401.731 422.88C407.21 423.36 404.76 420.19 404.76 420.19L395.418 414.19L403.561 412.31C403.561 412.31 411.725 421.49 413.255 421.99C414.785 422.49 417.482 421.99 417.311 420.86C417.011 419.05 408.301 404.24 405.209 403.61C402.117 402.98 383.349 405.41 383.349 405.41C383.349 405.41 343.984 380.6 343.277 379.72C343.277 379.72 340.923 373.48 338.997 370.91C337.071 368.34 335.852 369.08 335.852 369.08C335.852 369.08 336.643 365.77 335.466 364.67L329.185 358.8L328.961 359.08C327.891 357.08 326.821 354.8 325.644 352.2C322.359 344.97 310.728 324.68 308.77 321.75C307.304 319.56 295.02 317.99 288.793 317.33" stroke="#263238" stroke-linecap="round" stroke-linejoin="round"/>
<path d="M293.576 342C293.287 342.9 293.041 343.8 292.848 344.72" stroke="#263238" stroke-linecap="round" stroke-linejoin="round"/>
<path d="M303.976 325.45C300.614 329.032 297.778 333.017 295.545 337.3" stroke="#263238" stroke-linecap="round" stroke-linejoin="round"/>
<path d="M319.695 382.23C322.584 378.23 327.185 373.16 332.256 371.71" stroke="#263238" stroke-linecap="round" stroke-linejoin="round"/>
<path d="M316.495 387.15C316.495 387.15 317.009 386.21 317.929 384.79" stroke="#263238" stroke-linecap="round" stroke-linejoin="round"/>
<path d="M316.495 380.83C316.495 380.83 321.749 368.55 327.003 365.39C332.256 362.23 329.25 368.55 329.25 368.55" stroke="#263238" stroke-linecap="round" stroke-linejoin="round"/>
<path d="M370.466 411.35C374.521 414.28 374.233 417.2 378.063 418.27C381.894 419.34 396.253 422.41 401.732 422.89C407.21 423.37 404.76 420.2 404.76 420.2L395.419 414.2L403.561 412.32C403.561 412.32 411.725 421.5 413.255 422C414.786 422.5 417.696 422.68 417.311 420.87C416.562 417.37 408.301 404.25 405.209 403.62C402.117 402.99 383.349 405.42 383.349 405.42C383.349 405.42 347.493 382.42 343.566 379.93C328.34 381.3 321.096 388.75 318.047 393.22L318.154 393.3C324.435 397.74 366.422 408.42 370.466 411.35Z" fill="white"/>
<mask id="mask13_12_1170" style="mask-type:luminance" maskUnits="userSpaceOnUse" x="318" y="379" width="100" height="44">
<path d="M370.466 411.35C374.521 414.28 374.233 417.2 378.063 418.27C381.894 419.34 396.253 422.41 401.732 422.89C407.21 423.37 404.76 420.2 404.76 420.2L395.419 414.2L403.561 412.32C403.561 412.32 411.725 421.5 413.255 422C414.786 422.5 417.696 422.68 417.311 420.87C416.562 417.37 408.301 404.25 405.209 403.62C402.117 402.99 383.349 405.42 383.349 405.42C383.349 405.42 347.493 382.42 343.566 379.93C328.34 381.3 321.096 388.75 318.047 393.22L318.154 393.3C324.435 397.74 366.422 408.42 370.466 411.35Z" fill="white"/>
</mask>
<g mask="url(#mask13_12_1170)">
<path d="M417.3 420.91C415.353 416.46 408.291 404.29 405.198 403.66C402.106 403.03 383.338 405.46 383.338 405.46C383.338 405.46 347.483 382.46 343.556 379.97C339.559 380.295 335.638 381.181 331.925 382.6C337.585 385.6 375.313 405.6 380.075 406.49C385.125 407.49 401.978 404.9 404.942 406.76C406.825 407.94 412.432 416.25 416.219 422.15C417.3 422 417.696 421.81 417.3 420.91Z" fill="#CDFAC9"/>
<path opacity="0.5" d="M417.3 420.91C414.261 414.54 408.291 404.29 405.198 403.66C402.106 403.03 383.338 405.46 383.338 405.46C383.338 405.46 347.483 382.46 343.556 379.97C339.559 380.295 335.638 381.181 331.925 382.6C337.585 385.6 375.313 405.6 380.075 406.49C385.125 407.49 401.978 404.9 404.942 406.76C406.825 407.94 412.432 416.25 416.219 422.15C417.3 422 417.728 421.8 417.3 420.91Z" fill="white"/>
</g>
<path d="M370.466 411.35C374.521 414.28 374.233 417.2 378.063 418.27C381.894 419.34 396.253 422.41 401.732 422.89C407.21 423.37 404.76 420.2 404.76 420.2L395.419 414.2L403.561 412.32C403.561 412.32 411.725 421.5 413.255 422C414.786 422.5 417.696 422.68 417.311 420.87C416.562 417.37 408.301 404.25 405.209 403.62C402.117 402.99 383.349 405.42 383.349 405.42C383.349 405.42 347.493 382.42 343.566 379.93C328.34 381.3 321.096 388.75 318.047 393.22L318.154 393.3C324.435 397.74 366.422 408.42 370.466 411.35Z" stroke="#263238" stroke-linecap="round" stroke-linejoin="round"/>
<path d="M275.899 236.73L243.671 249.3C243.28 254.594 241.878 259.779 239.53 264.61C235.721 272.14 237.947 286.39 241.606 294.08C245.265 301.77 261.39 298.76 267.286 297.8C271.285 297.089 275.201 296.021 278.981 294.61C280.702 295.23 282.564 295.43 284.391 295.192C286.218 294.955 287.95 294.286 289.424 293.25C289.424 293.25 272.176 248 275.899 236.73Z" fill="white"/>
<mask id="mask14_12_1170" style="mask-type:luminance" maskUnits="userSpaceOnUse" x="237" y="236" width="53" height="64">
<path d="M275.899 236.73L243.671 249.3C243.28 254.594 241.878 259.779 239.53 264.61C235.721 272.14 237.947 286.39 241.606 294.08C245.265 301.77 261.39 298.76 267.286 297.8C271.285 297.089 275.201 296.021 278.981 294.61C280.702 295.23 282.564 295.43 284.391 295.192C286.218 294.955 287.95 294.286 289.424 293.25C289.424 293.25 272.176 248 275.899 236.73Z" fill="white"/>
</mask>
<g mask="url(#mask14_12_1170)">
<path d="M275.899 236.73L243.671 249.3C243.28 254.594 241.878 259.779 239.53 264.61C235.721 272.14 237.947 286.39 241.606 294.08C242.219 295.317 243.204 296.359 244.441 297.08V296.5C244.441 296.5 238.46 282.65 239.594 274.66C240.729 266.67 245.586 262.66 246.153 257.61C246.721 252.56 246.432 250.16 257.271 246.43C268.11 242.7 272.657 239.24 273.792 242.96C274.926 246.68 279.495 271.2 282.63 277.06C285.765 282.92 285.476 289.06 280.64 291.71C275.751 294.452 270.514 296.609 265.05 298.13L267.329 297.76C271.327 297.049 275.244 295.981 279.024 294.57C280.745 295.19 282.607 295.39 284.434 295.152C286.261 294.915 287.993 294.246 289.467 293.21C289.467 293.21 272.176 248 275.899 236.73Z" fill="#CDFAC9"/>
<path opacity="0.5" d="M275.899 236.73L243.671 249.3C243.28 254.594 241.878 259.779 239.53 264.61C235.721 272.14 237.947 286.39 241.606 294.08C242.219 295.317 243.204 296.359 244.441 297.08V296.5C244.441 296.5 238.46 282.65 239.594 274.66C240.729 266.67 245.586 262.66 246.153 257.61C246.721 252.56 246.432 250.16 257.271 246.43C268.11 242.7 272.657 239.24 273.792 242.96C274.926 246.68 279.495 271.2 282.63 277.06C285.765 282.92 285.476 289.06 280.64 291.71C275.751 294.452 270.514 296.609 265.05 298.13L267.329 297.76C271.327 297.049 275.244 295.981 279.024 294.57C280.745 295.19 282.607 295.39 284.434 295.152C286.261 294.915 287.993 294.246 289.467 293.21C289.467 293.21 272.176 248 275.899 236.73Z" fill="white"/>
</g>
<path d="M275.899 236.73L243.671 249.3C243.28 254.594 241.878 259.779 239.53 264.61C235.721 272.14 237.947 286.39 241.606 294.08C245.265 301.77 261.39 298.76 267.286 297.8C271.285 297.089 275.201 296.021 278.981 294.61C280.702 295.23 282.564 295.43 284.391 295.192C286.218 294.955 287.95 294.286 289.424 293.25C289.424 293.25 272.176 248 275.899 236.73Z" stroke="#263238" stroke-linecap="round" stroke-linejoin="round"/>
<path d="M259.614 256.44C259.702 258.211 259.466 259.983 258.919 261.68C258.063 263.68 249.984 271.54 250.23 272.39C250.476 273.24 251.204 275.97 252.638 276.23" stroke="#263238" stroke-linecap="round" stroke-linejoin="round"/>
<path d="M268.57 263.47C269.693 261.37 273.385 263.42 273.331 268.15" stroke="#263238" stroke-linecap="round" stroke-linejoin="round"/>
<path d="M250.273 257.29C250.273 257.29 253.419 256 256.233 260.76" stroke="#263238" stroke-linecap="round" stroke-linejoin="round"/>
<path d="M264.097 270.4C267.733 270.571 271.189 271.926 273.867 274.23" stroke="#263238" stroke-width="0.5" stroke-linecap="round" stroke-linejoin="round"/>
<path d="M246.474 264.15C248.354 264.384 250.19 264.859 251.931 265.56" stroke="#263238" stroke-width="0.5" stroke-linecap="round" stroke-linejoin="round"/>
<path d="M259.261 252C258.43 251.589 257.509 251.365 256.569 251.344C255.63 251.323 254.698 251.507 253.847 251.88C250.969 253.17 249.203 254.59 249.396 252.94C249.588 251.29 252.969 249.47 253.986 249.23C255.002 248.99 259.55 248.33 259.261 252Z" fill="#263238"/>
<path d="M267.329 248.27C270.328 250.538 272.711 253.437 274.284 256.73C276.424 261.73 278.114 256.27 276.424 253C274.733 249.73 269.843 246.25 267.329 248.27Z" fill="#263238"/>
<path d="M289.895 301.8C289.895 304.13 288.483 306.02 286.749 306.02C285.016 306.02 283.614 304.13 283.614 301.8C283.614 299.47 285.016 293.54 286.749 293.54C288.483 293.54 289.895 299.47 289.895 301.8Z" fill="#CDFAC9" stroke="#263238" stroke-linecap="round" stroke-linejoin="round"/>
<path d="M268.848 262.56C268.725 262.866 268.629 263.18 268.559 263.5C268.249 264.98 267.939 268.07 268.559 268.2C269.18 268.33 270.699 265.44 270.967 263.96C271.027 263.67 271.063 263.376 271.074 263.08C270.343 262.866 269.6 262.692 268.848 262.56Z" fill="#263238"/>
<path d="M250.594 257C250.499 257.261 250.424 257.529 250.369 257.8C250.048 259.28 250.059 262.53 250.733 262.65C251.407 262.77 252.509 259.73 252.82 258.25C252.897 257.891 252.94 257.526 252.948 257.16C252.182 256.963 251.382 256.909 250.594 257Z" fill="#263238"/>
<path d="M268.57 263.52L269.64 261.66C271.336 261.969 272.873 262.8 274.006 264.02" stroke="#263238" stroke-width="0.75" stroke-linecap="round" stroke-linejoin="round"/>
<path d="M250.594 257L251.664 255.83C251.664 255.83 252.124 255.62 254.649 256.69" stroke="#263238" stroke-width="0.75" stroke-linecap="round" stroke-linejoin="round"/>
<path d="M246.539 284.12C246.539 284.12 248.336 281.03 250.744 281.03C253.151 281.03 254.949 286.08 254.949 286.08" stroke="#263238" stroke-linecap="round" stroke-linejoin="round"/>
<path d="M169.06 417.38C166.733 417.272 164.448 416.764 162.319 415.88C162.022 415.778 161.751 415.62 161.521 415.416C161.292 415.212 161.109 414.967 160.984 414.695C160.86 414.423 160.795 414.13 160.795 413.835C160.796 413.539 160.86 413.246 160.985 412.974C161.11 412.703 161.293 412.457 161.523 412.254C161.752 412.05 162.024 411.893 162.321 411.79C162.618 411.688 162.934 411.643 163.25 411.658C163.566 411.674 163.876 411.749 164.159 411.88C166.299 412.73 169.071 413.26 169.809 412.96C171.168 411.54 173.254 402.96 170.558 398.82C169.948 397.9 169.381 397.73 169.007 397.69C167.476 397.49 165.208 398.96 164.406 399.69C164.182 399.887 163.919 400.041 163.632 400.143C163.345 400.245 163.039 400.294 162.732 400.285C162.425 400.277 162.123 400.212 161.843 400.094C161.563 399.977 161.31 399.809 161.099 399.6C160.888 399.391 160.724 399.146 160.615 398.878C160.505 398.609 160.454 398.323 160.463 398.037C160.472 397.75 160.541 397.467 160.667 397.205C160.792 396.943 160.972 396.707 161.196 396.51C161.613 396.13 165.476 392.88 169.595 393.4C170.617 393.54 171.59 393.897 172.44 394.445C173.29 394.993 173.994 395.717 174.496 396.56C178.465 402.61 175.748 414.12 172.698 416.4C171.638 417.101 170.356 417.446 169.06 417.38Z" fill="white"/>
<mask id="mask15_12_1170" style="mask-type:luminance" maskUnits="userSpaceOnUse" x="160" y="393" width="17" height="25">
<path d="M169.06 417.38C166.733 417.272 164.448 416.764 162.319 415.88C162.022 415.778 161.751 415.62 161.521 415.416C161.292 415.212 161.109 414.967 160.984 414.695C160.86 414.423 160.795 414.13 160.795 413.835C160.796 413.539 160.86 413.246 160.985 412.974C161.11 412.703 161.293 412.457 161.523 412.254C161.752 412.05 162.024 411.893 162.321 411.79C162.618 411.688 162.934 411.643 163.25 411.658C163.566 411.674 163.876 411.749 164.159 411.88C166.299 412.73 169.071 413.26 169.809 412.96C171.168 411.54 173.254 402.96 170.558 398.82C169.948 397.9 169.381 397.73 169.007 397.69C167.476 397.49 165.208 398.96 164.406 399.69C164.182 399.887 163.919 400.041 163.632 400.143C163.345 400.245 163.039 400.294 162.732 400.285C162.425 400.277 162.123 400.212 161.843 400.094C161.563 399.977 161.31 399.809 161.099 399.6C160.888 399.391 160.724 399.146 160.615 398.878C160.505 398.609 160.454 398.323 160.463 398.037C160.472 397.75 160.541 397.467 160.667 397.205C160.792 396.943 160.972 396.707 161.196 396.51C161.613 396.13 165.476 392.88 169.595 393.4C170.617 393.54 171.59 393.897 172.44 394.445C173.29 394.993 173.994 395.717 174.496 396.56C178.465 402.61 175.748 414.12 172.698 416.4C171.638 417.101 170.356 417.446 169.06 417.38Z" fill="white"/>
</mask>
<g mask="url(#mask15_12_1170)">
<path d="M172.195 398.16C171.915 397.539 171.475 396.992 170.916 396.566C170.356 396.141 169.693 395.85 168.985 395.72C166.31 395.32 163.796 397.83 163.517 398.11C163.262 398.398 163.104 398.751 163.064 399.123C163.024 399.495 163.103 399.87 163.293 400.2C163.714 400.121 164.103 399.934 164.416 399.66C165.219 398.96 167.487 397.49 169.017 397.66C169.392 397.66 169.959 397.87 170.569 398.79C173.265 402.89 171.179 411.51 169.82 412.93C169.081 413.23 166.321 412.7 164.17 411.85C163.905 411.746 163.623 411.688 163.336 411.68C163.355 411.954 163.448 412.219 163.604 412.452C163.761 412.684 163.978 412.876 164.234 413.01C165.587 413.685 167.08 414.081 168.611 414.17C169.484 414.209 170.34 413.93 170.997 413.39C173.008 411.66 174.785 402.81 172.195 398.16Z" fill="#CDFAC9"/>
<path opacity="0.5" d="M172.195 398.16C171.915 397.539 171.475 396.992 170.916 396.566C170.356 396.141 169.693 395.85 168.985 395.72C166.31 395.32 163.796 397.83 163.517 398.11C163.262 398.398 163.104 398.751 163.064 399.123C163.024 399.495 163.103 399.87 163.293 400.2C163.714 400.121 164.103 399.934 164.416 399.66C165.219 398.96 167.487 397.49 169.017 397.66C169.392 397.66 169.959 397.87 170.569 398.79C173.265 402.89 171.179 411.51 169.82 412.93C169.081 413.23 166.321 412.7 164.17 411.85C163.905 411.746 163.623 411.688 163.336 411.68C163.355 411.954 163.448 412.219 163.604 412.452C163.761 412.684 163.978 412.876 164.234 413.01C165.587 413.685 167.08 414.081 168.611 414.17C169.484 414.209 170.34 413.93 170.997 413.39C173.008 411.66 174.785 402.81 172.195 398.16Z" fill="white"/>
</g>
<path d="M169.06 417.38C166.733 417.272 164.448 416.764 162.319 415.88C162.022 415.778 161.751 415.62 161.521 415.416C161.292 415.212 161.109 414.967 160.984 414.695C160.86 414.423 160.795 414.13 160.795 413.835C160.796 413.539 160.86 413.246 160.985 412.974C161.11 412.703 161.293 412.457 161.523 412.254C161.752 412.05 162.024 411.893 162.321 411.79C162.618 411.688 162.934 411.643 163.25 411.658C163.566 411.674 163.876 411.749 164.159 411.88C166.299 412.73 169.071 413.26 169.809 412.96C171.168 411.54 173.254 402.96 170.558 398.82C169.948 397.9 169.381 397.73 169.007 397.69C167.476 397.49 165.208 398.96 164.406 399.69C164.182 399.887 163.919 400.041 163.632 400.143C163.345 400.245 163.039 400.294 162.732 400.285C162.425 400.277 162.123 400.212 161.843 400.094C161.563 399.977 161.31 399.809 161.099 399.6C160.888 399.391 160.724 399.146 160.615 398.878C160.505 398.609 160.454 398.323 160.463 398.037C160.472 397.75 160.541 397.467 160.667 397.205C160.792 396.943 160.972 396.707 161.196 396.51C161.613 396.13 165.476 392.88 169.595 393.4C170.617 393.54 171.59 393.897 172.44 394.445C173.29 394.993 173.994 395.717 174.496 396.56C178.465 402.61 175.748 414.12 172.698 416.4C171.638 417.101 170.356 417.446 169.06 417.38Z" stroke="#263238" stroke-linecap="round" stroke-linejoin="round"/>
<path d="M164.973 391.58H139.239V423.5H164.973V391.58Z" fill="white"/>
<mask id="mask16_12_1170" style="mask-type:luminance" maskUnits="userSpaceOnUse" x="139" y="391" width="26" height="33">
<path d="M164.973 391.58H139.239V423.5H164.973V391.58Z" fill="white"/>
</mask>
<g mask="url(#mask16_12_1170)">
<path d="M149.779 391.58H139.239V423.5H149.779V391.58Z" fill="#CDFAC9"/>
<path opacity="0.5" d="M149.779 391.58H139.239V423.5H149.779V391.58Z" fill="white"/>
</g>
<path d="M164.973 391.58H139.239V423.5H164.973V391.58Z" stroke="#263238" stroke-linecap="round" stroke-linejoin="round"/>
<path d="M306.384 423.06H196.452L192.868 366.58C192.768 366.032 192.798 365.471 192.953 364.935C193.109 364.399 193.387 363.901 193.768 363.475C194.15 363.049 194.625 362.706 195.163 362.468C195.7 362.231 196.286 362.105 196.88 362.1H305.913C306.511 362.1 307.102 362.221 307.644 362.456C308.187 362.691 308.668 363.033 309.054 363.46C309.44 363.887 309.722 364.387 309.88 364.926C310.038 365.465 310.068 366.029 309.968 366.58L306.384 423.06Z" fill="#263238" stroke="#263238" stroke-linecap="round" stroke-linejoin="round"/>
<path d="M201.866 363.45H305.121C305.705 363.445 306.282 363.558 306.813 363.783C307.345 364.008 307.817 364.339 308.197 364.752C308.578 365.166 308.856 365.652 309.014 366.177C309.173 366.701 309.206 367.252 309.112 367.79" stroke="white" stroke-linecap="round" stroke-linejoin="round"/>
<path d="M193.67 366.9C193.756 365.955 194.22 365.075 194.97 364.435C195.72 363.796 196.7 363.444 197.715 363.45" stroke="white" stroke-linecap="round" stroke-linejoin="round"/>
<path d="M306.844 417.56H195.992V423.06H306.844V417.56Z" fill="white" stroke="#263238" stroke-linecap="round" stroke-linejoin="round"/>
<path d="M251.022 397.2C255.36 397.2 258.876 395.23 258.876 392.8C258.876 390.37 255.36 388.4 251.022 388.4C246.684 388.4 243.168 390.37 243.168 392.8C243.168 395.23 246.684 397.2 251.022 397.2Z" fill="white" stroke="#263238" stroke-linecap="round" stroke-linejoin="round"/>
<path d="M474.042 422.41H61.1719V431.78H474.042V422.41Z" fill="#263238"/>
<path d="M366.989 75H168.365C161.669 75 156.241 80.0726 156.241 86.33V192.84C156.241 199.097 161.669 204.17 168.365 204.17H366.989C373.684 204.17 379.112 199.097 379.112 192.84V86.33C379.112 80.0726 373.684 75 366.989 75Z" fill="#CDFAC9"/>
<path d="M272.918 149.23C290.935 146.524 303.193 130.68 300.298 113.842C297.402 97.0031 280.449 85.5466 262.432 88.2527C244.415 90.9588 232.156 106.803 235.052 123.641C237.947 140.48 254.901 151.936 272.918 149.23Z" fill="#263238"/>
<path d="M267.425 124.45L256.415 137.66C256.04 138.21 255.526 138.664 254.917 138.982C254.308 139.299 253.624 139.471 252.927 139.48C251.97 139.492 251.047 139.151 250.359 138.53C250.009 138.23 249.732 137.863 249.547 137.454C249.363 137.045 249.274 136.604 249.289 136.16C249.323 135.166 249.698 134.209 250.359 133.43L262.91 118.92L251.14 104.4C250.593 103.718 250.293 102.892 250.284 102.04C250.281 101.532 250.391 101.029 250.606 100.562C250.822 100.096 251.138 99.6764 251.536 99.3299C251.909 98.9656 252.357 98.6759 252.854 98.4782C253.351 98.2805 253.885 98.1791 254.425 98.1799C255.116 98.1904 255.793 98.3624 256.395 98.6803C256.997 98.9982 257.504 99.4519 257.87 99.9999L268.506 113.09L279.206 100.22C279.588 99.6195 280.123 99.1165 280.763 98.7554C281.404 98.3943 282.129 98.1864 282.876 98.1499C283.339 98.1488 283.798 98.2371 284.223 98.4091C284.649 98.5812 285.031 98.8334 285.348 99.1499C285.685 99.4466 285.954 99.8045 286.138 100.202C286.322 100.599 286.417 101.027 286.418 101.46C286.406 102.234 286.12 102.984 285.604 103.59L273.01 118.65L285.176 133.65C285.752 134.32 286.071 135.151 286.086 136.01C286.089 136.507 285.977 136.998 285.757 137.451C285.538 137.903 285.215 138.305 284.813 138.63C284.027 139.335 282.981 139.73 281.892 139.73C281.197 139.722 280.515 139.551 279.91 139.233C279.304 138.915 278.793 138.46 278.425 137.91L267.425 124.45Z" fill="white"/>
<path d="M330.63 181.8H204.68C202.126 181.8 199.677 180.852 197.871 179.164C196.065 177.476 195.05 175.187 195.05 172.8C195.05 170.413 196.065 168.124 197.871 166.436C199.677 164.748 202.126 163.8 204.68 163.8H330.63C333.184 163.8 335.633 164.748 337.439 166.436C339.245 168.124 340.26 170.413 340.26 172.8C340.26 175.187 339.245 177.476 337.439 179.164C335.633 180.852 333.184 181.8 330.63 181.8Z" fill="white"/>
<path d="M221.939 175.7C221.855 175.7 221.772 175.684 221.695 175.653C221.618 175.622 221.548 175.577 221.49 175.52C221.427 175.461 221.377 175.391 221.344 175.314C221.311 175.236 221.295 175.153 221.297 175.07C221.297 174.929 221.338 174.791 221.415 174.67L222.378 173.27H220.409C220.318 173.274 220.227 173.261 220.143 173.23C220.058 173.199 219.981 173.151 219.917 173.09C219.807 172.97 219.747 172.818 219.747 172.66C219.747 172.502 219.807 172.35 219.917 172.23C219.981 172.169 220.058 172.122 220.143 172.091C220.227 172.059 220.318 172.046 220.409 172.05L222.346 172.1L221.49 170.8C221.404 170.667 221.356 170.515 221.351 170.36C221.348 170.277 221.364 170.194 221.397 170.116C221.431 170.039 221.48 169.969 221.544 169.91C221.604 169.853 221.675 169.807 221.754 169.777C221.833 169.746 221.918 169.73 222.004 169.73C222.123 169.728 222.241 169.76 222.342 169.82C222.443 169.881 222.522 169.968 222.571 170.07L223.512 171.64L224.411 170.14C224.468 170.023 224.558 169.923 224.671 169.851C224.784 169.779 224.916 169.737 225.053 169.73C225.137 169.73 225.22 169.746 225.298 169.777C225.375 169.808 225.445 169.853 225.503 169.91C225.565 169.965 225.615 170.032 225.648 170.106C225.681 170.18 225.697 170.26 225.695 170.34C225.694 170.482 225.649 170.621 225.567 170.74L224.625 172.15L226.583 172.1C226.674 172.095 226.766 172.109 226.85 172.14C226.935 172.171 227.012 172.219 227.075 172.28C227.185 172.4 227.246 172.552 227.246 172.71C227.246 172.868 227.185 173.02 227.075 173.14C227.012 173.202 226.935 173.249 226.85 173.281C226.766 173.312 226.674 173.325 226.583 173.32H224.604L225.481 174.6C225.58 174.755 225.635 174.93 225.642 175.11C225.645 175.191 225.63 175.272 225.599 175.347C225.568 175.423 225.52 175.492 225.46 175.55C225.403 175.606 225.336 175.651 225.26 175.682C225.185 175.713 225.103 175.729 225.021 175.73C224.889 175.727 224.76 175.689 224.65 175.62C224.54 175.551 224.453 175.454 224.4 175.34L223.512 173.87L222.624 175.34C222.56 175.456 222.461 175.552 222.339 175.616C222.218 175.679 222.079 175.709 221.939 175.7Z" fill="black"/>
<path d="M231.762 175.7C231.678 175.7 231.595 175.684 231.518 175.653C231.44 175.622 231.371 175.577 231.313 175.52C231.249 175.461 231.2 175.391 231.167 175.314C231.133 175.236 231.118 175.153 231.12 175.07C231.12 174.929 231.161 174.791 231.238 174.67L232.201 173.27H230.232C230.141 173.274 230.05 173.261 229.965 173.23C229.88 173.199 229.803 173.151 229.74 173.09C229.63 172.97 229.569 172.818 229.569 172.66C229.569 172.502 229.63 172.35 229.74 172.23C229.803 172.169 229.88 172.122 229.965 172.09C230.05 172.059 230.141 172.046 230.232 172.05L232.169 172.1L231.259 170.75C231.173 170.617 231.125 170.465 231.12 170.31C231.118 170.227 231.133 170.144 231.167 170.066C231.2 169.989 231.249 169.919 231.313 169.86C231.373 169.803 231.444 169.757 231.523 169.727C231.602 169.696 231.687 169.68 231.773 169.68C231.893 169.678 232.01 169.71 232.111 169.77C232.212 169.831 232.292 169.918 232.34 170.02L233.281 171.59L234.18 170.09C234.237 169.973 234.327 169.873 234.44 169.801C234.553 169.729 234.685 169.687 234.822 169.68C234.906 169.68 234.99 169.696 235.067 169.727C235.144 169.758 235.214 169.803 235.272 169.86C235.334 169.915 235.384 169.982 235.417 170.056C235.45 170.13 235.466 170.21 235.464 170.29C235.463 170.432 235.418 170.571 235.336 170.69L234.394 172.1L236.352 172.05C236.443 172.045 236.535 172.058 236.62 172.09C236.705 172.121 236.781 172.169 236.845 172.23C236.955 172.35 237.015 172.502 237.015 172.66C237.015 172.818 236.955 172.97 236.845 173.09C236.781 173.151 236.705 173.199 236.62 173.23C236.535 173.262 236.443 173.275 236.352 173.27H234.373L235.25 174.55C235.349 174.705 235.404 174.88 235.411 175.06C235.414 175.141 235.399 175.222 235.368 175.297C235.337 175.373 235.289 175.442 235.229 175.5C235.173 175.556 235.105 175.601 235.029 175.632C234.954 175.663 234.873 175.679 234.79 175.68C234.657 175.678 234.528 175.64 234.418 175.571C234.308 175.502 234.221 175.404 234.17 175.29L233.281 173.82L232.393 175.29C232.341 175.407 232.253 175.508 232.142 175.581C232.03 175.653 231.898 175.695 231.762 175.7Z" fill="black"/>
<path d="M241.585 175.7C241.501 175.7 241.417 175.684 241.34 175.653C241.263 175.622 241.193 175.577 241.135 175.52C241.072 175.461 241.022 175.391 240.989 175.314C240.956 175.236 240.94 175.153 240.943 175.07C240.942 174.929 240.983 174.791 241.06 174.67L242.023 173.27H240.055C239.963 173.274 239.873 173.261 239.788 173.23C239.703 173.199 239.626 173.151 239.562 173.09C239.452 172.97 239.392 172.818 239.392 172.66C239.392 172.502 239.452 172.35 239.562 172.23C239.626 172.169 239.703 172.122 239.788 172.09C239.873 172.059 239.963 172.046 240.055 172.05L241.991 172.1L241.082 170.75C240.996 170.617 240.948 170.465 240.943 170.31C240.94 170.227 240.956 170.144 240.989 170.066C241.022 169.989 241.072 169.919 241.135 169.86C241.195 169.803 241.267 169.757 241.346 169.727C241.425 169.696 241.51 169.68 241.595 169.68C241.715 169.678 241.833 169.71 241.934 169.77C242.035 169.831 242.114 169.918 242.162 170.02L243.104 171.59L244.003 170.09C244.059 169.973 244.149 169.873 244.262 169.801C244.376 169.729 244.508 169.687 244.645 169.68C244.729 169.68 244.812 169.696 244.889 169.727C244.967 169.758 245.036 169.803 245.094 169.86C245.157 169.915 245.206 169.982 245.24 170.056C245.273 170.13 245.289 170.21 245.287 170.29C245.285 170.432 245.241 170.571 245.158 170.69L244.217 172.1L246.175 172.05C246.266 172.045 246.357 172.058 246.442 172.09C246.527 172.121 246.604 172.169 246.667 172.23C246.777 172.35 246.838 172.502 246.838 172.66C246.838 172.818 246.777 172.97 246.667 173.09C246.604 173.151 246.527 173.199 246.442 173.23C246.357 173.262 246.266 173.275 246.175 173.27H244.195L245.073 174.55C245.172 174.705 245.227 174.88 245.233 175.06C245.236 175.141 245.222 175.222 245.191 175.297C245.159 175.373 245.112 175.442 245.051 175.5C244.995 175.556 244.927 175.601 244.852 175.632C244.776 175.663 244.695 175.679 244.613 175.68C244.48 175.678 244.351 175.64 244.24 175.571C244.13 175.502 244.044 175.404 243.992 175.29L243.104 173.82L242.216 175.29C242.163 175.407 242.076 175.508 241.964 175.581C241.852 175.653 241.721 175.695 241.585 175.7Z" fill="black"/>
<path d="M251.45 175.7C251.366 175.7 251.283 175.684 251.206 175.653C251.128 175.622 251.059 175.577 251.001 175.52C250.937 175.461 250.888 175.391 250.855 175.314C250.821 175.236 250.806 175.153 250.808 175.07C250.808 174.929 250.849 174.791 250.926 174.67L251.889 173.27H249.92C249.829 173.274 249.738 173.261 249.653 173.23C249.568 173.199 249.491 173.151 249.428 173.09C249.318 172.97 249.257 172.818 249.257 172.66C249.257 172.502 249.318 172.35 249.428 172.23C249.491 172.169 249.568 172.122 249.653 172.09C249.738 172.059 249.829 172.046 249.92 172.05L251.857 172.1L250.947 170.75C250.861 170.617 250.813 170.465 250.808 170.31C250.806 170.227 250.821 170.144 250.855 170.066C250.888 169.989 250.937 169.919 251.001 169.86C251.061 169.803 251.132 169.757 251.211 169.727C251.29 169.696 251.375 169.68 251.461 169.68C251.581 169.678 251.698 169.71 251.799 169.77C251.9 169.831 251.98 169.918 252.028 170.02L252.969 171.59L253.868 170.09C253.925 169.973 254.015 169.873 254.128 169.801C254.241 169.729 254.373 169.687 254.51 169.68C254.594 169.68 254.677 169.696 254.755 169.727C254.832 169.758 254.902 169.803 254.96 169.86C255.022 169.915 255.072 169.982 255.105 170.056C255.138 170.13 255.154 170.21 255.152 170.29C255.151 170.432 255.106 170.571 255.024 170.69L254.082 172.1L256.04 172.05C256.131 172.045 256.223 172.058 256.308 172.09C256.393 172.121 256.469 172.169 256.533 172.23C256.643 172.35 256.703 172.502 256.703 172.66C256.703 172.818 256.643 172.97 256.533 173.09C256.469 173.151 256.393 173.199 256.308 173.23C256.223 173.262 256.131 173.275 256.04 173.27H254.061L254.938 174.55C255.037 174.705 255.093 174.88 255.099 175.06C255.102 175.141 255.087 175.222 255.056 175.297C255.025 175.373 254.977 175.442 254.917 175.5C254.861 175.556 254.793 175.601 254.717 175.632C254.642 175.663 254.561 175.679 254.478 175.68C254.346 175.677 254.217 175.639 254.107 175.57C253.997 175.501 253.911 175.403 253.858 175.29L252.969 173.82L252.081 175.29C252.029 175.407 251.941 175.508 251.829 175.581C251.718 175.653 251.586 175.695 251.45 175.7Z" fill="black"/>
<path d="M261.23 175.7C261.146 175.7 261.063 175.684 260.985 175.653C260.908 175.622 260.838 175.577 260.78 175.52C260.717 175.461 260.667 175.391 260.634 175.314C260.601 175.236 260.585 175.153 260.588 175.07C260.593 174.93 260.633 174.793 260.706 174.67L261.669 173.27H259.7C259.609 173.274 259.518 173.261 259.433 173.23C259.348 173.199 259.271 173.151 259.208 173.09C259.098 172.97 259.037 172.818 259.037 172.66C259.037 172.502 259.098 172.35 259.208 172.23C259.271 172.169 259.348 172.122 259.433 172.09C259.518 172.059 259.609 172.046 259.7 172.05L261.636 172.1L260.727 170.75C260.641 170.617 260.593 170.465 260.588 170.31C260.585 170.227 260.601 170.144 260.634 170.066C260.667 169.989 260.717 169.919 260.78 169.86C260.84 169.803 260.912 169.757 260.991 169.727C261.07 169.696 261.155 169.68 261.241 169.68C261.36 169.678 261.478 169.71 261.579 169.77C261.68 169.831 261.759 169.918 261.808 170.02L262.749 171.59L263.648 170.09C263.705 169.973 263.794 169.873 263.908 169.801C264.021 169.729 264.153 169.687 264.29 169.68C264.374 169.679 264.458 169.694 264.535 169.725C264.613 169.756 264.682 169.802 264.739 169.86C264.802 169.915 264.852 169.982 264.885 170.056C264.918 170.13 264.934 170.21 264.932 170.29C264.931 170.432 264.886 170.571 264.804 170.69L263.862 172.1L265.82 172.05C265.911 172.045 266.002 172.058 266.087 172.09C266.172 172.121 266.249 172.169 266.312 172.23C266.422 172.35 266.483 172.502 266.483 172.66C266.483 172.818 266.422 172.97 266.312 173.09C266.249 173.151 266.172 173.199 266.087 173.23C266.002 173.262 265.911 173.275 265.82 173.27H263.841L264.718 174.55C264.817 174.705 264.872 174.88 264.879 175.06C264.882 175.141 264.867 175.222 264.836 175.297C264.805 175.373 264.757 175.442 264.697 175.5C264.64 175.556 264.572 175.601 264.497 175.632C264.422 175.663 264.34 175.679 264.258 175.68C264.126 175.677 263.997 175.639 263.887 175.57C263.777 175.501 263.69 175.403 263.637 175.29L262.749 173.82L261.861 175.29C261.808 175.407 261.721 175.508 261.609 175.581C261.497 175.653 261.366 175.695 261.23 175.7Z" fill="black"/>
<path d="M271.052 175.7C270.968 175.7 270.885 175.684 270.808 175.653C270.731 175.622 270.661 175.577 270.603 175.52C270.54 175.461 270.49 175.391 270.457 175.314C270.424 175.236 270.408 175.153 270.41 175.07C270.415 174.93 270.456 174.793 270.528 174.67L271.491 173.27H269.533C269.44 173.275 269.348 173.262 269.261 173.231C269.174 173.2 269.095 173.152 269.03 173.09C268.92 172.97 268.86 172.818 268.86 172.66C268.86 172.502 268.92 172.35 269.03 172.23C269.095 172.168 269.174 172.12 269.261 172.089C269.348 172.058 269.44 172.045 269.533 172.05L271.459 172.1L270.55 170.75C270.464 170.617 270.416 170.465 270.41 170.31C270.408 170.227 270.424 170.144 270.457 170.066C270.49 169.989 270.54 169.919 270.603 169.86C270.663 169.803 270.735 169.757 270.814 169.727C270.893 169.696 270.978 169.68 271.063 169.68C271.183 169.678 271.301 169.71 271.402 169.77C271.502 169.831 271.582 169.918 271.63 170.02L272.572 171.59L273.471 170.09C273.527 169.973 273.617 169.873 273.73 169.801C273.844 169.729 273.976 169.687 274.113 169.68C274.197 169.679 274.28 169.694 274.358 169.725C274.435 169.756 274.505 169.802 274.562 169.86C274.625 169.915 274.674 169.982 274.708 170.056C274.741 170.13 274.757 170.21 274.755 170.29C274.753 170.432 274.709 170.571 274.626 170.69L273.685 172.1L275.643 172.05C275.734 172.045 275.825 172.058 275.91 172.09C275.995 172.121 276.072 172.169 276.135 172.23C276.245 172.35 276.305 172.502 276.305 172.66C276.305 172.818 276.245 172.97 276.135 173.09C276.072 173.151 275.995 173.199 275.91 173.23C275.825 173.262 275.734 173.275 275.643 173.27H273.663L274.541 174.55C274.64 174.705 274.695 174.88 274.701 175.06C274.704 175.141 274.69 175.222 274.658 175.297C274.627 175.373 274.58 175.442 274.519 175.5C274.463 175.556 274.395 175.601 274.32 175.632C274.244 175.663 274.163 175.679 274.081 175.68C273.948 175.677 273.819 175.639 273.709 175.57C273.599 175.501 273.513 175.403 273.46 175.29L272.572 173.82L271.684 175.29C271.631 175.407 271.544 175.508 271.432 175.581C271.32 175.653 271.189 175.695 271.052 175.7Z" fill="black"/>
<path d="M280.875 175.7C280.791 175.7 280.708 175.684 280.631 175.653C280.553 175.622 280.484 175.577 280.426 175.52C280.362 175.461 280.313 175.391 280.28 175.314C280.246 175.236 280.231 175.153 280.233 175.07C280.233 174.929 280.274 174.791 280.351 174.67L281.314 173.27H279.345C279.254 173.274 279.163 173.261 279.078 173.23C278.993 173.199 278.916 173.151 278.853 173.09C278.743 172.97 278.682 172.818 278.682 172.66C278.682 172.502 278.743 172.35 278.853 172.23C278.916 172.169 278.993 172.122 279.078 172.091C279.163 172.059 279.254 172.046 279.345 172.05L281.282 172.1L280.34 170.8C280.254 170.667 280.206 170.515 280.201 170.36C280.199 170.277 280.214 170.194 280.247 170.116C280.281 170.039 280.33 169.969 280.394 169.91C280.454 169.853 280.525 169.807 280.604 169.777C280.683 169.746 280.768 169.73 280.854 169.73C280.974 169.728 281.091 169.76 281.192 169.82C281.293 169.881 281.372 169.968 281.421 170.07L282.362 171.64L283.261 170.14C283.318 170.023 283.408 169.923 283.521 169.851C283.634 169.779 283.766 169.737 283.903 169.73C283.987 169.729 284.071 169.744 284.148 169.775C284.226 169.806 284.295 169.852 284.353 169.91C284.415 169.965 284.465 170.032 284.498 170.106C284.531 170.18 284.547 170.26 284.545 170.34C284.544 170.482 284.499 170.621 284.417 170.74L283.475 172.15L285.433 172.1C285.524 172.095 285.616 172.109 285.701 172.14C285.785 172.171 285.862 172.219 285.926 172.28C286.035 172.4 286.096 172.552 286.096 172.71C286.096 172.868 286.035 173.02 285.926 173.14C285.862 173.202 285.785 173.249 285.701 173.281C285.616 173.312 285.524 173.325 285.433 173.32H283.454L284.331 174.6C284.43 174.755 284.485 174.93 284.492 175.11C284.495 175.191 284.48 175.272 284.449 175.347C284.418 175.423 284.37 175.492 284.31 175.55C284.253 175.606 284.186 175.651 284.11 175.682C284.035 175.713 283.953 175.729 283.871 175.73C283.739 175.727 283.61 175.689 283.5 175.62C283.39 175.551 283.303 175.454 283.251 175.34L282.362 173.87L281.474 175.34C281.417 175.444 281.331 175.531 281.226 175.595C281.121 175.658 281 175.694 280.875 175.7Z" fill="black"/>
<path d="M290.698 175.7C290.614 175.7 290.53 175.684 290.453 175.653C290.376 175.622 290.306 175.577 290.248 175.52C290.185 175.461 290.135 175.391 290.102 175.314C290.069 175.236 290.053 175.153 290.056 175.07C290.061 174.93 290.101 174.793 290.173 174.67L291.136 173.27H289.178C289.087 173.276 288.995 173.264 288.91 173.232C288.825 173.201 288.748 173.153 288.686 173.09C288.569 172.973 288.505 172.82 288.505 172.66C288.505 172.5 288.569 172.347 288.686 172.23C288.748 172.167 288.825 172.119 288.91 172.088C288.995 172.056 289.087 172.044 289.178 172.05L291.104 172.1L290.195 170.75C290.109 170.617 290.061 170.465 290.056 170.31C290.053 170.228 290.068 170.147 290.099 170.07C290.131 169.994 290.178 169.924 290.239 169.866C290.3 169.807 290.373 169.76 290.454 169.728C290.534 169.696 290.621 169.68 290.708 169.68C290.828 169.678 290.946 169.71 291.047 169.77C291.148 169.831 291.227 169.918 291.275 170.02L292.217 171.59L293.116 170.09C293.172 169.973 293.262 169.873 293.375 169.801C293.489 169.729 293.621 169.687 293.758 169.68C293.842 169.677 293.926 169.692 294.004 169.723C294.082 169.754 294.151 169.801 294.207 169.86C294.27 169.915 294.32 169.982 294.353 170.056C294.386 170.13 294.402 170.21 294.4 170.29C294.398 170.432 294.354 170.571 294.271 170.69L293.33 172.1L295.288 172.05C295.379 172.045 295.47 172.058 295.555 172.09C295.64 172.121 295.717 172.169 295.78 172.23C295.89 172.35 295.951 172.502 295.951 172.66C295.951 172.818 295.89 172.97 295.78 173.09C295.717 173.151 295.64 173.199 295.555 173.23C295.47 173.261 295.379 173.275 295.288 173.27H293.308L294.186 174.55C294.285 174.704 294.34 174.88 294.346 175.06C294.349 175.139 294.335 175.217 294.306 175.291C294.276 175.365 294.231 175.433 294.174 175.49C294.116 175.548 294.047 175.594 293.97 175.627C293.893 175.659 293.81 175.677 293.726 175.68C293.593 175.677 293.465 175.639 293.355 175.57C293.245 175.5 293.158 175.403 293.105 175.29L292.217 173.82L291.329 175.29C291.276 175.407 291.189 175.508 291.077 175.581C290.965 175.653 290.834 175.695 290.698 175.7Z" fill="black"/>
<path d="M300.52 175.7C300.436 175.7 300.353 175.684 300.276 175.653C300.198 175.622 300.129 175.577 300.071 175.52C300.007 175.461 299.958 175.391 299.925 175.314C299.891 175.236 299.876 175.153 299.878 175.07C299.883 174.93 299.923 174.793 299.996 174.67L300.959 173.27H298.99C298.901 173.275 298.811 173.261 298.728 173.23C298.645 173.199 298.57 173.151 298.509 173.09C298.392 172.973 298.327 172.82 298.327 172.66C298.327 172.5 298.392 172.347 298.509 172.23C298.57 172.169 298.645 172.121 298.728 172.09C298.811 172.059 298.901 172.045 298.99 172.05L300.927 172.1L300.017 170.75C299.931 170.617 299.884 170.465 299.878 170.31C299.875 170.228 299.89 170.147 299.922 170.07C299.953 169.994 300.001 169.924 300.062 169.866C300.123 169.807 300.195 169.76 300.276 169.728C300.357 169.696 300.443 169.68 300.531 169.68C300.651 169.678 300.768 169.71 300.869 169.77C300.97 169.831 301.05 169.918 301.098 170.02L302.04 171.59L302.938 170.09C302.995 169.973 303.085 169.873 303.198 169.801C303.311 169.729 303.443 169.687 303.58 169.68C303.665 169.677 303.749 169.692 303.826 169.723C303.904 169.754 303.974 169.801 304.03 169.86C304.093 169.915 304.142 169.982 304.175 170.056C304.208 170.13 304.225 170.21 304.222 170.29C304.221 170.432 304.176 170.571 304.094 170.69L303.152 172.1L305.11 172.05C305.202 172.045 305.293 172.058 305.378 172.09C305.463 172.121 305.539 172.169 305.603 172.23C305.713 172.35 305.773 172.502 305.773 172.66C305.773 172.818 305.713 172.97 305.603 173.09C305.539 173.151 305.463 173.199 305.378 173.23C305.293 173.261 305.202 173.275 305.11 173.27H303.131L304.008 174.55C304.107 174.704 304.163 174.88 304.169 175.06C304.172 175.139 304.158 175.217 304.128 175.291C304.099 175.365 304.054 175.433 303.996 175.49C303.938 175.548 303.869 175.594 303.792 175.627C303.716 175.659 303.633 175.677 303.548 175.68C303.416 175.677 303.287 175.639 303.177 175.57C303.067 175.5 302.981 175.403 302.928 175.29L302.04 173.82L301.152 175.29C301.099 175.407 301.011 175.508 300.9 175.581C300.788 175.653 300.656 175.695 300.52 175.7Z" fill="black"/>
<path d="M310.3 175.7C310.216 175.7 310.133 175.684 310.055 175.653C309.978 175.622 309.909 175.577 309.851 175.52C309.787 175.461 309.738 175.391 309.704 175.314C309.671 175.236 309.655 175.153 309.658 175.07C309.663 174.93 309.703 174.793 309.776 174.67L310.739 173.27H308.77C308.68 173.275 308.591 173.261 308.508 173.23C308.424 173.199 308.35 173.151 308.288 173.09C308.172 172.973 308.107 172.82 308.107 172.66C308.107 172.5 308.172 172.347 308.288 172.23C308.35 172.169 308.424 172.121 308.508 172.09C308.591 172.059 308.68 172.045 308.77 172.05L310.707 172.1L309.797 170.75C309.711 170.617 309.663 170.465 309.658 170.31C309.655 170.227 309.671 170.144 309.704 170.066C309.738 169.989 309.787 169.919 309.851 169.86C309.911 169.803 309.982 169.757 310.061 169.727C310.14 169.696 310.225 169.68 310.311 169.68C310.43 169.678 310.548 169.71 310.649 169.77C310.75 169.831 310.829 169.918 310.878 170.02L311.819 171.59L312.718 170.09C312.775 169.973 312.865 169.873 312.978 169.801C313.091 169.729 313.223 169.687 313.36 169.68C313.445 169.677 313.529 169.692 313.606 169.723C313.684 169.754 313.753 169.801 313.81 169.86C313.872 169.915 313.922 169.982 313.955 170.056C313.988 170.13 314.004 170.21 314.002 170.29C314.001 170.432 313.956 170.571 313.874 170.69L312.932 172.1L314.89 172.05C314.981 172.045 315.073 172.058 315.157 172.09C315.242 172.121 315.319 172.169 315.382 172.23C315.492 172.35 315.553 172.502 315.553 172.66C315.553 172.818 315.492 172.97 315.382 173.09C315.319 173.151 315.242 173.199 315.157 173.23C315.073 173.261 314.981 173.275 314.89 173.27H312.911L313.788 174.55C313.887 174.704 313.942 174.88 313.949 175.06C313.952 175.141 313.937 175.222 313.906 175.297C313.875 175.373 313.827 175.442 313.767 175.5C313.71 175.556 313.643 175.601 313.567 175.632C313.492 175.663 313.41 175.679 313.328 175.68C313.196 175.677 313.067 175.639 312.957 175.57C312.847 175.5 312.76 175.403 312.707 175.29L311.819 173.82L310.931 175.29C310.879 175.407 310.791 175.508 310.679 175.581C310.568 175.653 310.436 175.695 310.3 175.7Z" fill="black"/>
<path d="M343.962 197.82H357.048" stroke="white" stroke-width="3" stroke-linecap="round" stroke-linejoin="round"/>
<path d="M162.458 107.77V189C162.458 191.352 163.458 193.609 165.238 195.272C167.018 196.936 169.432 197.87 171.949 197.87H331.54" stroke="white" stroke-width="3" stroke-linecap="round" stroke-linejoin="round"/>
<path d="M162.458 86.23V98.41" stroke="white" stroke-width="3" stroke-linecap="round" stroke-linejoin="round"/>
</svg>
