<svg width="535" height="500" viewBox="0 0 535 500" fill="none" xmlns="http://www.w3.org/2000/svg">
<path d="M512.273 275.56C497.839 316.46 466.734 361.28 420.949 375.88C351.784 397.93 345.61 451 220.078 450.58C201.751 450.609 183.475 448.774 165.572 445.11C156.819 443.291 148.198 440.953 139.763 438.11C65.3984 413.04 24.6849 353.42 18.8534 289.71C11.1922 205.92 72.2143 163.64 111.943 138.71C151.672 113.78 197.04 21.2601 320.454 20.7101C339.294 20.5612 358.089 22.4402 376.469 26.3101C418.37 35.3101 461.491 56.9801 487.396 90.0101C489.329 92.4901 491.194 95.0301 492.992 97.6301C527.97 148.46 531.961 219.8 512.273 275.56Z" fill="#CDFAC9"/>
<path opacity="0.7" d="M512.273 275.56C497.839 316.46 466.734 361.28 420.949 375.88C351.784 397.93 345.61 451 220.078 450.58C201.751 450.609 183.475 448.774 165.572 445.11C156.819 443.291 148.198 440.953 139.763 438.11C65.3984 413.04 24.6849 353.42 18.8534 289.71C11.1922 205.92 72.2143 163.64 111.943 138.71C151.672 113.78 197.04 21.2601 320.454 20.7101C339.294 20.5612 358.089 22.4402 376.469 26.3101C418.37 35.3101 461.491 56.9801 487.396 90.0101C489.329 92.4901 491.194 95.0301 492.992 97.6301C527.97 148.46 531.961 219.8 512.273 275.56Z" fill="white"/>
<path d="M149.222 346.81H43.1532C43.0113 346.81 42.8752 346.757 42.7749 346.663C42.6745 346.57 42.6182 346.443 42.6182 346.31V201.44C42.6209 201.308 42.6781 201.182 42.7779 201.089C42.8776 200.996 43.0121 200.943 43.1532 200.94H149.222C149.364 200.94 149.5 200.993 149.601 201.086C149.701 201.18 149.757 201.307 149.757 201.44V346.31C149.757 346.443 149.701 346.57 149.601 346.663C149.5 346.757 149.364 346.81 149.222 346.81ZM43.6882 345.81H148.73V201.94H43.6882V345.81Z" fill="#263238"/>
<path d="M143.38 338.82H49.0061C48.865 338.817 48.7305 338.764 48.6308 338.671C48.5311 338.577 48.4738 338.452 48.4711 338.32V209.44C48.4711 209.307 48.5274 209.18 48.6278 209.086C48.7281 208.993 48.8642 208.94 49.0061 208.94H143.38C143.522 208.94 143.658 208.993 143.758 209.086C143.859 209.18 143.915 209.307 143.915 209.44V338.32C143.915 338.453 143.859 338.58 143.758 338.673C143.658 338.767 143.522 338.82 143.38 338.82ZM49.5518 337.82H142.845V209.94H49.5411L49.5518 337.82Z" fill="#263238"/>
<path d="M120.375 307.42H72.0003C71.8584 307.42 71.7224 307.367 71.622 307.273C71.5217 307.18 71.4653 307.052 71.4653 306.92V240.84C71.4653 240.707 71.5217 240.58 71.622 240.486C71.7224 240.393 71.8584 240.34 72.0003 240.34H120.375C120.517 240.34 120.653 240.393 120.753 240.486C120.854 240.58 120.91 240.707 120.91 240.84V306.92C120.91 307.052 120.854 307.18 120.753 307.273C120.653 307.367 120.517 307.42 120.375 307.42ZM72.5353 306.42H119.84V241.34H72.5353V306.42Z" fill="#263238"/>
<path d="M501.434 346.81H395.365C395.223 346.81 395.087 346.757 394.987 346.663C394.886 346.57 394.83 346.443 394.83 346.31V201.44C394.83 201.307 394.886 201.18 394.987 201.086C395.087 200.993 395.223 200.94 395.365 200.94H501.434C501.575 200.943 501.71 200.996 501.809 201.089C501.909 201.182 501.966 201.308 501.969 201.44V346.31C501.969 346.443 501.913 346.57 501.812 346.663C501.712 346.757 501.576 346.81 501.434 346.81ZM395.9 345.81H500.899V201.94H395.9V345.81Z" fill="#263238"/>
<path d="M495.581 338.82H401.25C401.109 338.817 400.975 338.764 400.875 338.671C400.775 338.577 400.718 338.452 400.715 338.32V209.44C400.715 209.307 400.771 209.18 400.872 209.086C400.972 208.993 401.108 208.94 401.25 208.94H495.613C495.755 208.94 495.891 208.993 495.992 209.086C496.092 209.18 496.148 209.307 496.148 209.44V338.32C496.147 338.388 496.131 338.455 496.102 338.517C496.072 338.579 496.03 338.635 495.977 338.681C495.924 338.728 495.862 338.764 495.794 338.788C495.726 338.812 495.654 338.823 495.581 338.82ZM401.753 337.82H495.046V209.94H401.753V337.82Z" fill="#263238"/>
<path d="M472.587 307.42H424.212C424.07 307.42 423.934 307.367 423.834 307.273C423.734 307.18 423.677 307.052 423.677 306.92V240.84C423.677 240.707 423.734 240.58 423.834 240.486C423.934 240.393 424.07 240.34 424.212 240.34H472.587C472.729 240.34 472.865 240.393 472.965 240.486C473.066 240.58 473.122 240.707 473.122 240.84V306.92C473.122 307.052 473.066 307.18 472.965 307.273C472.865 307.367 472.729 307.42 472.587 307.42ZM424.747 306.42H472.052V241.34H424.79L424.747 306.42Z" fill="#263238"/>
<path d="M453.605 53.25H91.6777C90.5316 53.25 89.3967 53.4611 88.338 53.8713C87.2793 54.2815 86.3175 54.8828 85.5076 55.6406C84.6976 56.3985 84.0555 57.2981 83.6179 58.2881C83.1803 59.278 82.9558 60.3389 82.9572 61.41V324.72C82.9572 325.79 83.1827 326.85 83.621 327.839C84.0592 328.828 84.7016 329.726 85.5113 330.483C86.3211 331.24 87.2824 331.84 88.3405 332.25C89.3985 332.659 90.5325 332.87 91.6777 332.87H311.21L336.89 351.53L333.005 332.87H453.605C455.918 332.87 458.136 332.011 459.772 330.483C461.407 328.954 462.326 326.882 462.326 324.72V61.41C462.327 60.3389 462.103 59.278 461.665 58.2881C461.227 57.2981 460.585 56.3985 459.775 55.6406C458.965 54.8828 458.004 54.2815 456.945 53.8713C455.886 53.4611 454.751 53.25 453.605 53.25Z" fill="#263238"/>
<path d="M336.879 352C336.758 351.999 336.642 351.96 336.547 351.89L311.017 333.34H91.6669C89.2149 333.343 86.8617 332.437 85.1229 330.821C83.3841 329.206 82.4013 327.012 82.39 324.72V61.41C82.3928 59.1158 83.3685 56.9161 85.1034 55.2929C86.8382 53.6697 89.1907 52.7553 91.6455 52.75H453.605C456.06 52.7553 458.412 53.6697 460.147 55.2929C461.882 56.9161 462.858 59.1158 462.861 61.41V324.72C462.858 327.013 461.882 329.212 460.147 330.834C458.411 332.455 456.059 333.367 453.605 333.37H333.637L337.403 351.43C337.427 351.53 337.416 351.634 337.371 351.728C337.327 351.821 337.252 351.899 337.157 351.95C337.071 351.99 336.975 352.007 336.879 352ZM91.6776 53.75C90.5995 53.7474 89.5314 53.9436 88.5345 54.3273C87.5376 54.7111 86.6315 55.2749 85.8682 55.9865C85.1048 56.698 84.4992 57.5434 84.086 58.474C83.6727 59.4047 83.46 60.4024 83.46 61.41V324.72C83.4628 326.748 84.3262 328.692 85.8606 330.126C87.3951 331.561 89.4755 332.367 91.6455 332.37H311.21C311.325 332.371 311.438 332.406 311.53 332.47L336.076 350.32L332.47 333C332.456 332.928 332.458 332.855 332.476 332.784C332.495 332.713 332.529 332.647 332.577 332.59C332.63 332.534 332.694 332.49 332.766 332.459C332.838 332.428 332.916 332.411 332.995 332.41H453.605C455.775 332.407 457.856 331.601 459.39 330.166C460.924 328.732 461.788 326.788 461.791 324.76V61.41C461.791 59.3802 460.929 57.4333 459.394 55.9971C457.859 54.5609 455.777 53.7526 453.605 53.75H91.6776Z" fill="#263238"/>
<path d="M459.648 45H97.7205C95.4077 45 93.1896 45.8587 91.5542 47.3871C89.9188 48.9155 89 50.9885 89 53.15V316.46C89 318.622 89.9188 320.695 91.5542 322.223C93.1896 323.751 95.4077 324.61 97.7205 324.61H317.242L342.922 343.27L339.048 324.61H459.648C461.961 324.61 464.179 323.751 465.814 322.223C467.45 320.695 468.368 318.622 468.368 316.46V53.15C468.368 50.9885 467.45 48.9155 465.814 47.3871C464.179 45.8587 461.961 45 459.648 45Z" fill="#CDFAC9"/>
<path d="M188.641 173.56C188.641 173.56 178.904 158.4 164.031 157.56C149.158 156.72 146.419 168.82 141.326 171.86C136.232 174.9 132.059 169.26 125.565 171.42C119.07 173.58 120.001 177.05 114.865 179.22C109.729 181.39 106.058 175.75 100.955 177.92C95.8506 180.09 94.4703 182.68 94.4703 182.68H208.96C208.96 182.68 205.75 174.45 200.614 173.16C195.478 171.87 194.205 177.46 188.641 173.56Z" fill="white"/>
<path d="M447.26 117.4C447.26 117.4 440.145 106.31 429.284 105.67C418.424 105.03 416.391 113.92 412.667 116.14C408.943 118.36 405.883 114.23 401.132 115.82C396.382 117.41 397.056 119.94 393.332 121.53C389.608 123.12 386.912 118.99 383.156 120.53C379.401 122.07 378.406 124.02 378.406 124.02H462.24C462.24 124.02 459.865 118.02 456.141 117.02C452.417 116.02 451.38 120.26 447.26 117.4Z" fill="white"/>
<path d="M414.582 75.3202C414.582 75.3202 401.432 54.8302 381.412 53.6602C361.393 52.4902 357.594 68.8802 350.703 73.0002C343.812 77.1202 338.174 69.4902 329.41 72.4202C320.647 75.3502 321.92 80.0302 315.008 82.9502C308.096 85.8702 303.11 78.2702 296.219 81.2002C289.328 84.1302 287.456 87.6402 287.456 87.6402H442.135C442.135 87.6402 437.748 76.5202 430.868 74.7602C423.988 73.0002 422.094 80.5802 414.582 75.3202Z" fill="white"/>
<g opacity="0.15">
<path d="M129.031 285.54C128.789 285.109 128.452 284.732 128.042 284.432C127.632 284.132 127.158 283.917 126.652 283.8C126.147 283.684 125.62 283.669 125.108 283.757C124.596 283.845 124.11 284.034 123.681 284.31C121.819 285.4 121.028 287.82 120.846 289.76C120.632 292.03 122.504 296.83 122.504 296.83C122.504 296.83 125.522 294.72 125.714 294.57C127.704 292.75 130.422 288.15 129.031 285.54Z" fill="black"/>
<path d="M99.5099 310.89C99.9807 310.3 100.398 309.77 100.452 309.69C101.864 307.45 103.169 302.35 101.094 300.17C100.739 299.819 100.309 299.541 99.8312 299.355C99.3539 299.17 98.8401 299.08 98.3233 299.092C97.8064 299.105 97.2981 299.219 96.8315 299.427C96.3649 299.635 95.9504 299.932 95.6151 300.3C94.1278 301.81 94.0422 304.3 94.4167 306.25C94.7912 308.2 97.1987 311.56 97.8514 312.44L96.4604 313.74C94.3204 315.74 92.1804 317.82 90.0404 319.74C90.2208 320.124 90.4318 320.495 90.6717 320.85L90.768 320.77C92.908 318.71 95.1122 316.56 97.2736 314.42L99.2745 312.48C99.4992 312.82 102.153 316.84 104.1 318.05C105.823 319.13 108.38 320.05 110.424 319.39C110.918 319.246 111.374 319.006 111.762 318.687C112.151 318.368 112.464 317.976 112.681 317.537C112.898 317.098 113.013 316.622 113.021 316.138C113.028 315.655 112.927 315.175 112.724 314.73C111.408 312.09 105.876 311.19 103.094 311.51C102.891 311.51 100.077 312.16 99.3708 312.36C100.837 310.93 102.313 309.52 103.822 308.19C105.847 306.383 107.991 304.697 110.242 303.14C110.349 303.3 113.11 307.51 115.1 308.75C116.823 309.83 119.38 310.75 121.424 310.09C121.918 309.947 122.375 309.709 122.765 309.39C123.155 309.071 123.468 308.679 123.685 308.239C123.902 307.8 124.018 307.323 124.024 306.839C124.031 306.355 123.929 305.875 123.724 305.43C122.408 302.79 116.876 301.89 114.094 302.21C113.88 302.21 110.884 302.92 110.317 303.08C110.445 302.99 110.574 302.88 110.713 302.8C113.03 301.301 115.487 299.999 118.053 298.91C119.465 298.3 120.846 297.78 122.205 297.31C122.633 298.14 124.644 301.92 126.292 303.23C127.94 304.54 130.283 305.66 132.423 305.23C132.932 305.139 133.415 304.949 133.841 304.672C134.266 304.394 134.624 304.037 134.892 303.622C135.159 303.206 135.33 302.743 135.393 302.262C135.456 301.781 135.411 301.293 135.259 300.83C134.264 298.07 128.839 296.61 126.089 296.65C125.939 296.65 124.398 296.82 123.285 296.97C123.906 296.76 124.537 296.54 125.126 296.36C127.362 295.65 129.406 295.14 131.31 294.7C132.38 294.45 133.333 294.25 134.231 294.07C135.109 294.69 138.672 297.07 140.748 297.55C142.823 298.03 145.488 297.99 147.168 296.66C147.573 296.361 147.906 295.985 148.146 295.557C148.386 295.129 148.526 294.659 148.559 294.177C148.591 293.694 148.514 293.211 148.334 292.759C148.153 292.306 147.872 291.895 147.51 291.55C145.263 289.55 139.753 290.55 137.302 291.78C137.088 291.88 133.985 293.9 134.028 293.93H134.082C133.204 294.08 132.273 294.26 131.268 294.47C129.395 294.88 127.287 295.35 125.029 296.01C122.586 296.692 120.188 297.51 117.85 298.46C115.24 299.514 112.734 300.779 110.36 302.24L110.274 302.3C110.852 301.63 112.414 299.72 112.478 299.57C113.891 297.32 115.207 292.22 113.131 290.04C112.775 289.689 112.344 289.411 111.866 289.225C111.388 289.039 110.873 288.95 110.355 288.962C109.838 288.974 109.329 289.088 108.861 289.296C108.394 289.504 107.978 289.802 107.642 290.17C106.165 291.68 106.069 294.17 106.444 296.12C106.872 298.28 109.771 302.17 110.007 302.48C107.618 304.028 105.344 305.725 103.201 307.56C101.96 308.67 100.73 309.77 99.5099 310.89Z" fill="black"/>
<path d="M89.3129 311.92V316.55C89.3117 317.08 89.3655 317.61 89.4734 318.13C90.1047 316 90.2973 313.49 89.3129 311.92Z" fill="black"/>
<path d="M135.376 221C138.18 217.26 141.24 208.5 137.934 204.42C137.364 203.757 136.651 203.213 135.842 202.824C135.033 202.435 134.144 202.211 133.236 202.164C132.327 202.118 131.418 202.252 130.568 202.556C129.718 202.86 128.947 203.328 128.304 203.93C125.479 206.38 124.944 210.8 125.318 214.19C125.757 218.19 130.668 225.89 130.668 225.89C130.668 225.89 135.13 221.36 135.376 221Z" fill="black"/>
<path d="M172.013 209.16C167.444 206.36 158.296 209.82 154.497 212.68C154.176 212.93 149.511 217.36 149.607 217.4H149.704C148.259 217.93 146.718 218.52 145.038 219.2C141.957 220.47 138.49 221.93 134.82 223.76C130.851 225.691 127.007 227.838 123.307 230.19C119.144 232.798 115.241 235.75 111.644 239.01L111.515 239.13C112.275 237.81 114.244 234.05 114.362 233.75C116.009 229.45 116.502 220.24 112.147 217.13C111.414 216.624 110.575 216.269 109.684 216.09C108.794 215.91 107.873 215.91 106.982 216.089C106.092 216.267 105.252 216.621 104.519 217.127C103.786 217.632 103.176 218.278 102.731 219.02C100.698 222.09 101.436 226.48 102.731 229.66C104.207 233.24 110.584 239.07 111.098 239.54C107.523 242.938 104.195 246.556 101.136 250.37C99.3388 252.58 97.6054 254.87 95.8934 257.17C96.5033 256.01 97.049 254.97 97.1025 254.81C98.7503 250.52 99.2425 241.31 94.8876 238.2C94.1054 237.632 93.1858 237.253 92.2098 237.096C91.2339 236.94 90.2316 237.009 89.2915 237.3V256.02C91.0356 257.95 92.8439 259.66 93.5715 260.35C92.9295 261.24 92.2768 262.12 91.6348 263.02L89.2808 266.29V269.77C90.5969 267.85 91.9237 265.93 93.2398 264C94.1493 262.67 95.0695 261.36 95.9897 260C96.4926 260.52 102.495 266.64 106.272 268.14C109.632 269.47 114.308 270.3 117.657 268.5C118.465 268.107 119.174 267.559 119.737 266.891C120.3 266.223 120.705 265.45 120.925 264.624C121.145 263.799 121.174 262.939 121.011 262.102C120.848 261.265 120.496 260.47 119.979 259.77C116.769 255.62 106.936 255.77 102.281 257.16C101.939 257.26 97.3058 259.21 96.1609 259.76C98.1832 256.85 100.238 253.97 102.378 251.21C105.252 247.462 108.387 243.895 111.761 240.53C111.997 240.77 118.181 247.18 122.098 248.72C125.447 250.05 130.123 250.88 133.472 249.08C134.28 248.688 134.99 248.14 135.555 247.473C136.119 246.805 136.525 246.033 136.746 245.207C136.966 244.381 136.997 243.521 136.834 242.684C136.672 241.846 136.321 241.051 135.804 240.35C132.594 236.2 122.75 236.35 118.107 237.74C117.743 237.84 112.757 239.95 111.89 240.39C112.093 240.19 112.275 239.97 112.468 239.78C115.949 236.495 119.734 233.503 123.778 230.84C125.992 229.34 128.207 228.03 130.379 226.84C131.449 228.15 136.19 234.07 139.507 235.84C142.824 237.61 147.232 238.84 150.774 237.37C151.623 237.063 152.393 236.591 153.032 235.985C153.671 235.379 154.165 234.652 154.481 233.854C154.796 233.056 154.927 232.204 154.863 231.355C154.8 230.506 154.544 229.679 154.112 228.93C151.437 224.47 141.614 223.6 136.832 224.51C136.564 224.56 133.985 225.34 132.113 225.93C133.097 225.39 134.114 224.81 135.077 224.31C138.683 222.41 142.107 220.88 145.145 219.55C146.89 218.81 148.473 218.17 149.971 217.55C151.694 218.33 158.692 221.43 162.426 221.55C166.16 221.67 170.751 220.86 173.126 218.05C173.718 217.414 174.161 216.67 174.428 215.865C174.694 215.06 174.777 214.212 174.673 213.375C174.568 212.538 174.277 211.731 173.819 211.005C173.361 210.279 172.746 209.651 172.013 209.16Z" fill="black"/>
<path d="M89.3129 278.44V289.6C89.6143 289.766 89.925 289.916 90.2438 290.05C93.6036 291.38 98.2795 292.21 101.629 290.41C102.436 290.018 103.145 289.469 103.708 288.801C104.272 288.133 104.677 287.36 104.896 286.535C105.116 285.709 105.145 284.849 104.982 284.012C104.819 283.175 104.467 282.38 103.95 281.68C101.361 278.3 94.3419 277.76 89.3129 278.44Z" fill="black"/>
<path d="M91.7097 322.15C92.5214 322.957 93.5013 323.599 94.5889 324.038C95.6766 324.476 96.8489 324.702 98.0334 324.7H100.762C98.9429 322.61 94.2349 321.88 91.7097 322.15Z" fill="black"/>
<path d="M400.619 196.86C400.736 196.86 395.793 190.86 395.429 190.5C391.288 186.5 380.77 181.11 374.799 183.88C370.519 185.88 369.535 190.88 371.985 194.51C374.436 198.14 380.01 199.83 384.44 200.18C389.63 200.6 400.619 196.86 400.619 196.86Z" fill="black"/>
<path d="M468.66 316.31V312.23C466.68 311.32 464.626 310.41 462.518 309.49C463.444 306.474 464.176 303.408 464.712 300.31C466.051 300.174 467.374 299.916 468.66 299.54V286.54C465.816 285.245 462.766 284.391 459.629 284.01C459.179 283.666 458.695 283.361 458.185 283.1C454.151 281.03 448.865 282.25 447.003 286.38C444.414 292.11 450.834 301.59 455.338 305.22C455.595 305.43 458.762 307.45 460.774 308.7C459.469 308.13 458.217 307.57 456.858 307.01C454.204 305.88 451.508 304.82 448.619 303.67L444.339 302.13C442.916 301.59 441.343 301.19 439.823 300.7C436.303 299.65 432.665 298.7 428.995 297.9C430.065 295.72 433.671 287.9 433.703 283.76C433.735 279.62 432.515 274.32 428.792 271.65C425.068 268.98 419.718 269.5 417.204 273.31C413.705 278.61 418.52 288.89 422.382 293.12C422.618 293.38 425.753 296.12 427.508 297.59C425.293 297.1 423.089 296.59 420.831 296.18C414.304 294.95 407.67 293.9 401.047 292.82C399.024 292.49 397.002 292.14 394.99 291.82C395.376 291.05 399.902 281.87 399.923 277.21C399.923 273.06 398.746 267.76 395.012 265.1C394.158 264.443 393.165 263.961 392.098 263.687C391.031 263.413 389.914 263.352 388.821 263.509C387.727 263.665 386.681 264.036 385.751 264.596C384.821 265.156 384.028 265.894 383.424 266.76C379.936 272.06 384.74 282.34 388.603 286.56C388.902 286.88 393.418 290.81 394.616 291.76C390.165 291 385.746 290.2 381.412 289.25C375.562 287.995 369.804 286.388 364.174 284.44C364.356 284.08 369.129 274.52 369.161 269.74C369.161 265.59 367.973 260.3 364.239 257.63C363.385 256.974 362.393 256.494 361.327 256.221C360.261 255.948 359.146 255.887 358.053 256.044C356.961 256.201 355.916 256.571 354.987 257.13C354.058 257.689 353.266 258.425 352.661 259.29C349.162 264.59 353.977 274.87 357.84 279.09C358.14 279.42 363.008 283.65 363.95 284.36C363.618 284.25 363.265 284.16 362.944 284.04C357.362 281.935 351.991 279.372 346.894 276.38C344.058 274.76 341.437 273.06 338.933 271.38C340.003 269.68 344.872 261.88 345.407 257.58C345.92 253.46 345.353 248.08 341.951 245.04C338.548 242 333.187 241.97 330.245 245.51C326.147 250.41 329.72 261.13 333.059 265.72C333.241 265.97 335.391 268.32 336.986 270.01C335.862 269.22 334.696 268.43 333.637 267.66C329.667 264.77 326.222 261.89 323.193 259.32C321.481 257.85 319.983 256.48 318.56 255.19C318.699 253.01 319.127 244.19 317.49 240.19C315.853 236.19 312.75 231.78 308.235 230.55C303.719 229.32 298.937 231.55 298.07 236C296.861 242.12 305.303 250.09 310.535 252.72C310.995 252.95 318.496 255.72 318.507 255.64C318.518 255.56 318.507 255.54 318.507 255.51C319.834 256.78 321.267 258.12 322.862 259.56C325.836 262.2 329.282 265.16 333.144 268.14C337.333 271.395 341.721 274.42 346.284 277.2C351.364 280.34 356.736 283.047 362.334 285.29L362.537 285.36C360.601 285.19 355.154 284.89 354.726 284.91C348.799 285.2 337.51 289.04 335.809 295.05C335.556 296.057 335.532 297.102 335.739 298.117C335.946 299.133 336.38 300.097 337.011 300.945C337.643 301.794 338.459 302.509 339.406 303.044C340.353 303.579 341.409 303.922 342.507 304.05C347.151 304.74 352.083 301.91 355.283 299.05C358.889 295.8 362.89 286.37 363.211 285.62C368.997 287.783 374.931 289.581 380.973 291C384.483 291.84 388.035 292.59 391.609 293.3C389.929 293.2 388.399 293.13 388.207 293.14C382.268 293.44 370.99 297.27 369.289 303.28C368.059 307.62 371.429 311.6 375.987 312.28C380.545 312.96 385.564 310.14 388.763 307.28C391.962 304.42 395.59 296.38 396.51 294.28L400.629 295.06C407.231 296.28 413.822 297.47 420.253 298.81C422.522 299.29 424.736 299.81 426.951 300.37C425.453 300.29 424.191 300.23 423.998 300.24C418.07 300.53 406.782 304.37 405.081 310.38C403.85 314.71 407.221 318.7 411.779 319.38C416.337 320.06 421.409 317.24 424.555 314.38C427.7 311.52 431.028 304.26 432.141 301.74C434.388 302.35 436.646 302.97 438.796 303.66C440.251 304.16 441.696 304.55 443.13 305.13L447.41 306.75C450.074 307.88 452.835 309.03 455.403 310.19C457.2 310.98 458.891 311.77 460.603 312.56C458.356 312.06 453.926 311.17 453.541 311.14C447.634 310.59 435.854 312.78 433.211 318.49C432.74 319.496 432.534 320.594 432.61 321.69C432.686 322.786 433.043 323.849 433.65 324.79H452.289C456.216 321.79 461.116 314.1 461.748 313.09C464.145 314.12 466.52 315.22 468.66 316.31Z" fill="black"/>
<path d="M458.516 258.58C458.516 258.92 459.586 262.82 460.153 264.95C458.591 263.4 457.05 261.85 455.413 260.33C450.705 255.94 445.783 251.64 440.904 247.33C439.406 246.01 437.93 244.68 436.453 243.33C437.223 242.88 446.415 237.56 449.197 233.68C451.668 230.24 453.787 225.2 452.246 221.05C450.705 216.9 445.955 214.57 441.546 216.46C435.511 219.08 433.457 230.13 434.185 235.65C434.238 236.06 435.683 241.65 436.132 243.08C432.922 240.16 429.648 237.21 426.598 234.19C422.493 230.128 418.672 225.822 415.16 221.3C415.524 221.1 425.143 215.58 428 211.61C430.461 208.16 432.59 203.13 431.049 198.98C429.509 194.83 424.747 192.5 420.403 194.39C414.357 197.01 412.303 208.06 413.031 213.58C413.095 214.01 414.646 220.05 415.021 221.12C414.818 220.86 414.571 220.6 414.368 220.34C410.957 215.702 407.989 210.794 405.498 205.67C404.085 202.85 402.908 200.09 401.817 197.37C403.722 196.52 412.378 192.52 415.363 189.21C418.349 185.9 420.927 181.21 419.889 176.97C418.851 172.73 414.39 169.88 409.842 171.31C403.529 173.31 400.212 184.07 400.212 189.63C400.212 189.93 400.619 193 400.95 195.22C400.48 193.99 399.977 192.73 399.549 191.54C397.944 187.08 396.767 182.91 395.761 179.2C395.204 177.09 394.744 175.2 394.338 173.37C395.739 171.62 401.282 164.5 402.277 160.37C403.272 156.24 403.347 150.92 400.255 147.56C397.163 144.2 391.887 143.64 388.56 146.87C383.937 151.35 386.281 162.35 389.084 167.25C389.33 167.67 393.931 173.88 394.006 173.79L394.092 173.69C394.455 175.43 394.851 177.29 395.333 179.31C396.264 183.05 397.344 187.31 398.853 191.77C400.421 196.638 402.293 201.417 404.46 206.08C406.856 211.31 409.746 216.329 413.095 221.08C413.141 221.131 413.184 221.184 413.223 221.24C411.704 220.1 407.349 217.04 406.985 216.84C401.86 214.03 390.186 211.4 385.211 215.54C384.399 216.25 383.757 217.113 383.328 218.071C382.898 219.029 382.69 220.062 382.717 221.101C382.744 222.139 383.006 223.161 383.486 224.098C383.965 225.036 384.652 225.868 385.5 226.54C388.966 229.54 394.744 229.68 399.11 228.93C404.043 228.09 412.945 222.28 413.651 221.82C417.192 226.588 421.067 231.131 425.25 235.42C427.679 237.93 430.204 240.42 432.74 242.82C431.403 241.87 430.183 241.03 430.001 240.93C424.876 238.12 413.202 235.5 408.237 239.64C404.653 242.64 405.123 247.64 408.515 250.64C411.907 253.64 417.771 253.78 422.136 253.03C426.502 252.28 434.259 247.47 436.282 246.17L439.256 248.95C444.05 253.37 448.886 257.76 453.412 262.19C455.017 263.76 456.548 265.35 458.078 266.94C456.879 266.1 455.863 265.4 455.692 265.31C450.566 262.5 438.893 259.88 433.928 264.02C430.343 267.02 430.814 272.02 434.206 274.97C437.598 277.92 443.461 278.12 447.827 277.37C452.193 276.62 459.201 272.27 461.609 270.74C463.128 272.41 464.647 274.08 466.038 275.74C466.916 276.86 467.836 277.89 468.66 279.04V274.04C468.628 274.006 468.599 273.969 468.574 273.93C466.252 271.23 463.759 268.6 461.181 266.01C463.767 264.489 466.267 262.844 468.671 261.08V238.78C467.704 238.82 466.755 239.038 465.878 239.42C459.843 242 457.789 253.06 458.516 258.58Z" fill="black"/>
<path d="M219.157 323.29C217.574 322.38 216.108 321.43 214.706 320.48C215.316 319.48 218.034 315.17 218.333 312.76C218.633 310.35 218.333 307.44 216.397 305.76C215.963 305.347 215.442 305.024 214.866 304.812C214.291 304.599 213.674 304.502 213.055 304.527C212.437 304.551 211.831 304.697 211.277 304.954C210.722 305.211 210.232 305.575 209.838 306.02C207.548 308.77 209.549 314.76 211.421 317.33C211.518 317.47 212.727 318.79 213.561 319.73C212.93 319.29 212.277 318.85 211.689 318.42C209.463 316.8 207.537 315.19 205.847 313.75C204.884 312.93 204.038 312.16 203.257 311.44C203.332 310.22 203.567 305.3 202.669 303.07C201.77 300.84 200.015 298.37 197.49 297.68C196.906 297.498 196.287 297.433 195.675 297.488C195.062 297.543 194.468 297.718 193.932 298C193.396 298.283 192.929 298.668 192.561 299.129C192.193 299.591 191.933 300.119 191.797 300.68C191.123 304.1 195.853 308.56 198.774 310.04C199.031 310.17 203.225 311.73 203.236 311.67V311.6C203.985 312.31 204.787 313.06 205.675 313.87C207.345 315.34 209.238 316.99 211.432 318.66C213.771 320.489 216.226 322.186 218.783 323.74L220.388 324.67H221.704C220.869 324.24 219.992 323.77 219.157 323.29Z" fill="black"/>
<path d="M214 320.57C214 320.52 209.72 319.15 209.474 319.1C206.264 318.44 199.534 318.95 197.704 321.96C197.193 322.789 197.033 323.766 197.255 324.7H210.287C211.612 323.394 212.852 322.015 214 320.57Z" fill="black"/>
<path d="M271.78 307C270.935 306.26 270.111 305.51 269.287 304.77C269.715 304.52 274.862 301.54 276.413 299.37C277.793 297.44 278.981 294.63 278.125 292.3C277.942 291.748 277.636 291.238 277.228 290.804C276.819 290.369 276.318 290.02 275.756 289.778C275.194 289.537 274.583 289.409 273.965 289.402C273.346 289.395 272.733 289.511 272.165 289.74C268.784 291.2 267.639 297.39 268.046 300.47C268.046 300.7 268.88 303.84 269.116 304.63C267.286 303 265.488 301.35 263.766 299.63C261.465 297.349 259.321 294.934 257.346 292.4C257.549 292.29 262.931 289.2 264.525 286.98C265.906 285.05 267.093 282.23 266.227 279.91C266.044 279.358 265.74 278.849 265.333 278.414C264.926 277.979 264.425 277.629 263.864 277.387C263.303 277.145 262.694 277.015 262.076 277.007C261.458 276.999 260.845 277.113 260.277 277.34C256.896 278.81 255.741 285 256.147 288.08C256.147 288.32 257.057 291.7 257.217 292.3L256.853 291.86C254.943 289.266 253.281 286.518 251.889 283.65C251.097 282.08 250.444 280.53 249.834 279.01C250.904 278.53 255.741 276.3 257.41 274.45C259.079 272.6 260.524 269.99 259.946 267.6C259.829 267.032 259.585 266.492 259.23 266.017C258.876 265.542 258.418 265.142 257.887 264.843C257.357 264.544 256.764 264.353 256.149 264.282C255.534 264.211 254.91 264.261 254.318 264.43C250.787 265.54 248.968 271.57 248.968 274.68C248.968 274.85 249.192 276.56 249.374 277.81C249.117 277.12 248.828 276.42 248.593 275.75C247.694 273.26 247.031 270.92 246.453 268.85C246.143 267.66 245.886 266.59 245.651 265.58C246.432 264.58 249.545 260.58 250.102 258.3C250.658 256.02 250.669 253.01 248.968 251.13C248.584 250.676 248.103 250.302 247.555 250.033C247.007 249.765 246.404 249.607 245.786 249.57C245.169 249.533 244.55 249.618 243.969 249.82C243.389 250.022 242.861 250.335 242.419 250.74C239.83 253.25 241.146 259.41 242.719 262.15C242.847 262.38 245.426 265.86 245.469 265.81V265.75C245.661 266.75 245.886 267.75 246.164 268.9C246.678 270.99 247.288 273.34 248.133 275.9C249.011 278.62 250.054 281.291 251.257 283.9C252.604 286.83 254.223 289.644 256.094 292.31L256.169 292.4C255.323 291.76 252.884 290.05 252.68 289.94C249.813 288.36 243.275 286.94 240.493 289.21C240.044 289.608 239.69 290.089 239.453 290.623C239.215 291.156 239.1 291.731 239.116 292.309C239.131 292.886 239.275 293.455 239.54 293.977C239.805 294.499 240.185 294.964 240.654 295.34C242.59 297 245.832 297.1 248.272 296.68C251.033 296.21 256.008 292.96 256.404 292.68C258.385 295.349 260.555 297.892 262.899 300.29C264.258 301.7 265.67 303.07 267.104 304.43C266.355 303.9 265.67 303.43 265.574 303.38C262.696 301.8 256.169 300.38 253.387 302.65C252.938 303.048 252.583 303.529 252.346 304.063C252.109 304.596 251.994 305.171 252.009 305.749C252.024 306.326 252.169 306.895 252.434 307.417C252.699 307.939 253.078 308.404 253.547 308.78C255.484 310.44 258.726 310.54 261.166 310.12C263.605 309.7 267.949 307.01 269.084 306.28L270.753 307.84C273.428 310.31 276.103 312.76 278.671 315.25C279.57 316.12 280.426 317.01 281.282 317.91C280.607 317.43 280.04 317.04 279.944 316.99C277.076 315.42 270.549 313.99 267.767 316.27C267.317 316.667 266.961 317.148 266.723 317.682C266.485 318.216 266.369 318.79 266.385 319.369C266.4 319.947 266.545 320.516 266.811 321.038C267.077 321.56 267.457 322.024 267.928 322.4C269.865 324.06 273.096 324.16 275.546 323.74C277.997 323.32 281.913 320.88 283.261 320.03C284.106 320.96 284.952 321.9 285.733 322.84C286.204 323.45 286.706 324.01 287.156 324.63H289.424L288.782 323.79C288.301 323.13 287.712 322.49 287.145 321.79C285.85 320.28 284.459 318.79 283.015 317.35C284.235 316.64 288.493 314.05 289.884 312.11C291.275 310.17 292.452 307.36 291.596 305.04C291.413 304.488 291.107 303.978 290.699 303.543C290.291 303.109 289.79 302.759 289.228 302.516C288.666 302.274 288.056 302.145 287.437 302.137C286.819 302.129 286.205 302.243 285.636 302.47C282.255 303.94 281.1 310.13 281.517 313.21C281.517 313.4 282.095 315.59 282.426 316.78C281.56 315.91 280.693 315.04 279.773 314.19C277.248 311.85 274.498 309.44 271.78 307Z" fill="black"/>
<path d="M248.839 323.75C248.839 321.43 248.176 318.47 246.089 316.97C245.61 316.605 245.054 316.338 244.458 316.186C243.861 316.034 243.237 316.001 242.626 316.089C242.015 316.176 241.43 316.383 240.91 316.695C240.389 317.007 239.945 317.417 239.605 317.9C238.471 319.63 238.91 322.3 239.905 324.7H248.743C248.799 324.386 248.831 324.069 248.839 323.75Z" fill="black"/>
<path d="M312.44 284.34C316.72 286.15 322.284 284.63 326.179 282.64C330.758 280.31 337.713 271.54 337.713 271.53C337.713 271.52 330.095 269 329.56 268.9C323.75 267.72 311.787 268.63 308.438 274.01C307.914 274.924 307.602 275.93 307.522 276.964C307.441 277.997 307.595 279.035 307.973 280.01C308.35 280.984 308.943 281.873 309.713 282.62C310.482 283.366 311.412 283.952 312.44 284.34Z" fill="black"/>
<path d="M301.644 319C301.374 318.48 300.99 318.018 300.517 317.645C300.044 317.273 299.493 316.997 298.898 316.837C298.304 316.677 297.68 316.635 297.067 316.715C296.454 316.795 295.866 316.994 295.341 317.3C293.265 318.59 292.527 321.83 292.527 324.72H301.74C302.513 322.876 302.478 320.821 301.644 319Z" fill="black"/>
<path d="M240.172 280.65C243.072 280.88 249.224 278.79 249.224 278.79C249.224 278.79 246.517 275.42 246.325 275.23C244.003 273 238.118 269.97 234.779 271.52C234.225 271.79 233.738 272.168 233.352 272.628C232.966 273.087 232.688 273.619 232.539 274.186C232.389 274.754 232.37 275.344 232.483 275.919C232.597 276.494 232.839 277.04 233.196 277.52C234.597 279.55 237.69 280.45 240.172 280.65Z" fill="black"/>
<path d="M264.985 320.66C264.507 320.294 263.951 320.025 263.354 319.872C262.758 319.72 262.133 319.686 261.521 319.774C260.91 319.861 260.325 320.069 259.804 320.382C259.284 320.694 258.84 321.106 258.501 321.59C257.95 322.541 257.726 323.627 257.859 324.7H267.436C267.147 323.128 266.281 321.699 264.985 320.66Z" fill="black"/>
<path d="M231.623 319.57C231.623 317.25 230.959 314.29 228.873 312.8C228.395 312.432 227.84 312.162 227.242 312.009C226.645 311.855 226.02 311.821 225.408 311.909C224.796 311.997 224.211 312.204 223.69 312.518C223.17 312.832 222.726 313.245 222.389 313.73C220.463 316.65 223.052 322.28 225.203 324.73H230.221C230.967 323.087 231.439 321.347 231.623 319.57Z" fill="black"/>
<path d="M90.5541 109.12C91.3566 107.9 92.1912 106.78 93.0258 105.7C93.8604 106.17 97.691 108.26 99.8096 108.49C101.928 108.72 104.485 108.49 105.973 107C106.331 106.669 106.612 106.271 106.797 105.833C106.981 105.394 107.066 104.925 107.045 104.454C107.023 103.983 106.897 103.521 106.674 103.099C106.451 102.676 106.135 102.302 105.748 102C103.341 100.24 98.0655 101.78 95.8078 103.21C95.6901 103.29 94.5345 104.21 93.6678 104.9C94.053 104.42 94.4382 103.9 94.8234 103.46C96.2465 101.75 97.6589 100.27 98.9215 98.9702C99.6491 98.2402 100.323 97.5902 100.954 96.9702C102.024 97.0302 106.358 97.2102 108.316 96.5202C110.274 95.8302 112.446 94.5202 113.056 92.5202C113.214 92.0692 113.269 91.5922 113.217 91.1201C113.165 90.6481 113.007 90.1915 112.754 89.7802C112.501 89.3689 112.158 89.0121 111.747 88.733C111.336 88.4539 110.867 88.2587 110.37 88.1602C107.364 87.6402 103.437 91.2702 102.142 93.5102C102.035 93.7102 100.655 96.9302 100.708 96.9402H100.773C100.152 97.5102 99.4886 98.1302 98.7824 98.8102C97.477 100.09 96.0325 101.55 94.5666 103.23C92.9593 105.028 91.4693 106.915 90.1047 108.88C89.8265 109.28 89.5483 109.69 89.2808 110.11V111.11C89.7195 110.44 90.1368 109.77 90.5541 109.12Z" fill="black"/>
<path d="M92.9402 105.16C92.9402 105.16 94.1921 101.91 94.2349 101.69C94.8234 99.1902 94.374 94.0502 91.7204 92.6202C90.9937 92.2243 90.1339 92.0993 89.3129 92.2702V102.27C90.4599 103.3 91.6711 104.265 92.9402 105.16Z" fill="black"/>
<path d="M104.86 149.51L106.818 147.6C107.043 147.94 109.654 151.88 111.558 153.08C113.26 154.14 115.731 155.08 117.775 154.39C118.261 154.251 118.709 154.017 119.092 153.704C119.475 153.392 119.783 153.007 119.996 152.576C120.209 152.145 120.322 151.677 120.328 151.202C120.335 150.727 120.234 150.256 120.033 149.82C118.749 147.22 113.313 146.34 110.595 146.65C110.392 146.65 107.631 147.3 106.936 147.49C108.38 146.08 109.825 144.7 111.312 143.39C113.313 141.601 115.432 139.931 117.657 138.39C117.764 138.55 120.471 142.68 122.429 143.91C124.131 144.97 126.602 145.91 128.646 145.22C129.131 145.078 129.579 144.843 129.961 144.529C130.343 144.215 130.65 143.83 130.862 143.398C131.075 142.967 131.189 142.498 131.196 142.023C131.203 141.548 131.104 141.077 130.904 140.64C129.609 138.05 124.174 137.16 121.466 137.48C121.252 137.48 118.256 138.17 117.754 138.33L118.139 138.05C120.416 136.581 122.829 135.306 125.351 134.24C126.742 133.63 128.1 133.13 129.438 132.66C129.855 133.48 131.824 137.2 133.45 138.48C135.077 139.76 137.367 140.87 139.475 140.42C139.973 140.33 140.445 140.143 140.862 139.871C141.278 139.6 141.628 139.249 141.891 138.843C142.153 138.437 142.321 137.984 142.384 137.513C142.447 137.042 142.404 136.564 142.257 136.11C141.272 133.4 135.976 131.96 133.247 131.99C133.097 131.99 131.589 132.17 130.487 132.31C131.096 132.11 131.717 131.89 132.306 131.71C134.446 131.02 136.586 130.51 138.372 130.08C139.442 129.84 140.352 129.64 141.24 129.47C142.096 130.07 145.606 132.47 147.66 132.88C149.714 133.29 152.315 133.32 153.962 132.01C154.356 131.715 154.68 131.347 154.913 130.929C155.145 130.51 155.282 130.051 155.315 129.581C155.347 129.11 155.274 128.639 155.1 128.196C154.926 127.753 154.655 127.349 154.305 127.01C152.101 125.01 146.686 126.01 144.279 127.24C144.076 127.35 141.015 129.33 141.069 129.36C140.213 129.52 139.303 129.69 138.308 129.9C136.468 130.3 134.392 130.76 132.177 131.41C129.778 132.083 127.424 132.888 125.126 133.82C122.546 134.844 120.071 136.086 117.732 137.53L117.647 137.58C118.214 136.93 119.722 135.06 119.787 134.9C121.167 132.7 122.462 127.68 120.418 125.55C120.07 125.209 119.65 124.94 119.184 124.76C118.719 124.58 118.218 124.493 117.714 124.504C117.211 124.516 116.715 124.625 116.259 124.826C115.804 125.027 115.398 125.314 115.068 125.67C113.602 127.16 113.516 129.67 113.891 131.52C114.308 133.64 117.101 137.46 117.39 137.77C115.042 139.293 112.808 140.964 110.702 142.77C109.461 143.77 108.252 144.9 107.054 146C107.524 145.42 107.942 144.9 107.984 144.82C109.375 142.62 110.659 137.6 108.626 135.47C108.278 135.131 107.857 134.863 107.392 134.684C106.927 134.505 106.426 134.418 105.923 134.429C105.42 134.441 104.925 134.55 104.469 134.749C104.013 134.949 103.607 135.236 103.276 135.59C101.821 137.08 101.736 139.59 102.099 141.44C102.463 143.29 104.839 146.65 105.47 147.52L104.111 148.8C101.971 150.85 99.831 152.92 97.5947 154.88C96.8243 155.57 96.0432 156.22 95.2621 156.88L96.0646 155.88C97.4449 153.68 98.7289 148.66 96.6959 146.53C96.3481 146.189 95.928 145.92 95.4624 145.74C94.9969 145.56 94.4962 145.473 93.9925 145.484C93.4888 145.496 92.9932 145.605 92.5374 145.806C92.0817 146.007 91.6758 146.294 91.3459 146.65C89.88 148.14 89.7944 150.65 90.1582 152.5C90.522 154.35 92.6727 157.39 93.3682 158.42C92.5443 159.07 91.7204 159.73 90.8965 160.32C90.3615 160.69 89.8265 161.07 89.3236 161.41V163.16L90.0619 162.66C90.6397 162.29 91.2068 161.83 91.7846 161.41C93.1221 160.41 94.4061 159.34 95.6901 158.24C96.3107 159.17 98.5898 162.44 100.291 163.51C101.992 164.58 104.464 165.51 106.508 164.82C106.994 164.681 107.442 164.447 107.825 164.134C108.208 163.822 108.515 163.437 108.728 163.006C108.941 162.575 109.055 162.107 109.061 161.632C109.068 161.157 108.967 160.686 108.766 160.25C107.482 157.65 102.035 156.77 99.3281 157.08C99.1569 157.08 97.2416 157.53 96.193 157.79C96.9527 157.12 97.7124 156.45 98.4614 155.79C100.58 153.72 102.72 151.61 104.86 149.51Z" fill="black"/>
<path d="M90.1475 131.91C92.1912 131.91 94.7913 131.41 96.1074 129.8C96.4341 129.432 96.6736 129.004 96.8101 128.543C96.9465 128.082 96.9769 127.599 96.899 127.127C96.8211 126.654 96.6368 126.203 96.3584 125.801C96.0799 125.4 95.7135 125.059 95.2835 124.8C93.7641 123.93 91.4208 124.27 89.3129 125.03V131.82C89.5885 131.868 89.8674 131.898 90.1475 131.91Z" fill="black"/>
<path d="M94.3419 172.46C94.7995 172.253 95.2054 171.958 95.5329 171.595C95.8604 171.231 96.1022 170.807 96.2425 170.351C96.3829 169.894 96.4186 169.415 96.3474 168.944C96.2761 168.474 96.0996 168.022 95.8292 167.62C94.7592 166.03 91.8595 165.45 89.3129 165.46V172.52C90.9329 173.117 92.7387 173.095 94.3419 172.46Z" fill="black"/>
<path d="M128.036 125.26C127.833 127.49 129.673 132.26 129.673 132.26C129.673 132.26 132.637 130.18 132.808 130.03C134.756 128.25 137.42 123.73 136.018 121.17C135.78 120.75 135.45 120.382 135.049 120.09C134.648 119.797 134.186 119.586 133.693 119.471C133.2 119.356 132.686 119.339 132.185 119.422C131.684 119.504 131.208 119.684 130.786 119.95C128.999 121 128.218 123.35 128.036 125.26Z" fill="black"/>
<path d="M92.8653 144.31C93.1925 143.943 93.4327 143.515 93.57 143.055C93.7073 142.594 93.7385 142.112 93.6617 141.639C93.5848 141.167 93.4016 140.715 93.1242 140.313C92.8467 139.912 92.4813 139.57 92.0521 139.31C91.2181 138.878 90.2595 138.703 89.3129 138.81V146.16C90.6907 145.947 91.9464 145.293 92.8653 144.31Z" fill="black"/>
<path d="M93.8175 118.69C95.8612 118.69 98.4613 118.19 99.7774 116.58C100.105 116.213 100.345 115.785 100.482 115.325C100.619 114.864 100.651 114.382 100.574 113.909C100.497 113.437 100.314 112.985 100.036 112.583C99.7589 112.182 99.3935 111.84 98.9642 111.58C96.3855 110.1 91.4742 112.09 89.3342 113.73V117.59C90.7598 118.169 92.2718 118.539 93.8175 118.69Z" fill="black"/>
</g>
<path d="M343.224 343.86C343.108 343.861 342.995 343.826 342.903 343.76L317.373 325.2H98.0228C95.5763 325.187 93.2348 324.27 91.5089 322.65C89.783 321.029 88.8128 318.836 88.8101 316.55V53.2401C88.8129 50.9468 89.7889 48.7482 91.5241 47.1265C93.2592 45.5049 95.6117 44.5927 98.0656 44.5901H459.961C462.415 44.5927 464.767 45.5049 466.502 47.1265C468.238 48.7482 469.214 50.9468 469.216 53.2401V316.55C469.214 318.843 468.238 321.042 466.502 322.664C464.767 324.285 462.415 325.197 459.961 325.2H339.993L343.759 343.27C343.775 343.37 343.76 343.471 343.717 343.564C343.673 343.656 343.603 343.734 343.513 343.79C343.426 343.839 343.325 343.863 343.224 343.86ZM98.0335 45.5901C95.869 45.6006 93.7968 46.411 92.2693 47.8442C90.7418 49.2774 89.8829 51.2172 89.8801 53.2401V316.55C89.8829 318.578 90.7462 320.522 92.2807 321.957C93.8151 323.391 95.8955 324.197 98.0656 324.2H317.555C317.675 324.2 317.793 324.239 317.886 324.31L342.4 342.15L338.794 324.8C338.779 324.727 338.781 324.652 338.8 324.579C338.818 324.507 338.853 324.439 338.901 324.38C338.953 324.325 339.018 324.28 339.089 324.249C339.161 324.218 339.239 324.201 339.318 324.2H459.961C462.131 324.197 464.211 323.391 465.746 321.957C467.28 320.522 468.144 318.578 468.146 316.55V53.2401C468.144 51.212 467.28 49.2677 465.746 47.8336C464.211 46.3996 462.131 45.5927 459.961 45.5901H98.0335Z" fill="#263238"/>
<path d="M382.803 103.05H303.934C300.507 98.9942 296.142 95.7166 291.166 93.4632C286.191 91.2097 280.733 90.0391 275.204 90.0391C269.675 90.0391 264.217 91.2097 259.242 93.4632C254.266 95.7166 249.901 98.9942 246.475 103.05H167.605C165.056 103.066 162.616 104.019 160.814 105.703C159.012 107.388 157.992 109.668 157.975 112.05V267.05C157.978 269.441 158.991 271.734 160.795 273.429C162.599 275.124 165.047 276.084 167.605 276.1H382.803C385.361 276.084 387.809 275.124 389.613 273.429C391.417 271.734 392.43 269.441 392.433 267.05V112.05C392.416 109.668 391.396 107.388 389.594 105.703C387.792 104.019 385.352 103.066 382.803 103.05Z" fill="#263238"/>
<path d="M386.591 98.8501H171.403C166.351 98.8501 162.255 102.678 162.255 107.4V262.39C162.255 267.112 166.351 270.94 171.403 270.94H386.591C391.644 270.94 395.739 267.112 395.739 262.39V107.4C395.739 102.678 391.644 98.8501 386.591 98.8501Z" fill="white"/>
<path d="M386.591 271.44H171.403C168.836 271.437 166.375 270.483 164.559 268.786C162.744 267.09 161.723 264.79 161.72 262.39V107.39C161.723 104.991 162.744 102.69 164.559 100.994C166.375 99.2971 168.836 98.3427 171.403 98.3401H386.591C389.158 98.3427 391.62 99.2971 393.435 100.994C395.251 102.69 396.272 104.991 396.275 107.39V262.39C396.272 264.79 395.251 267.09 393.435 268.786C391.62 270.483 389.158 271.437 386.591 271.44ZM171.403 99.3501C169.12 99.3527 166.931 100.202 165.316 101.711C163.701 103.22 162.793 105.266 162.79 107.4V262.4C162.793 264.534 163.701 266.58 165.316 268.089C166.931 269.598 169.12 270.447 171.403 270.45H386.591C388.875 270.447 391.064 269.598 392.679 268.089C394.293 266.58 395.202 264.534 395.205 262.4V107.4C395.202 105.266 394.293 103.22 392.679 101.711C391.064 100.202 388.875 99.3527 386.591 99.3501H171.403Z" fill="#263238"/>
<path d="M390.989 369.21C392.538 369.59 394.139 369.755 395.74 369.7C395.74 369.7 395.023 367.64 394.958 367.51C394.209 366.06 391.877 363.67 389.972 363.91C389.656 363.958 389.355 364.068 389.087 364.232C388.82 364.397 388.593 364.612 388.42 364.864C388.247 365.115 388.133 365.398 388.086 365.694C388.038 365.99 388.057 366.292 388.143 366.58C388.384 367.186 388.763 367.735 389.255 368.189C389.746 368.643 390.338 368.992 390.989 369.21Z" fill="#263238"/>
<path d="M392.155 378.34C393.741 378.333 395.317 378.104 396.831 377.66C397.331 379.269 397.943 380.845 398.661 382.38C399.078 383.28 399.527 384.17 399.987 385.06L399.42 384.3C398.297 383.09 395.365 381.36 393.589 382.06C393.303 382.186 393.049 382.367 392.841 382.589C392.634 382.812 392.478 383.073 392.384 383.354C392.289 383.636 392.258 383.933 392.292 384.227C392.327 384.52 392.426 384.804 392.583 385.06C392.987 385.584 393.508 386.02 394.11 386.336C394.713 386.652 395.382 386.841 396.071 386.89C397.614 386.89 399.147 386.671 400.619 386.24L401.164 387.24C402.031 388.87 402.909 390.48 403.722 392.09C404.011 392.66 404.267 393.23 404.524 393.8C404.278 393.46 404.075 393.18 404.032 393.14C402.909 391.93 399.977 390.2 398.211 390.91C397.923 391.034 397.667 391.213 397.457 391.435C397.248 391.658 397.091 391.919 396.996 392.202C396.901 392.484 396.871 392.782 396.907 393.077C396.943 393.371 397.045 393.655 397.205 393.91C397.609 394.434 398.13 394.87 398.733 395.186C399.335 395.502 400.005 395.691 400.694 395.74C402.196 395.749 403.69 395.54 405.123 395.12C405.37 395.71 405.616 396.3 405.83 396.88C405.969 397.28 406.129 397.66 406.236 398.06C406.343 398.46 406.472 398.87 406.589 399.26C406.793 400.03 406.996 400.82 407.167 401.57C407.296 402.1 407.403 402.57 407.51 403.1C407.242 402.53 406.664 401.43 406.611 401.35C405.701 399.99 403.08 397.86 401.261 398.35C400.953 398.431 400.668 398.571 400.422 398.762C400.177 398.954 399.977 399.191 399.837 399.459C399.697 399.727 399.618 400.02 399.607 400.318C399.596 400.617 399.653 400.914 399.773 401.19C400.087 401.765 400.531 402.27 401.074 402.669C401.617 403.068 402.247 403.351 402.919 403.5C404.484 403.716 406.074 403.716 407.638 403.5C407.809 404.33 407.98 405.14 408.119 405.91C408.44 407.61 408.687 409.14 408.868 410.43H410.131C409.906 409.09 409.617 407.5 409.243 405.72C409.061 404.87 408.858 403.97 408.633 403.04C409.535 402.707 410.414 402.323 411.265 401.89C412.424 402.819 413.713 403.596 415.096 404.2C414.753 404.98 414.411 405.75 414.026 406.46C413.33 407.96 412.667 409.29 412.089 410.46H413.448C413.951 409.41 414.518 408.22 415.074 406.91C415.428 406.11 415.791 405.25 416.144 404.36C417.683 404.694 419.267 404.809 420.842 404.7C421.525 404.601 422.177 404.364 422.752 404.005C423.327 403.645 423.811 403.173 424.169 402.62C424.31 402.352 424.39 402.059 424.402 401.761C424.414 401.462 424.358 401.164 424.239 400.887C424.12 400.61 423.94 400.359 423.71 400.151C423.481 399.943 423.207 399.783 422.907 399.68C421.088 399.11 418.306 401.04 417.289 402.34C417.225 402.41 416.669 403.34 416.337 403.88C416.476 403.51 416.626 403.16 416.765 402.79C417.054 402.05 417.321 401.3 417.61 400.49C417.739 400.1 417.867 399.71 417.996 399.3C418.124 398.89 418.22 398.48 418.338 398.06C418.584 397.06 418.787 396.06 418.969 395.06C420.391 395.611 421.897 395.949 423.431 396.06C424.122 396.059 424.804 395.916 425.429 395.642C426.054 395.367 426.607 394.967 427.048 394.47C427.232 394.226 427.359 393.949 427.42 393.656C427.482 393.364 427.477 393.062 427.405 392.771C427.333 392.481 427.197 392.207 427.004 391.969C426.812 391.731 426.568 391.534 426.288 391.39C424.576 390.57 421.516 392.09 420.296 393.22C420.221 393.29 419.44 394.22 419.033 394.7C419.13 394.09 419.237 393.48 419.322 392.87C419.558 391.09 419.74 389.28 419.922 387.47C419.986 386.92 420.05 386.37 420.103 385.82C421.58 386.362 423.134 386.699 424.715 386.82C425.407 386.816 426.089 386.672 426.715 386.397C427.342 386.123 427.897 385.724 428.342 385.23C428.527 384.986 428.653 384.709 428.715 384.416C428.777 384.124 428.771 383.822 428.7 383.531C428.628 383.241 428.491 382.967 428.299 382.729C428.106 382.491 427.862 382.294 427.583 382.15C425.871 381.32 422.811 382.84 421.591 383.97C421.494 384.06 420.382 385.36 420.114 385.7C420.253 384.49 420.403 383.28 420.606 382.1C420.852 380.497 421.21 378.91 421.676 377.35C423.162 377.898 424.728 378.235 426.32 378.35C427.011 378.349 427.693 378.206 428.318 377.932C428.943 377.657 429.496 377.257 429.937 376.76C430.121 376.516 430.248 376.239 430.309 375.946C430.371 375.654 430.366 375.352 430.294 375.061C430.222 374.771 430.086 374.497 429.893 374.259C429.701 374.021 429.457 373.824 429.177 373.68C427.465 372.86 424.405 374.38 423.185 375.51C423.089 375.6 421.89 377 421.698 377.27C421.698 377.18 421.698 377.08 421.773 376.99C422.296 375.439 422.969 373.937 423.784 372.5C424.223 371.7 424.683 370.96 425.154 370.25C426.534 370.934 428.016 371.42 429.552 371.69C430.238 371.76 430.933 371.689 431.587 371.482C432.242 371.274 432.84 370.936 433.339 370.49C433.551 370.266 433.71 370.002 433.806 369.716C433.901 369.431 433.931 369.13 433.894 368.832C433.856 368.535 433.752 368.249 433.589 367.992C433.425 367.735 433.205 367.513 432.943 367.34C431.338 366.34 428.118 367.54 426.77 368.54L425.539 369.69C425.753 369.37 425.978 369.04 426.192 368.74C426.994 367.61 427.807 366.62 428.535 365.74C428.952 365.24 429.338 364.81 429.701 364.4C431.256 364.416 432.804 364.21 434.292 363.79C434.934 363.554 435.514 363.191 435.99 362.725C436.467 362.258 436.829 361.701 437.052 361.09C437.13 360.801 437.142 360.499 437.087 360.205C437.032 359.911 436.911 359.631 436.733 359.384C436.554 359.137 436.321 358.927 436.05 358.77C435.779 358.612 435.475 358.51 435.158 358.47C433.243 358.28 430.975 360.73 430.268 362.19C430.215 362.32 429.509 364.4 429.552 364.4C429.198 364.79 428.813 365.2 428.407 365.66C427.658 366.52 426.812 367.5 425.988 368.66C425.073 369.856 424.233 371.102 423.474 372.39C422.618 373.831 421.902 375.34 421.334 376.9C421.334 376.9 421.334 376.9 421.334 376.95C421.334 376.43 421.334 374.95 421.334 374.84C421.109 373.25 419.686 370.3 417.792 369.97C417.477 369.925 417.155 369.942 416.847 370.021C416.54 370.099 416.253 370.237 416.006 370.425C415.759 370.614 415.557 370.849 415.413 371.115C415.269 371.381 415.187 371.672 415.171 371.97C415.196 372.616 415.372 373.248 415.686 373.823C416 374.398 416.445 374.903 416.99 375.3C418.311 376.108 419.753 376.728 421.27 377.14C420.734 378.739 420.312 380.369 420.007 382.02C419.825 383.02 419.675 383.96 419.526 384.94C419.526 384.48 419.526 384.07 419.526 384.02C419.301 382.42 417.878 379.47 415.984 379.14C415.669 379.095 415.347 379.112 415.039 379.191C414.731 379.269 414.445 379.407 414.197 379.595C413.95 379.784 413.748 380.019 413.605 380.285C413.461 380.551 413.378 380.842 413.362 381.14C413.39 381.786 413.567 382.419 413.883 382.994C414.199 383.569 414.646 384.073 415.192 384.47C416.482 385.265 417.892 385.875 419.376 386.28L419.215 387.4C418.991 389.21 418.766 391.01 418.488 392.77C418.391 393.39 418.274 393.99 418.156 394.6C418.156 394.2 418.156 393.86 418.156 393.8C417.931 392.21 416.508 389.26 414.614 388.93C414.299 388.885 413.977 388.902 413.669 388.981C413.362 389.059 413.075 389.197 412.828 389.386C412.581 389.574 412.379 389.809 412.235 390.075C412.091 390.341 412.009 390.632 411.993 390.93C412.02 391.576 412.198 392.209 412.514 392.784C412.83 393.359 413.276 393.863 413.823 394.26C415.071 395.038 416.438 395.635 417.878 396.03C417.739 396.65 417.6 397.27 417.439 397.86C417.311 398.27 417.225 398.66 417.075 399.06C416.926 399.46 416.808 399.85 416.669 400.24C416.38 400.98 416.091 401.75 415.781 402.47C415.577 402.97 415.374 403.47 415.171 403.92C415.267 403.3 415.449 402.09 415.449 401.99C415.43 400.583 415.02 399.205 414.261 397.99C414.277 397.834 414.277 397.676 414.261 397.52C414.22 397.223 414.113 396.938 413.947 396.683C413.78 396.427 413.558 396.208 413.295 396.038C413.031 395.868 412.732 395.752 412.418 395.697C412.103 395.642 411.78 395.65 411.469 395.72C409.617 396.18 408.44 399.23 408.344 400.83C408.344 400.93 408.408 401.96 408.462 402.61C408.366 402.23 408.28 401.86 408.184 401.47C407.991 400.71 407.766 399.94 407.542 399.13L407.156 397.94C407.028 397.54 406.857 397.13 406.707 396.72C406.333 395.78 405.915 394.85 405.466 393.92C406.966 393.622 408.409 393.113 409.746 392.41C410.322 392.053 410.807 391.583 411.168 391.031C411.528 390.48 411.755 389.862 411.832 389.22C411.841 388.922 411.782 388.625 411.66 388.349C411.537 388.074 411.354 387.825 411.121 387.62C410.889 387.416 410.613 387.259 410.312 387.161C410.01 387.062 409.69 387.025 409.371 387.05C407.456 387.24 405.798 390.05 405.455 391.66C405.455 391.76 405.316 392.91 405.273 393.54C404.995 392.99 404.728 392.43 404.428 391.87C403.583 390.26 402.662 388.66 401.753 387.06L400.929 385.58C402.484 385.284 403.981 384.768 405.37 384.05C405.945 383.69 406.43 383.217 406.79 382.665C407.15 382.112 407.377 381.493 407.456 380.85C407.465 380.552 407.406 380.255 407.283 379.979C407.161 379.704 406.977 379.455 406.745 379.25C406.513 379.046 406.237 378.889 405.935 378.791C405.634 378.692 405.313 378.655 404.995 378.68C403.09 378.87 401.432 381.68 401.079 383.29C401.079 383.41 400.897 385.07 400.876 385.49C400.276 384.41 399.688 383.32 399.153 382.23C398.422 380.759 397.793 379.246 397.27 377.7C398.835 377.402 400.344 376.883 401.742 376.16C402.317 375.802 402.802 375.331 403.162 374.78C403.523 374.229 403.75 373.612 403.829 372.97C403.837 372.672 403.779 372.376 403.657 372.101C403.535 371.825 403.353 371.577 403.122 371.371C402.891 371.166 402.616 371.008 402.316 370.908C402.016 370.808 401.696 370.768 401.378 370.79C399.463 370.99 397.805 373.79 397.462 375.4C397.462 375.53 397.259 377.31 397.248 377.64C397.248 377.55 397.184 377.46 397.152 377.37C396.677 375.807 396.351 374.207 396.178 372.59C396.071 371.69 396.028 370.84 395.996 370C397.551 369.865 399.074 369.508 400.512 368.94C401.13 368.637 401.669 368.212 402.092 367.694C402.516 367.175 402.812 366.577 402.962 365.94C403.004 365.644 402.979 365.343 402.889 365.056C402.799 364.769 402.646 364.504 402.439 364.276C402.233 364.048 401.977 363.863 401.689 363.733C401.402 363.602 401.088 363.53 400.769 363.52C398.853 363.52 396.863 366.18 396.339 367.71C396.339 367.79 396.114 368.66 395.986 369.3C395.986 368.92 395.986 368.53 395.986 368.17C395.986 366.81 396.082 365.57 396.178 364.47C396.232 363.84 396.296 363.28 396.36 362.75C397.663 361.961 398.831 360.993 399.827 359.88C400.223 359.351 400.492 358.749 400.616 358.113C400.74 357.478 400.715 356.826 400.544 356.2C400.436 355.918 400.266 355.66 400.045 355.443C399.823 355.226 399.555 355.056 399.258 354.943C398.961 354.829 398.642 354.776 398.321 354.786C398.001 354.796 397.686 354.869 397.398 355C395.686 355.83 395.258 359 395.526 360.62C395.526 360.76 396.189 362.86 396.221 362.84C396.146 363.35 396.071 363.84 396.007 364.49C395.889 365.59 395.772 366.83 395.74 368.2C395.681 369.667 395.717 371.137 395.847 372.6C395.98 374.245 396.273 375.875 396.724 377.47C396.724 377.47 396.724 377.47 396.724 377.52C396.424 377.08 395.536 375.86 395.461 375.78C394.338 374.56 391.395 372.84 389.63 373.54C389.343 373.665 389.087 373.845 388.879 374.067C388.671 374.29 388.514 374.551 388.42 374.833C388.325 375.115 388.294 375.413 388.33 375.707C388.365 376.001 388.465 376.284 388.624 376.54C389.035 377.064 389.565 377.496 390.175 377.807C390.785 378.119 391.461 378.3 392.155 378.34Z" fill="#263238"/>
<path d="M425.122 369.9C425.122 369.9 425.742 367.81 425.753 367.67C425.999 366.08 425.453 362.88 423.72 362.1C423.429 361.977 423.114 361.913 422.794 361.912C422.475 361.911 422.159 361.973 421.867 362.094C421.576 362.215 421.314 362.392 421.101 362.613C420.887 362.835 420.726 363.096 420.628 363.38C420.469 364.009 420.46 364.663 420.603 365.296C420.745 365.929 421.035 366.524 421.452 367.04C422.517 368.158 423.754 369.122 425.122 369.9Z" fill="#263238"/>
<path d="M418.177 408.19H403.861L405.284 439.15H416.744L418.177 408.19Z" fill="#263238"/>
<path d="M436.432 440.07H251.086V473.63H436.432V440.07Z" fill="white"/>
<path d="M436.432 474.13H251.086C250.944 474.13 250.808 474.077 250.708 473.984C250.608 473.89 250.551 473.763 250.551 473.63V440.07C250.551 439.937 250.608 439.81 250.708 439.717C250.808 439.623 250.944 439.57 251.086 439.57H436.432C436.574 439.57 436.71 439.623 436.81 439.717C436.91 439.81 436.967 439.937 436.967 440.07V473.63C436.967 473.763 436.91 473.89 436.81 473.984C436.71 474.077 436.574 474.13 436.432 474.13ZM251.621 473.13H435.897V440.57H251.621V473.13Z" fill="#263238"/>
<path d="M436.432 440.07H251.086V451.27H436.432V440.07Z" fill="#263238"/>
<path d="M436.432 451.77H251.086C250.944 451.77 250.808 451.717 250.708 451.624C250.608 451.53 250.551 451.403 250.551 451.27V440.07C250.551 439.937 250.608 439.81 250.708 439.717C250.808 439.623 250.944 439.57 251.086 439.57H436.432C436.574 439.57 436.71 439.623 436.81 439.717C436.91 439.81 436.967 439.937 436.967 440.07V451.27C436.967 451.403 436.91 451.53 436.81 451.624C436.71 451.717 436.574 451.77 436.432 451.77ZM251.621 450.77H435.897V440.57H251.621V450.77Z" fill="#263238"/>
<path d="M441.889 440.07H245.629V446.04H441.889V440.07Z" fill="white"/>
<path d="M441.91 446.54H245.629C245.487 446.54 245.351 446.487 245.251 446.394C245.151 446.3 245.094 446.173 245.094 446.04V440.04C245.094 439.907 245.151 439.78 245.251 439.686C245.351 439.593 245.487 439.54 245.629 439.54H441.91C442.052 439.54 442.188 439.593 442.288 439.686C442.389 439.78 442.445 439.907 442.445 440.04V446.04C442.445 446.173 442.389 446.3 442.288 446.394C442.188 446.487 442.052 446.54 441.91 446.54ZM246.186 445.54H441.354V440.54H246.164L246.186 445.54Z" fill="#263238"/>
<path d="M373.815 428.72L350.671 374.88C350.623 374.665 350.524 374.462 350.382 374.287C350.241 374.111 350.059 373.967 349.851 373.864C349.644 373.761 349.414 373.702 349.179 373.691C348.944 373.681 348.709 373.718 348.492 373.802C348.274 373.885 348.078 374.013 347.919 374.174C347.76 374.336 347.641 374.529 347.57 374.739C347.499 374.948 347.479 375.17 347.51 375.388C347.541 375.606 347.623 375.815 347.75 376L370.883 429.84C371.17 430.528 371.308 431.262 371.29 432C371.287 433.528 370.637 434.992 369.482 436.074C368.328 437.155 366.762 437.765 365.127 437.77H346.616V440.77H365.127C367.614 440.767 369.998 439.842 371.755 438.198C373.513 436.553 374.5 434.324 374.5 432C374.501 430.875 374.269 429.762 373.815 428.72Z" fill="#263238"/>
<path d="M357.494 321.615L351.374 321.043L340.42 423.413L346.541 423.985L357.494 321.615Z" fill="white"/>
<path d="M345.867 421.73H345.813L339.714 421.17C339.644 421.164 339.576 421.145 339.513 421.114C339.451 421.083 339.395 421.041 339.35 420.99C339.264 420.884 339.222 420.753 339.233 420.62L349.933 318.75C349.949 318.62 350.018 318.501 350.125 318.417C350.233 318.333 350.371 318.291 350.511 318.3L356.61 318.86C356.681 318.864 356.75 318.882 356.813 318.913C356.875 318.944 356.93 318.987 356.973 319.04C357.059 319.142 357.101 319.27 357.091 319.4L346.391 421.28C346.38 421.403 346.32 421.517 346.223 421.601C346.126 421.684 345.999 421.73 345.867 421.73ZM340.346 420.22L345.385 420.68L355.989 319.8L350.949 319.34L340.346 420.22Z" fill="#263238"/>
<path d="M326.083 434.55L266.302 437.01V439.82H326.083V434.55Z" fill="white"/>
<path d="M326.082 440.32H266.302C266.16 440.32 266.024 440.267 265.923 440.174C265.823 440.08 265.767 439.953 265.767 439.82V437C265.766 436.871 265.82 436.747 265.916 436.653C266.011 436.56 266.142 436.505 266.28 436.5L326.061 434.04C326.134 434.036 326.207 434.046 326.275 434.07C326.343 434.094 326.405 434.132 326.457 434.18C326.509 434.226 326.55 434.282 326.578 434.344C326.606 434.406 326.619 434.473 326.617 434.54V439.81C326.619 439.877 326.606 439.943 326.58 440.004C326.554 440.066 326.514 440.123 326.465 440.17C326.415 440.218 326.355 440.255 326.29 440.281C326.224 440.307 326.154 440.32 326.082 440.32ZM266.837 439.32H325.547V435.07L266.837 437.49V439.32Z" fill="#263238"/>
<path d="M157.718 430.22L152.111 473.51H246.806L218.387 460.74C218.387 460.74 221.233 457.02 221.511 454.62C221.79 452.22 214.021 439.14 213.315 437.96L212.684 434.02C212.684 434.02 211.325 415.39 212.106 411.77C212.887 408.15 214.813 399.65 210.94 390.06C207.066 380.47 197.03 364.01 197.03 364.01L167.07 355.87C167.07 355.87 153.331 373.6 155.845 392.41C157.369 404.96 157.994 417.592 157.718 430.22Z" fill="#B2B2B2"/>
<path d="M246.806 474H152.111C152.036 474.001 151.961 473.986 151.892 473.957C151.823 473.928 151.761 473.886 151.711 473.833C151.661 473.78 151.625 473.717 151.603 473.649C151.582 473.581 151.576 473.51 151.587 473.44L157.183 430.17C157.426 417.577 156.779 404.983 155.246 392.47C152.732 373.68 166.428 355.75 166.567 355.57C166.634 355.488 166.726 355.427 166.831 355.393C166.935 355.359 167.048 355.355 167.155 355.38L197.115 363.52C197.182 363.539 197.243 363.57 197.296 363.611C197.349 363.652 197.393 363.703 197.426 363.76C197.522 363.92 207.559 380.36 211.4 389.88C215.241 399.4 213.412 407.99 212.63 411.65V411.86C211.871 415.37 213.198 433.79 213.219 433.97L213.829 437.78C215.894 441.27 222.325 452.38 222.046 454.67C221.811 456.67 219.971 459.42 219.179 460.54L246.999 473.05C247.108 473.099 247.196 473.182 247.248 473.284C247.301 473.387 247.314 473.502 247.287 473.613C247.259 473.723 247.193 473.822 247.098 473.892C247.003 473.962 246.885 474.001 246.763 474H246.806ZM152.721 473H244.463L218.152 461.18C218.082 461.149 218.02 461.104 217.97 461.049C217.921 460.994 217.884 460.929 217.863 460.86C217.832 460.715 217.863 460.564 217.948 460.44C217.948 460.44 220.72 456.8 220.987 454.56C221.158 453.07 216.889 445.03 212.844 438.19C212.838 438.134 212.838 438.077 212.844 438.02L212.202 434.08C212.149 433.28 210.854 415.3 211.635 411.66V411.46C212.395 407.88 214.193 399.46 210.448 390.23C206.852 381.32 197.747 366.23 196.655 364.43L167.23 356.43C165.508 358.78 154.027 375.21 156.316 392.32C157.855 404.893 158.505 417.547 158.264 430.2L152.721 473Z" fill="#263238"/>
<path d="M246.806 473.51L218.387 460.74L194.804 473.51H246.806Z" fill="#263238"/>
<path d="M246.806 474H194.804C194.687 473.999 194.574 473.962 194.482 473.895C194.39 473.828 194.323 473.735 194.293 473.63C194.263 473.524 194.27 473.413 194.314 473.312C194.358 473.211 194.436 473.126 194.537 473.07L218.077 460.3C218.155 460.263 218.241 460.244 218.328 460.244C218.416 460.244 218.502 460.263 218.58 460.3L246.999 473.07C247.108 473.119 247.196 473.202 247.248 473.304C247.301 473.407 247.314 473.522 247.287 473.633C247.259 473.743 247.193 473.842 247.098 473.912C247.003 473.982 246.885 474.02 246.763 474.02L246.806 474ZM196.794 473H244.463L218.408 461.3L196.794 473Z" fill="#263238"/>
<path d="M180.242 471.62C180.1 471.638 179.956 471.604 179.841 471.523C179.727 471.442 179.652 471.323 179.632 471.19C179.612 471.057 179.649 470.923 179.735 470.816C179.822 470.709 179.95 470.638 180.092 470.62L218.28 460.26C218.416 460.225 218.561 460.242 218.685 460.305C218.809 460.368 218.901 460.474 218.943 460.6C218.983 460.727 218.967 460.864 218.899 460.98C218.831 461.097 218.716 461.183 218.58 461.22L180.391 471.6L180.242 471.62Z" fill="#263238"/>
<path d="M178.251 473.22C178.171 473.219 178.092 473.201 178.02 473.169C177.948 473.136 177.884 473.088 177.834 473.03C177.789 472.98 177.755 472.922 177.734 472.859C177.713 472.796 177.706 472.731 177.713 472.665C177.72 472.6 177.741 472.537 177.775 472.479C177.808 472.421 177.854 472.371 177.909 472.33L185.88 466.21C185.99 466.127 186.13 466.088 186.27 466.101C186.411 466.114 186.54 466.179 186.629 466.28C186.675 466.33 186.709 466.388 186.73 466.451C186.75 466.514 186.758 466.58 186.751 466.645C186.744 466.71 186.723 466.773 186.689 466.831C186.655 466.889 186.61 466.939 186.555 466.98L178.583 473.1C178.492 473.176 178.374 473.219 178.251 473.22Z" fill="#263238"/>
<path d="M218.537 299.8C219.798 303.161 220.589 306.66 220.891 310.21C221.533 316.64 220.174 320.15 221.897 322.13C223.619 324.11 225.321 324.64 224.315 326.73C223.309 328.82 219.061 330.22 219.061 330.22C219.061 330.22 215.006 338.74 212.566 341.42C210.127 344.1 200.893 341.42 200.893 341.42L197.747 350.57L176.25 340.85L179.032 331.49L174.752 319.25C174.752 319.25 184.575 292 218.537 299.8Z" fill="white"/>
<path d="M197.747 351C197.669 351.015 197.589 351.015 197.511 351L176.015 341.28C175.902 341.23 175.811 341.145 175.758 341.039C175.706 340.933 175.694 340.813 175.726 340.7L178.476 331.48L174.196 319.39C174.164 319.285 174.164 319.174 174.196 319.07C174.292 318.79 184.575 291.48 218.622 299.34C218.704 299.36 218.779 299.398 218.842 299.45C218.905 299.502 218.955 299.567 218.986 299.64C220.274 303.043 221.076 306.591 221.372 310.19C221.582 312.381 221.628 314.583 221.511 316.78C221.437 319.2 221.383 320.78 222.271 321.84C222.665 322.28 223.083 322.7 223.523 323.1C224.668 324.17 225.663 325.1 224.754 326.96C223.844 328.82 220.334 330.31 219.404 330.64C218.772 331.95 215.198 339.25 212.919 341.76C210.64 344.27 203.289 342.6 201.149 342.02L198.153 350.7C198.132 350.769 198.093 350.833 198.042 350.887C197.99 350.941 197.925 350.983 197.854 351.01C197.818 351.01 197.782 351.007 197.747 351ZM176.882 340.52L197.426 349.8L200.39 341.19C200.41 341.128 200.444 341.07 200.489 341.021C200.533 340.971 200.588 340.93 200.65 340.9C200.712 340.87 200.779 340.852 200.848 340.847C200.917 340.842 200.987 340.85 201.053 340.87C203.535 341.6 210.351 343.05 212.16 341.06C214.514 338.47 218.526 330.06 218.58 329.99C218.61 329.928 218.652 329.872 218.706 329.826C218.759 329.779 218.822 329.743 218.89 329.72C220.013 329.35 223.084 328.04 223.833 326.49C224.433 325.26 223.93 324.79 222.763 323.76C222.367 323.38 221.907 322.95 221.447 322.42C220.302 321.1 220.377 319.25 220.441 316.69C220.552 314.536 220.509 312.378 220.313 310.23C220.003 306.825 219.256 303.468 218.087 300.23C186.18 293.02 176.186 316.83 175.287 319.23L179.567 331.31C179.599 331.404 179.599 331.506 179.567 331.6L176.882 340.52Z" fill="#263238"/>
<path d="M200.893 341.38L196.249 339.05L198.678 346.42L200.893 341.38Z" fill="#263238"/>
<path d="M198.678 346.92C198.566 346.916 198.458 346.879 198.369 346.814C198.281 346.75 198.217 346.661 198.185 346.56L195.757 339.2C195.727 339.104 195.727 339.002 195.757 338.906C195.788 338.811 195.847 338.725 195.928 338.66C196.011 338.597 196.112 338.558 196.219 338.549C196.326 338.54 196.433 338.561 196.527 338.61L201.171 340.94C201.288 340.998 201.378 341.094 201.424 341.211C201.469 341.327 201.467 341.455 201.417 341.57L199.191 346.57C199.156 346.671 199.087 346.759 198.995 346.822C198.903 346.885 198.792 346.919 198.678 346.92ZM197.148 340.06L198.753 344.94L200.218 341.61L197.148 340.06Z" fill="#263238"/>
<path d="M214.235 333C210.94 333 208.49 330 208.393 329.91C208.345 329.859 208.309 329.799 208.286 329.734C208.264 329.669 208.256 329.6 208.263 329.532C208.27 329.464 208.292 329.398 208.328 329.339C208.363 329.279 208.411 329.227 208.469 329.185C208.527 329.143 208.593 329.113 208.664 329.096C208.734 329.079 208.808 329.076 208.88 329.087C208.952 329.098 209.021 329.122 209.083 329.159C209.145 329.195 209.198 329.243 209.239 329.3C209.239 329.3 211.518 332.09 214.321 332C214.461 332 214.596 332.051 214.696 332.143C214.796 332.234 214.853 332.359 214.856 332.49C214.859 332.556 214.848 332.622 214.822 332.684C214.797 332.745 214.759 332.802 214.71 332.849C214.661 332.897 214.603 332.935 214.537 332.961C214.472 332.987 214.402 333 214.332 333H214.235Z" fill="#263238"/>
<path d="M218.28 317.78C218.12 319.17 217.435 320.25 216.75 320.18C216.065 320.11 215.616 318.93 215.776 317.54C215.937 316.15 216.611 315.08 217.306 315.14C218.002 315.2 218.451 316.39 218.28 317.78Z" fill="#263238"/>
<path d="M214.749 313.39C214.638 313.389 214.53 313.358 214.439 313.3C214.326 313.22 214.25 313.103 214.229 312.972C214.207 312.842 214.24 312.708 214.321 312.6C214.68 312.131 215.139 311.737 215.67 311.442C216.2 311.148 216.79 310.96 217.403 310.89C217.933 310.919 218.448 311.066 218.906 311.318C219.364 311.57 219.751 311.92 220.035 312.34C220.088 312.391 220.129 312.451 220.155 312.518C220.181 312.584 220.192 312.656 220.187 312.726C220.181 312.797 220.159 312.866 220.123 312.928C220.087 312.991 220.037 313.045 219.977 313.088C219.916 313.131 219.846 313.162 219.772 313.177C219.698 313.193 219.622 313.194 219.547 313.18C219.473 313.166 219.402 313.137 219.341 313.096C219.279 313.055 219.227 313.001 219.19 312.94C218.999 312.646 218.737 312.397 218.424 312.215C218.112 312.033 217.759 311.921 217.392 311.89C216.496 312.032 215.696 312.499 215.166 313.19C215.117 313.25 215.054 313.299 214.982 313.334C214.91 313.369 214.83 313.388 214.749 313.39Z" fill="#263238"/>
<path d="M188.427 281.8C188.427 281.8 171.435 280.52 166.856 290.26C162.276 300 162.148 313.45 163.967 318.17C165.786 322.89 171.457 329.98 173.715 332.02C175.972 334.06 179.749 335.52 183.013 334.19C186.276 332.86 190.225 327.07 191.22 323.35C192.215 319.63 191.626 316.11 192.611 316.03C194.97 316.192 197.342 316.054 199.662 315.62C204.424 314.8 214.011 310.82 219.232 304.05C224.454 297.28 223.512 289.74 221.533 286.82C219.553 283.9 198.357 276.39 188.427 281.8Z" fill="#263238"/>
<path d="M180.37 335.2C177.74 335.102 175.241 334.102 173.351 332.39C170.954 330.27 165.272 323.04 163.464 318.34C161.559 313.34 161.741 299.9 166.374 290.06C170.858 280.52 186.394 281.17 188.299 281.29C198.346 276.01 219.682 283.21 221.982 286.55C224.122 289.7 224.914 297.55 219.671 304.35C214.535 310.99 204.937 315.22 199.758 316.11C197.704 316.53 195.597 316.675 193.499 316.54C193.178 316.54 192.942 316.54 192.739 316.54C192.54 317.242 192.435 317.964 192.429 318.69C192.352 320.306 192.119 321.913 191.733 323.49C190.663 327.42 186.651 333.28 183.227 334.67C182.323 335.025 181.351 335.205 180.37 335.2ZM186.587 282.25C182.157 282.25 170.858 283 167.327 290.46C162.875 299.93 162.651 313.31 164.448 318C166.246 322.69 171.735 329.6 174.078 331.66C176.218 333.58 179.771 334.96 182.788 333.74C185.806 332.52 189.722 326.84 190.685 323.23C191.053 321.708 191.275 320.159 191.348 318.6C191.487 316.74 191.573 315.6 192.547 315.53C192.881 315.5 193.218 315.5 193.552 315.53C195.564 315.648 197.584 315.507 199.555 315.11C204.563 314.25 213.829 310.16 218.815 303.74C223.801 297.32 223.095 289.99 221.105 287.07C219.115 284.15 198.228 277.07 188.716 282.21C188.617 282.259 188.507 282.283 188.395 282.28C188.395 282.28 187.678 282.25 186.587 282.25Z" fill="#263238"/>
<path d="M188.16 278.86C188.16 278.86 188.363 282.34 186.02 284.47C183.676 286.6 171.853 291.1 171.853 291.1C171.853 291.1 167.969 299.82 166.503 302.41C165.037 305 163.421 305.57 161.581 304.66C159.74 303.75 151.255 299.48 151.822 297.9C152.389 296.32 154.251 295.22 154.305 293.05C154.358 290.88 152.678 288.34 154.016 286.84C155.343 285.488 156.774 284.228 158.296 283.07C158.296 283.07 155.621 275.54 157.9 274.3C160.179 273.06 165.55 273.77 166.941 273.54C168.332 273.31 170.387 266.96 176.764 267.4C178.558 267.482 180.302 267.983 181.837 268.856C183.371 269.729 184.647 270.948 185.549 272.4C186.236 272.261 186.955 272.365 187.566 272.692C188.176 273.019 188.636 273.545 188.855 274.17C189.226 275.761 188.98 277.423 188.16 278.86Z" fill="white"/>
<path d="M163.132 305.56C162.498 305.55 161.876 305.392 161.324 305.1C154.176 301.6 150.806 299.1 151.298 297.74C151.577 297.076 151.963 296.455 152.443 295.9C153.205 295.091 153.666 294.074 153.759 293C153.724 292.194 153.588 291.396 153.352 290.62C152.978 289.14 152.582 287.62 153.599 286.48C154.861 285.175 156.231 283.964 157.697 282.86C157.065 281.01 155.3 275.11 157.697 273.86C159.398 272.94 162.512 273.01 164.78 273.06C165.493 273.105 166.208 273.105 166.92 273.06C167.378 272.683 167.775 272.245 168.097 271.76C169.595 269.83 172.11 266.6 176.882 266.91C178.708 266.998 180.484 267.498 182.057 268.369C183.63 269.24 184.953 270.455 185.913 271.91C186.681 271.821 187.458 271.991 188.105 272.389C188.751 272.786 189.226 273.386 189.444 274.08C189.846 275.744 189.604 277.488 188.759 279C188.817 281.162 187.973 283.26 186.405 284.85C184.136 286.9 173.929 290.85 172.291 291.51C171.692 292.83 168.365 300.27 167.016 302.66C166.494 303.785 165.592 304.719 164.448 305.32C164.036 305.495 163.585 305.578 163.132 305.56ZM162.982 274C161.349 273.895 159.71 274.134 158.189 274.7C156.883 275.41 157.772 279.91 158.82 282.87C158.855 282.967 158.858 283.072 158.827 283.17C158.797 283.269 158.734 283.356 158.649 283.42C157.13 284.553 155.7 285.786 154.369 287.11C153.695 287.87 153.994 289.04 154.369 290.38C154.627 291.24 154.771 292.127 154.797 293.02C154.698 294.283 154.165 295.483 153.278 296.44C152.861 296.916 152.526 297.449 152.282 298.02C152.165 298.69 155.696 301.19 161.784 304.18C162.099 304.37 162.458 304.484 162.831 304.514C163.204 304.544 163.58 304.487 163.924 304.35C164.847 303.838 165.571 303.064 165.989 302.14C167.423 299.6 171.275 290.96 171.339 290.87C171.367 290.809 171.408 290.753 171.46 290.707C171.511 290.66 171.572 290.624 171.639 290.6C171.746 290.6 183.345 286.12 185.624 284.07C186.987 282.636 187.708 280.767 187.635 278.85C187.633 278.755 187.659 278.662 187.71 278.58C188.45 277.27 188.684 275.762 188.374 274.31C188.2 273.798 187.826 273.366 187.326 273.1C186.826 272.835 186.237 272.756 185.677 272.88C185.563 272.9 185.444 272.884 185.34 272.836C185.235 272.787 185.151 272.708 185.099 272.61C184.249 271.225 183.039 270.063 181.579 269.233C180.12 268.402 178.46 267.93 176.753 267.86C172.58 267.57 170.333 270.42 168.921 272.3C168.183 273.3 167.69 273.89 167.059 273.99C166.283 274.047 165.503 274.047 164.727 273.99C164.192 274.06 163.603 274 162.982 274Z" fill="#263238"/>
<path d="M171.714 275H171.596L166.845 274C166.703 273.971 166.58 273.89 166.501 273.776C166.423 273.661 166.397 273.523 166.428 273.39C166.459 273.257 166.545 273.142 166.668 273.069C166.79 272.996 166.939 272.971 167.081 273L171.831 274C171.973 274.015 172.103 274.081 172.192 274.185C172.282 274.289 172.323 274.422 172.307 274.555C172.292 274.688 172.221 274.809 172.109 274.892C171.998 274.976 171.856 275.015 171.714 275Z" fill="#263238"/>
<path d="M156.584 294C156.507 293.999 156.431 293.984 156.362 293.955C156.292 293.925 156.229 293.883 156.177 293.83C156.079 293.735 156.023 293.607 156.023 293.475C156.023 293.342 156.079 293.215 156.177 293.12C159.195 290.66 167.134 281.5 169.456 277.81C171.778 274.12 171.446 271.81 171.446 271.81C171.431 271.679 171.472 271.547 171.56 271.444C171.648 271.341 171.777 271.275 171.917 271.26C172.057 271.246 172.198 271.284 172.308 271.367C172.418 271.449 172.489 271.569 172.505 271.7C172.505 271.81 172.794 274.48 170.365 278.36C167.937 282.24 159.944 291.41 156.873 293.92C156.786 293.971 156.686 293.999 156.584 294Z" fill="#263238"/>
<path d="M158.36 283.57C158.256 283.571 158.153 283.543 158.066 283.49C157.978 283.437 157.909 283.361 157.867 283.272C157.825 283.182 157.812 283.083 157.829 282.987C157.846 282.891 157.893 282.802 157.964 282.73C159.208 281.537 160.757 280.661 162.466 280.187C164.174 279.713 165.984 279.655 167.723 280.02C167.793 280.036 167.859 280.064 167.918 280.104C167.976 280.144 168.025 280.194 168.063 280.251C168.101 280.309 168.126 280.373 168.138 280.44C168.149 280.506 168.146 280.574 168.129 280.64C168.112 280.706 168.082 280.768 168.039 280.822C167.997 280.877 167.943 280.923 167.882 280.958C167.82 280.994 167.752 281.017 167.68 281.028C167.609 281.038 167.536 281.036 167.466 281.02C165.913 280.707 164.301 280.764 162.779 281.187C161.257 281.61 159.873 282.385 158.756 283.44C158.646 283.528 158.505 283.575 158.36 283.57Z" fill="#263238"/>
<path d="M160.243 299.58H160.158C160.088 299.57 160.021 299.548 159.961 299.514C159.901 299.48 159.848 299.435 159.806 299.382C159.765 299.329 159.735 299.269 159.718 299.205C159.701 299.141 159.698 299.075 159.708 299.01C160.147 296.31 163.068 293.96 166.449 291.25C168.443 289.706 170.337 288.054 172.12 286.3C177.096 281.21 184.179 273.38 184.243 273.3C184.336 273.198 184.467 273.134 184.61 273.123C184.752 273.112 184.894 273.154 185.003 273.24C185.112 273.326 185.18 273.449 185.193 273.583C185.205 273.716 185.16 273.848 185.067 273.95C184.992 274.03 177.909 281.87 172.912 286.95C171.1 288.724 169.174 290.394 167.145 291.95C163.935 294.54 161.142 296.78 160.725 299.11C160.718 299.229 160.665 299.342 160.577 299.428C160.489 299.514 160.37 299.568 160.243 299.58Z" fill="#263238"/>
<path d="M179.086 280.49C179.006 280.488 178.927 280.47 178.855 280.438C178.783 280.405 178.72 280.358 178.669 280.3C178.581 280.196 178.541 280.065 178.557 279.933C178.573 279.802 178.644 279.682 178.754 279.6C179 279.41 184.907 275 188.545 278.52C188.631 278.617 188.674 278.741 188.666 278.867C188.658 278.993 188.6 279.112 188.502 279.199C188.405 279.286 188.276 279.336 188.141 279.338C188.006 279.34 187.875 279.294 187.774 279.21C184.821 276.35 179.482 280.33 179.428 280.38C179.329 280.449 179.21 280.487 179.086 280.49Z" fill="#263238"/>
<path d="M198.357 320.4C198.357 320.4 194.612 312.04 190.674 314.2C186.737 316.36 187.86 325.57 189.722 328.11C191.584 330.65 195.125 328.45 195.125 328.45" fill="white"/>
<path d="M192.193 329.84C191.616 329.853 191.044 329.727 190.533 329.475C190.021 329.223 189.588 328.853 189.272 328.4C187.881 326.48 186.94 321.4 187.828 317.67C187.947 316.889 188.237 316.139 188.681 315.468C189.125 314.797 189.712 314.219 190.407 313.77C190.798 313.544 191.239 313.404 191.696 313.359C192.154 313.314 192.616 313.366 193.049 313.51C196.259 314.51 198.742 319.98 198.849 320.21C198.884 320.272 198.905 320.339 198.91 320.409C198.915 320.478 198.905 320.548 198.88 320.614C198.854 320.679 198.815 320.739 198.763 320.79C198.712 320.84 198.649 320.88 198.58 320.907C198.512 320.933 198.437 320.946 198.363 320.944C198.288 320.942 198.215 320.926 198.147 320.896C198.08 320.867 198.02 320.824 197.971 320.771C197.923 320.718 197.886 320.657 197.864 320.59C197.864 320.59 195.468 315.31 192.707 314.46C192.418 314.361 192.109 314.325 191.803 314.354C191.497 314.384 191.203 314.478 190.942 314.63C190.382 315.017 189.911 315.505 189.557 316.065C189.202 316.625 188.971 317.245 188.876 317.89C188.063 321.31 188.876 326.12 190.16 327.83C191.691 329.93 194.708 328.12 194.836 328.04C194.954 327.981 195.091 327.965 195.22 327.996C195.349 328.026 195.462 328.101 195.535 328.204C195.609 328.308 195.638 328.434 195.618 328.557C195.597 328.68 195.529 328.792 195.425 328.87C194.464 329.465 193.346 329.801 192.193 329.84Z" fill="#263238"/>
<path d="M172.73 338.81C172.73 338.81 201.16 345.86 202.926 348C204.691 350.14 204.284 352 203.311 353.25C202.299 355.045 201.458 356.918 200.796 358.85C200.796 358.85 202.155 362.85 201.385 364.46C200.77 365.395 199.869 366.136 198.799 366.589C197.73 367.041 196.54 367.185 195.382 367C193.242 366.46 167.894 358.32 166.931 357.78C165.968 357.24 165.572 353.08 167.509 351.78C169.445 350.48 168.472 351.96 169.445 350.51C170.419 349.06 167.316 339.35 172.73 338.81Z" fill="#B2B2B2"/>
<path d="M196.356 367.64C195.995 367.64 195.635 367.596 195.286 367.51C193.06 366.94 167.723 358.8 166.695 358.23C165.978 357.83 165.679 356.54 165.625 355.48C165.625 354.79 165.625 352.48 167.23 351.42C167.652 351.076 168.166 350.848 168.718 350.76C168.782 350.66 168.878 350.51 169.028 350.3C169.177 349.345 169.177 348.375 169.028 347.42C168.782 343.96 168.418 338.74 172.687 338.31C172.751 338.3 172.816 338.3 172.88 338.31C175.812 339.04 201.567 345.48 203.364 347.72C205.504 350.42 204.541 352.53 203.76 353.56C202.792 355.261 201.994 357.042 201.374 358.88C201.642 359.73 202.647 363.07 201.877 364.69C201.107 366.31 198.517 367.64 196.356 367.64ZM168.739 351.75C168.401 351.856 168.089 352.023 167.819 352.24C166.909 352.83 166.631 354.24 166.663 355.42C166.611 356.107 166.799 356.791 167.198 357.37C168.086 357.83 192.964 365.89 195.521 366.54C196.55 366.685 197.602 366.55 198.551 366.151C199.499 365.752 200.305 365.106 200.871 364.29C201.438 363.1 200.625 360.09 200.272 359.04C200.23 358.94 200.23 358.829 200.272 358.73C200.945 356.746 201.812 354.825 202.861 352.99C203.61 351.99 204.145 350.41 202.476 348.33C201.299 346.86 183.612 342.03 172.677 339.33C169.777 339.7 169.777 343.33 170.066 347.38C170.194 349.28 170.248 350.29 169.873 350.85C169.328 351.67 169.199 351.85 168.718 351.77L168.739 351.75Z" fill="#263238"/>
<path d="M260.01 416.93C260.01 416.93 274.091 418.63 274.99 418.49C275.889 418.35 280.747 421.74 284.684 424.01C288.622 426.28 290.131 428.11 292.26 430.1C294.389 432.09 297.257 433.1 296.037 433.92C294.817 434.74 294.229 434.77 292.41 434.2C290.591 433.63 288.472 432.93 288.472 432.93C287.153 433.675 285.601 433.975 284.074 433.78C281.552 433.121 279.075 432.316 276.659 431.37C274.328 431.599 271.972 431.454 269.694 430.94C266.815 430.1 260.909 425 260.909 425L257.421 425.28L256.351 417.78L260.01 416.93Z" fill="white"/>
<path d="M294.25 435.09C293.546 435.053 292.852 434.911 292.196 434.67C290.74 434.22 289.082 433.67 288.483 433.48C287.099 434.209 285.496 434.487 283.925 434.27C281.407 433.623 278.938 432.825 276.531 431.88C274.17 432.11 271.784 431.954 269.48 431.42C266.772 430.62 261.701 426.42 260.673 425.52L257.463 425.78C257.328 425.787 257.194 425.747 257.087 425.668C256.981 425.588 256.909 425.475 256.886 425.35L255.816 417.85C255.799 417.728 255.831 417.604 255.906 417.502C255.981 417.401 256.094 417.329 256.222 417.3L259.86 416.45C259.923 416.435 259.99 416.435 260.053 416.45C265.403 417.09 274.155 418.09 274.894 418.01C275.632 417.93 277.034 418.75 280.789 421.06C282.17 421.92 283.604 422.82 284.952 423.59C287.373 424.98 289.57 426.683 291.479 428.65C291.853 429.02 292.228 429.38 292.624 429.75C293.344 430.396 294.12 430.985 294.946 431.51C296.09 432.29 296.85 432.8 296.85 433.51C296.849 433.678 296.802 433.843 296.714 433.99C296.626 434.137 296.5 434.261 296.347 434.35C295.762 434.817 295.02 435.079 294.25 435.09ZM288.429 432.43H288.611C288.611 432.43 290.751 433.13 292.527 433.7C294.304 434.27 294.667 434.2 295.673 433.49C295.748 433.49 295.759 433.41 295.759 433.41C295.315 432.981 294.82 432.602 294.282 432.28C293.411 431.725 292.592 431.103 291.832 430.42L290.676 429.3C288.836 427.393 286.71 425.746 284.363 424.41C282.994 423.62 281.549 422.72 280.158 421.85C278.104 420.57 275.557 418.98 275.001 418.96C274.102 419.1 262.567 417.72 260.021 417.41L256.939 418.13L257.87 424.71L260.845 424.47C260.996 424.462 261.145 424.509 261.262 424.6C261.315 424.65 267.104 429.6 269.822 430.44C272.028 430.935 274.308 431.07 276.563 430.84C276.65 430.816 276.743 430.816 276.83 430.84C279.214 431.777 281.658 432.572 284.149 433.22C285.539 433.384 286.947 433.11 288.151 432.44C288.25 432.403 288.36 432.4 288.461 432.43H288.429Z" fill="#263238"/>
<path d="M288.461 433.43C288.372 433.431 288.283 433.411 288.205 433.37C288.143 433.339 288.088 433.296 288.044 433.245C287.999 433.194 287.966 433.135 287.946 433.072C287.927 433.008 287.92 432.942 287.928 432.877C287.935 432.811 287.957 432.748 287.991 432.69C288.07 432.578 288.12 432.449 288.137 432.316C288.154 432.182 288.136 432.046 288.087 431.92C287.67 430.86 285.059 429.92 282.962 429.2C281.701 428.82 280.491 428.307 279.356 427.67C278.621 427.136 277.857 426.638 277.066 426.18C276.963 426.144 276.875 426.08 276.812 425.996C276.749 425.912 276.714 425.812 276.713 425.71C276.713 425.577 276.769 425.45 276.869 425.356C276.97 425.263 277.106 425.21 277.248 425.21C277.43 425.21 277.579 425.21 279.987 426.86C281.049 427.441 282.176 427.914 283.347 428.27C285.883 429.16 288.504 430.09 289.093 431.57C289.194 431.832 289.231 432.111 289.202 432.388C289.172 432.665 289.076 432.932 288.921 433.17C288.875 433.247 288.809 433.311 288.728 433.357C288.647 433.402 288.556 433.427 288.461 433.43Z" fill="#263238"/>
<path d="M301.205 426.92C301.205 426.92 301.462 429.2 301.077 429.8C300.692 430.4 299.29 430.4 298.519 428.96C297.996 427.735 297.692 426.437 297.621 425.12L301.205 426.92Z" fill="white"/>
<path d="M300.253 430.68H300.189C299.721 430.636 299.275 430.474 298.898 430.211C298.522 429.949 298.228 429.596 298.049 429.19C297.488 427.918 297.166 426.565 297.096 425.19V424.31L301.761 426.65V426.91C301.826 427.48 302.008 429.41 301.558 430.1C301.412 430.293 301.215 430.448 300.987 430.55C300.758 430.651 300.505 430.696 300.253 430.68ZM298.241 426C298.344 426.943 298.596 427.867 298.99 428.74C299.45 429.58 300.06 429.67 300.221 429.68C300.295 429.688 300.371 429.68 300.442 429.655C300.512 429.631 300.576 429.591 300.627 429.54C300.788 428.783 300.813 428.005 300.702 427.24L298.241 426Z" fill="#263238"/>
<path d="M298.68 426.64C298.354 427.557 297.858 428.413 297.214 429.17C296.583 429.55 295.32 428.97 295.299 427.36C295.406 426.047 295.746 424.759 296.305 423.55L298.68 426.64Z" fill="white"/>
<path d="M296.786 429.78C296.509 429.78 296.237 429.714 295.994 429.59C295.593 429.356 295.267 429.026 295.05 428.633C294.834 428.241 294.735 427.801 294.764 427.36C294.877 425.98 295.239 424.627 295.834 423.36L296.208 422.55L299.3 426.55L299.204 426.8C298.99 427.34 298.241 429.14 297.524 429.58C297.305 429.715 297.048 429.785 296.786 429.78ZM296.454 424.6C296.1 425.485 295.891 426.416 295.834 427.36C295.804 427.62 295.849 427.883 295.966 428.12C296.083 428.358 296.266 428.562 296.497 428.71C296.564 428.74 296.637 428.756 296.711 428.756C296.785 428.756 296.858 428.74 296.925 428.71C297.424 428.106 297.815 427.431 298.081 426.71L296.454 424.6Z" fill="#263238"/>
<path d="M301.077 424.64C301.077 424.64 303.645 426.8 303.388 428.96C303.131 431.12 301.333 430.64 300.83 429.2C300.328 427.76 299.76 426.08 299.76 426.08L301.077 424.64Z" fill="white"/>
<path d="M302.254 430.93C301.799 430.883 301.37 430.707 301.024 430.427C300.678 430.146 300.431 429.774 300.317 429.36C299.803 427.92 299.247 426.24 299.247 426.22L299.161 425.96L300.98 423.96L301.398 424.3C301.505 424.4 304.158 426.66 303.88 429.04C303.687 430.65 302.757 430.91 302.361 430.95L302.254 430.93ZM300.392 426.2C300.552 426.72 300.948 427.96 301.333 429.04C301.547 429.63 301.986 429.94 302.296 429.93C302.607 429.92 302.789 429.51 302.864 428.93C303.024 427.54 301.794 426.08 301.119 425.42L300.392 426.2Z" fill="#263238"/>
<path d="M256.736 408.45C256.736 408.45 271.448 405.92 275.514 406.28C279.58 406.64 290.997 411.16 292.345 411.88C293.694 412.6 301.644 417.88 301.836 419.3C301.873 420.815 301.74 422.33 301.44 423.82C301.44 423.82 305.314 424.55 303.966 426.17C302.617 427.79 299.686 427.44 297.963 426.9C296.24 426.36 290.601 422.9 289.253 422.38C287.905 421.86 283.058 422.92 279.377 421.83C275.696 420.74 269.897 415.68 269.897 415.68L257.87 418.94L256.736 408.45Z" fill="white"/>
<path d="M300.798 427.86C299.775 427.848 298.759 427.683 297.792 427.37C295.877 426.562 294.032 425.619 292.271 424.55C290.88 423.78 289.563 423.05 289.061 422.84C288.114 422.681 287.147 422.657 286.193 422.77C283.864 422.99 281.511 422.834 279.238 422.31C275.867 421.31 270.903 417.2 269.779 416.24L257.453 419.59L256.147 408L256.64 407.92C257.239 407.81 271.47 405.38 275.557 405.74C279.645 406.1 291.211 410.66 292.613 411.41C293.18 411.71 302.115 417.31 302.361 419.2C302.426 420.606 302.322 422.015 302.05 423.4C302.874 423.61 304.329 424.1 304.693 425.02C304.784 425.261 304.803 425.52 304.748 425.77C304.694 426.02 304.567 426.252 304.383 426.44C303.944 426.92 303.391 427.298 302.769 427.544C302.147 427.791 301.473 427.899 300.798 427.86ZM287.83 421.71C288.378 421.681 288.927 421.752 289.446 421.92C290.034 422.15 291.318 422.87 292.795 423.69C294.507 424.716 296.295 425.629 298.145 426.42C299.953 426.99 302.425 427.18 303.548 425.87C303.784 425.59 303.73 425.46 303.709 425.41C303.516 424.93 302.189 424.47 301.355 424.31L300.841 424.22L300.927 423.74C301.217 422.296 301.346 420.828 301.312 419.36C301.141 418.28 293.822 413.27 292.089 412.36C290.762 411.65 279.473 407.17 275.472 406.82C271.941 406.5 259.903 408.46 257.282 408.9L258.352 418.33L270.025 415.16L270.25 415.36C270.25 415.41 276.007 420.36 279.527 421.36C281.68 421.841 283.905 421.98 286.107 421.77C286.76 421.74 287.359 421.71 287.83 421.71Z" fill="#263238"/>
<path d="M290.184 412.9C291.789 413.272 293.224 414.113 294.282 415.3C296.422 417.45 301.44 423.82 301.44 423.82C295.909 423 290.954 418.05 290.954 418.05" fill="white"/>
<path d="M302.639 424.51L301.366 424.32C295.705 423.48 290.762 418.6 290.559 418.39L291.34 417.71C291.34 417.71 295.438 421.71 300.156 423.04C298.648 421.13 295.491 417.21 293.897 415.64C292.907 414.549 291.586 413.765 290.109 413.39L290.248 412.39C291.988 412.789 293.542 413.705 294.678 415C296.818 417.16 301.676 423.32 301.879 423.58L302.639 424.51Z" fill="#263238"/>
<path d="M172.345 373.17C172.345 373.17 166.738 383.3 169.83 408.63C172.923 433.96 183.74 448.79 189.957 448.97C196.174 449.15 242.601 436.67 247.256 434.13C251.91 431.59 261.166 429.07 261.765 428.89C262.364 428.71 263.905 423.46 262.546 416.41C262.024 413.297 261.309 410.215 260.406 407.18L242.216 410.26L214.546 414.6C214.639 414.098 214.557 413.581 214.312 413.126C214.068 412.67 213.673 412.3 213.187 412.07C211.38 411.302 209.499 410.696 207.569 410.26C207.569 410.26 202.54 378.26 192.086 369.92" fill="#B2B2B2"/>
<path d="M190.096 449.47H189.946C183.526 449.28 172.473 434.65 169.295 408.69C166.225 383.5 171.639 373.36 171.874 372.95C171.902 372.886 171.944 372.829 171.998 372.782C172.051 372.734 172.114 372.697 172.183 372.673C172.252 372.649 172.325 372.639 172.399 372.643C172.472 372.647 172.544 372.665 172.609 372.696C172.675 372.727 172.733 372.77 172.78 372.823C172.827 372.876 172.862 372.938 172.882 373.004C172.903 373.07 172.908 373.139 172.899 373.207C172.889 373.275 172.864 373.341 172.826 373.4C172.762 373.5 167.327 383.74 170.365 408.57C173.575 434.85 184.671 448.31 189.979 448.47C196.003 448.61 242.409 436.21 246.977 433.7C248.914 432.65 252.948 430.9 261.187 428.53L261.508 428.44C262.011 427.74 263.241 422.88 262.011 416.49C261.005 411.21 260.31 408.67 260.031 407.75L242.312 410.75L214.631 415.09C214.544 415.104 214.454 415.098 214.37 415.072C214.286 415.046 214.211 415 214.15 414.94C214.09 414.881 214.047 414.809 214.025 414.73C214.002 414.652 214.001 414.569 214.021 414.49C214.094 414.094 214.029 413.686 213.837 413.326C213.644 412.967 213.334 412.674 212.951 412.49C211.183 411.747 209.346 411.158 207.462 410.73C207.361 410.706 207.269 410.654 207.198 410.581C207.128 410.508 207.082 410.417 207.066 410.32C207.013 410 201.941 378.39 191.765 370.32C191.712 370.277 191.668 370.225 191.636 370.167C191.604 370.108 191.585 370.044 191.58 369.979C191.574 369.913 191.583 369.848 191.604 369.785C191.626 369.723 191.661 369.665 191.707 369.615C191.752 369.565 191.808 369.524 191.871 369.494C191.933 369.465 192.002 369.447 192.072 369.441C192.142 369.436 192.212 369.444 192.279 369.464C192.346 369.485 192.408 369.517 192.461 369.56C202.487 377.56 207.441 406.27 208.072 409.88C209.915 410.3 211.707 410.893 213.422 411.65C213.885 411.882 214.278 412.219 214.566 412.629C214.854 413.04 215.027 413.511 215.07 414L242.088 409.76L260.278 406.69C260.403 406.671 260.531 406.694 260.641 406.754C260.75 406.814 260.834 406.908 260.877 407.02C261.785 410.078 262.5 413.183 263.017 416.32C264.322 423.12 263.017 429.01 261.883 429.32L261.444 429.45C253.301 431.79 249.353 433.5 247.47 434.53C242.697 437.2 197.008 449.47 190.096 449.47Z" fill="#263238"/>
<path d="M185.699 421.61C185.574 421.608 185.455 421.566 185.359 421.491C185.264 421.417 185.199 421.314 185.174 421.2C185.149 421.07 185.18 420.936 185.26 420.827C185.341 420.719 185.463 420.644 185.602 420.62C191.616 419.56 207.12 409.94 207.28 409.84C207.398 409.781 207.535 409.765 207.664 409.796C207.793 409.826 207.906 409.9 207.979 410.004C208.053 410.108 208.082 410.234 208.062 410.357C208.042 410.48 207.973 410.592 207.869 410.67C207.227 411.07 192.033 420.51 185.806 421.6L185.699 421.61Z" fill="#263238"/>
<path d="M183.569 432.64C183.471 432.642 183.375 432.617 183.292 432.569C183.208 432.521 183.141 432.452 183.098 432.37C183.034 432.253 183.022 432.117 183.064 431.992C183.106 431.866 183.199 431.762 183.323 431.7C184.809 430.977 186.239 430.159 187.603 429.25C187.661 429.212 187.726 429.185 187.795 429.17C187.863 429.156 187.935 429.154 188.004 429.165C188.074 429.176 188.14 429.2 188.2 429.235C188.26 429.27 188.311 429.316 188.352 429.37C188.393 429.424 188.422 429.485 188.438 429.549C188.453 429.613 188.455 429.68 188.443 429.745C188.431 429.81 188.406 429.872 188.368 429.928C188.33 429.984 188.281 430.032 188.224 430.07C186.831 431.001 185.372 431.843 183.858 432.59C183.77 432.634 183.669 432.651 183.569 432.64Z" fill="#263238"/>
<path d="M190.267 428.51C190.186 428.509 190.105 428.492 190.031 428.459C189.957 428.426 189.892 428.379 189.839 428.32C189.753 428.213 189.714 428.079 189.732 427.947C189.75 427.814 189.823 427.693 189.936 427.61C195.408 423.482 200.524 418.958 205.237 414.08C205.284 414.031 205.341 413.991 205.404 413.962C205.468 413.933 205.537 413.917 205.608 413.913C205.678 413.909 205.749 413.918 205.816 413.94C205.882 413.962 205.944 413.996 205.996 414.04C206.049 414.084 206.092 414.137 206.123 414.197C206.153 414.256 206.171 414.321 206.175 414.387C206.179 414.453 206.169 414.519 206.146 414.581C206.123 414.643 206.086 414.701 206.039 414.75C201.28 419.671 196.113 424.235 190.588 428.4C190.497 428.468 190.384 428.507 190.267 428.51Z" fill="#263238"/>
<path d="M205.247 430.83C205.165 430.831 205.084 430.815 205.01 430.782C204.935 430.749 204.87 430.7 204.819 430.64C204.737 430.533 204.702 430.4 204.722 430.27C204.742 430.139 204.815 430.021 204.926 429.94C205.69 429.386 206.383 428.752 206.992 428.05C207.036 427.999 207.092 427.956 207.154 427.925C207.217 427.894 207.285 427.874 207.356 427.868C207.426 427.861 207.498 427.868 207.565 427.887C207.633 427.906 207.696 427.938 207.751 427.98C207.806 428.022 207.851 428.074 207.885 428.132C207.918 428.191 207.939 428.255 207.946 428.32C207.953 428.386 207.946 428.453 207.925 428.516C207.905 428.58 207.871 428.639 207.826 428.69C207.16 429.433 206.406 430.104 205.579 430.69C205.489 430.771 205.372 430.821 205.247 430.83Z" fill="#263238"/>
<path d="M209.003 426.79C208.901 426.787 208.802 426.759 208.714 426.71C208.596 426.638 208.511 426.526 208.48 426.397C208.448 426.269 208.47 426.133 208.543 426.02C210.468 422.924 211.91 419.587 212.823 416.11C212.856 415.977 212.943 415.862 213.067 415.79C213.19 415.718 213.339 415.694 213.481 415.725C213.623 415.755 213.746 415.837 213.823 415.953C213.901 416.068 213.926 416.207 213.893 416.34C212.942 419.926 211.443 423.364 209.442 426.55C209.396 426.621 209.332 426.68 209.255 426.722C209.178 426.764 209.092 426.787 209.003 426.79Z" fill="#263238"/>
<path d="M248.604 428.12C248.533 428.117 248.463 428.102 248.398 428.073C248.333 428.045 248.276 428.005 248.228 427.956C248.18 427.907 248.143 427.849 248.119 427.786C248.096 427.723 248.086 427.656 248.09 427.59C248.154 426.59 248.176 425.53 248.176 424.59C248.174 424.525 248.187 424.46 248.213 424.399C248.238 424.339 248.277 424.283 248.326 424.237C248.374 424.19 248.433 424.153 248.497 424.128C248.561 424.103 248.63 424.09 248.7 424.09C248.772 424.084 248.843 424.093 248.911 424.115C248.979 424.137 249.04 424.173 249.092 424.219C249.144 424.266 249.184 424.322 249.211 424.384C249.237 424.446 249.249 424.513 249.246 424.58C249.246 425.58 249.246 426.58 249.16 427.69C249.144 427.815 249.077 427.929 248.974 428.009C248.87 428.089 248.738 428.128 248.604 428.12Z" fill="#263238"/>
<path d="M248.465 421.37C248.333 421.37 248.206 421.324 248.108 421.241C248.011 421.157 247.951 421.043 247.94 420.92C247.095 413.47 244.035 411.03 244.014 411.01C243.903 410.926 243.832 410.805 243.817 410.673C243.802 410.541 243.844 410.408 243.933 410.305C244.023 410.202 244.152 410.136 244.294 410.121C244.435 410.107 244.577 410.146 244.688 410.23C244.827 410.33 248.112 412.9 248.968 420.82C248.983 420.951 248.942 421.083 248.853 421.186C248.765 421.289 248.637 421.355 248.497 421.37H248.465Z" fill="#263238"/>
<path d="M154.39 473.63H136.96C136.96 473.63 125.661 431.53 130.208 399.06C130.424 397.552 131.219 396.168 132.446 395.167C133.672 394.166 135.246 393.616 136.875 393.62C137.758 393.619 138.633 393.781 139.449 394.097C140.266 394.414 141.006 394.879 141.629 395.465C142.252 396.05 142.744 396.746 143.078 397.51C143.412 398.275 143.58 399.094 143.573 399.92C143.487 411.49 144.621 438.22 154.39 473.63Z" fill="#263238"/>
<path d="M154.39 474.13H136.96C136.842 474.129 136.727 474.091 136.634 474.022C136.541 473.953 136.475 473.858 136.446 473.75C136.329 473.33 125.169 431.18 129.684 398.99C129.863 397.736 130.414 396.554 131.276 395.577C132.137 394.601 133.274 393.87 134.558 393.467C135.841 393.064 137.22 393.006 138.537 393.298C139.854 393.59 141.058 394.221 142.01 395.12C142.692 395.746 143.232 396.493 143.6 397.318C143.967 398.142 144.155 399.027 144.15 399.92C144.076 412.47 145.37 438.72 154.968 473.51C154.99 473.584 154.992 473.661 154.976 473.736C154.959 473.811 154.923 473.881 154.872 473.94C154.816 474.008 154.743 474.062 154.658 474.095C154.574 474.128 154.481 474.14 154.39 474.13ZM137.367 473.13H153.695C144.225 438.54 142.995 412.44 142.995 399.92C143.002 399.16 142.848 398.406 142.541 397.702C142.234 396.998 141.781 396.358 141.208 395.818C140.635 395.279 139.953 394.851 139.202 394.56C138.451 394.268 137.645 394.119 136.832 394.12C135.336 394.121 133.892 394.628 132.765 395.547C131.638 396.466 130.905 397.735 130.701 399.12C126.463 429.5 136.265 468.85 137.367 473.13Z" fill="#263238"/>
<path d="M518.394 474.13H13.91C13.7681 474.13 13.632 474.077 13.5317 473.983C13.4314 473.89 13.375 473.762 13.375 473.63C13.375 473.497 13.4314 473.37 13.5317 473.276C13.632 473.183 13.7681 473.13 13.91 473.13H518.394C518.535 473.132 518.669 473.186 518.769 473.279C518.869 473.372 518.926 473.498 518.929 473.63C518.929 473.762 518.872 473.89 518.772 473.983C518.672 474.077 518.536 474.13 518.394 474.13Z" fill="#263238"/>
<g clip-path="url(#clip0_12_1448)">
<path d="M234.432 172.823C233.86 173.003 233.25 173.028 232.665 172.897C232.08 172.765 231.54 172.482 231.099 172.075C230.658 171.668 230.332 171.152 230.154 170.578C229.976 170.005 229.952 169.395 230.084 168.809C232.069 160.54 239.618 140.317 267.118 131.811C279.03 128.127 290.453 128.064 301.057 131.623C309.781 134.539 315.572 139.101 318.343 141.307C319.046 141.864 319.5 142.679 319.604 143.571C319.708 144.464 319.454 145.361 318.897 146.066C318.89 146.075 318.883 146.084 318.876 146.092C318.304 146.799 317.478 147.253 316.575 147.355C315.672 147.458 314.766 147.201 314.05 146.641C309.031 142.681 293.8 130.652 269.116 138.287C245.013 145.742 238.465 163.18 236.767 170.315C236.638 170.904 236.353 171.448 235.942 171.889C235.532 172.33 235.01 172.653 234.432 172.823Z" fill="#CDFAC9"/>
<path d="M309.385 219.662C309.112 219.75 308.829 219.803 308.542 219.82C287.058 220.979 273.389 203.108 272.828 202.363L272.724 202.191C272.382 201.659 264.111 189.059 267.752 179.053C269.424 174.478 273.123 171.267 278.777 169.519C284.035 167.892 288.337 168.373 291.999 170.992C295.002 173.125 296.927 176.307 298.792 179.379C302.671 185.758 305.049 189.003 312.423 187.131C315.66 186.308 317.172 183.773 317.863 181.799C319.722 176.426 318.074 169.102 313.714 163.561C308.081 156.372 292.317 144.431 272.867 150.447C264.561 153.016 257.764 158.079 253.212 165.05C249.441 170.835 247.249 178.02 247.201 184.721C247.125 197.197 257.337 213.61 257.434 213.759C257.669 214.136 257.828 214.555 257.901 214.993C257.974 215.431 257.961 215.879 257.861 216.312C257.761 216.745 257.578 217.153 257.32 217.515C257.063 217.877 256.737 218.184 256.36 218.419C256.35 218.426 256.34 218.432 256.329 218.439C255.558 218.92 254.63 219.078 253.744 218.88C252.857 218.681 252.085 218.142 251.593 217.378C251.132 216.627 240.227 199.126 240.315 184.707C240.438 169.077 249.923 150.424 270.862 143.948C280.541 140.954 290.712 141.458 300.283 145.387C307.702 148.451 314.568 153.523 319.107 159.316C324.905 166.709 326.948 176.386 324.308 183.939C322.549 188.975 318.906 192.449 314.065 193.691C301.447 196.905 296.504 188.814 292.899 182.911C289.197 176.86 287.149 174.023 280.751 176.002C277.238 177.089 275.074 178.83 274.164 181.331C272.925 184.751 274.099 189.134 275.302 192.207C275.314 192.239 275.327 192.271 275.339 192.303C276.881 196.209 279.288 199.714 282.378 202.554C287.328 207.131 296.518 213.656 308.23 213.027C309.125 212.971 310.006 213.274 310.679 213.868C311.351 214.463 311.76 215.301 311.816 216.197C311.817 216.208 311.817 216.219 311.818 216.23C311.845 216.99 311.622 217.738 311.182 218.358C310.742 218.979 310.111 219.437 309.385 219.662Z" fill="#CDFAC9"/>
<path d="M283.333 226.086C282.885 226.225 282.414 226.271 281.948 226.223C281.481 226.174 281.03 226.031 280.62 225.802C270.024 219.791 262.586 211.706 257.229 200.374L257.208 200.304C253.832 192.749 251.799 181.206 256.282 171.449C259.592 164.25 265.804 159.19 274.714 156.434C285.254 153.174 295.067 155.574 303.121 163.341C306.784 166.926 309.763 171.15 311.911 175.806C312.253 176.644 312.252 177.582 311.909 178.42C311.565 179.257 310.906 179.925 310.075 180.279C309.243 180.634 308.305 180.646 307.464 180.314C306.623 179.982 305.947 179.331 305.582 178.504C303.763 174.618 301.251 171.097 298.171 168.113C291.963 162.199 284.746 160.451 276.696 162.941C269.74 165.092 264.95 168.896 262.498 174.248C258.961 181.95 260.782 191.569 263.424 197.489C268.147 207.511 274.698 214.62 284.024 219.901C284.41 220.119 284.748 220.41 285.021 220.759C285.294 221.107 285.495 221.506 285.614 221.933C285.733 222.359 285.767 222.805 285.713 223.245C285.66 223.684 285.521 224.109 285.303 224.495C285.295 224.51 285.286 224.526 285.277 224.541C284.843 225.279 284.15 225.83 283.333 226.086Z" fill="#CDFAC9"/>
<path d="M284.449 192.21C286.87 192.21 288.832 190.245 288.832 187.821C288.832 185.398 286.87 183.433 284.449 183.433C282.028 183.433 280.066 185.398 280.066 187.821C280.066 190.245 282.028 192.21 284.449 192.21Z" fill="#E6E6E6"/>
</g>
<defs>
<clipPath id="clip0_12_1448">
<rect width="254" height="146" fill="white" transform="translate(230 129)"/>
</clipPath>
</defs>
</svg>
